<svg version="1.1" xmlns="http://www.w3.org/2000/svg"> 
 <polygon points=" 0 619 357 0 715 619 " fill="red" /> 
 <polygon points=" 0 619 24 577 48 619 " fill="green" stroke="black" stroke-width="0.5"/> 
 <polygon points=" 24 577 48 619 72 577 " fill="green" stroke="black" stroke-width="0.5"/> 
 <polygon points=" 48 619 72 577 96 619 " fill="green" stroke="black" stroke-width="0.5"/> 
 <polygon points=" 72 577 96 619 120 577 " fill="green" stroke="black" stroke-width="0.5"/> 
 <polygon points=" 96 619 120 577 144 619 " fill="green" stroke="black" stroke-width="0.5"/> 
 <polygon points=" 120 577 144 619 168 577 " fill="green" stroke="black" stroke-width="0.5"/> 
 <polygon points=" 144 619 168 577 192 619 " fill="green" stroke="black" stroke-width="0.5"/> 
 <polygon points=" 168 577 192 619 216 577 " fill="green" stroke="black" stroke-width="0.5"/> 
 <polygon points=" 192 619 216 577 240 619 " fill="green" stroke="black" stroke-width="0.5"/> 
 <polygon points=" 216 577 240 619 264 577 " fill="green" stroke="black" stroke-width="0.5"/> 
 <polygon points=" 240 619 264 577 288 619 " fill="green" stroke="black" stroke-width="0.5"/> 
 <polygon points=" 264 577 288 619 312 577 " fill="green" stroke="black" stroke-width="0.5"/> 
 <polygon points=" 288 619 312 577 336 619 " fill="green" stroke="black" stroke-width="0.5"/> 
 <polygon points=" 312 577 336 619 360 577 " fill="green" stroke="black" stroke-width="0.5"/> 
 <polygon points=" 336 619 360 577 384 619 " fill="green" stroke="black" stroke-width="0.5"/> 
 <polygon points=" 360 577 384 619 408 577 " fill="green" stroke="black" stroke-width="0.5"/> 
 <polygon points=" 384 619 408 577 432 619 " fill="green" stroke="black" stroke-width="0.5"/> 
 <polygon points=" 408 577 432 619 456 577 " fill="green" stroke="black" stroke-width="0.5"/> 
 <polygon points=" 432 619 456 577 480 619 " fill="green" stroke="black" stroke-width="0.5"/> 
 <polygon points=" 456 577 480 619 504 577 " fill="green" stroke="black" stroke-width="0.5"/> 
 <polygon points=" 480 619 504 577 528 619 " fill="green" stroke="black" stroke-width="0.5"/> 
 <polygon points=" 504 577 528 619 552 577 " fill="green" stroke="black" stroke-width="0.5"/> 
 <polygon points=" 528 619 552 577 576 619 " fill="green" stroke="black" stroke-width="0.5"/> 
 <polygon points=" 552 577 576 619 600 577 " fill="green" stroke="black" stroke-width="0.5"/> 
 <polygon points=" 576 619 600 577 624 619 " fill="green" stroke="black" stroke-width="0.5"/> 
 <polygon points=" 600 577 624 619 648 577 " fill="green" stroke="black" stroke-width="0.5"/> 
 <polygon points=" 624 619 648 577 672 619 " fill="green" stroke="black" stroke-width="0.5"/> 
 <polygon points=" 24 577 48 536 72 577 " fill="green" stroke="black" stroke-width="0.5"/> 
 <polygon points=" 48 536 72 577 96 536 " fill="green" stroke="black" stroke-width="0.5"/> 
 <polygon points=" 72 577 96 536 120 577 " fill="green" stroke="black" stroke-width="0.5"/> 
 <polygon points=" 96 536 120 577 144 536 " fill="green" stroke="black" stroke-width="0.5"/> 
 <polygon points=" 120 577 144 536 168 577 " fill="green" stroke="black" stroke-width="0.5"/> 
 <polygon points=" 144 536 168 577 192 536 " fill="green" stroke="black" stroke-width="0.5"/> 
 <polygon points=" 168 577 192 536 216 577 " fill="green" stroke="black" stroke-width="0.5"/> 
 <polygon points=" 192 536 216 577 240 536 " fill="green" stroke="black" stroke-width="0.5"/> 
 <polygon points=" 216 577 240 536 264 577 " fill="green" stroke="black" stroke-width="0.5"/> 
 <polygon points=" 240 536 264 577 288 536 " fill="green" stroke="black" stroke-width="0.5"/> 
 <polygon points=" 264 577 288 536 312 577 " fill="green" stroke="black" stroke-width="0.5"/> 
 <polygon points=" 288 536 312 577 336 536 " fill="green" stroke="black" stroke-width="0.5"/> 
 <polygon points=" 312 577 336 536 360 577 " fill="green" stroke="black" stroke-width="0.5"/> 
 <polygon points=" 336 536 360 577 384 536 " fill="green" stroke="black" stroke-width="0.5"/> 
 <polygon points=" 360 577 384 536 408 577 " fill="green" stroke="black" stroke-width="0.5"/> 
 <polygon points=" 384 536 408 577 432 536 " fill="green" stroke="black" stroke-width="0.5"/> 
 <polygon points=" 408 577 432 536 456 577 " fill="green" stroke="black" stroke-width="0.5"/> 
 <polygon points=" 432 536 456 577 480 536 " fill="green" stroke="black" stroke-width="0.5"/> 
 <polygon points=" 456 577 480 536 504 577 " fill="green" stroke="black" stroke-width="0.5"/> 
 <polygon points=" 480 536 504 577 528 536 " fill="green" stroke="black" stroke-width="0.5"/> 
 <polygon points=" 504 577 528 536 552 577 " fill="green" stroke="black" stroke-width="0.5"/> 
 <polygon points=" 528 536 552 577 576 536 " fill="green" stroke="black" stroke-width="0.5"/> 
 <polygon points=" 552 577 576 536 600 577 " fill="green" stroke="black" stroke-width="0.5"/> 
 <polygon points=" 576 536 600 577 624 536 " fill="green" stroke="black" stroke-width="0.5"/> 
 <polygon points=" 600 577 624 536 648 577 " fill="green" stroke="black" stroke-width="0.5"/> 
 <polygon points=" 48 536 72 494 96 536 " fill="green" stroke="black" stroke-width="0.5"/> 
 <polygon points=" 72 494 96 536 120 494 " fill="green" stroke="black" stroke-width="0.5"/> 
 <polygon points=" 96 536 120 494 144 536 " fill="green" stroke="black" stroke-width="0.5"/> 
 <polygon points=" 120 494 144 536 168 494 " fill="green" stroke="black" stroke-width="0.5"/> 
 <polygon points=" 144 536 168 494 192 536 " fill="green" stroke="black" stroke-width="0.5"/> 
 <polygon points=" 168 494 192 536 216 494 " fill="green" stroke="black" stroke-width="0.5"/> 
 <polygon points=" 192 536 216 494 240 536 " fill="green" stroke="black" stroke-width="0.5"/> 
 <polygon points=" 216 494 240 536 264 494 " fill="green" stroke="black" stroke-width="0.5"/> 
 <polygon points=" 240 536 264 494 288 536 " fill="green" stroke="black" stroke-width="0.5"/> 
 <polygon points=" 264 494 288 536 312 494 " fill="green" stroke="black" stroke-width="0.5"/> 
 <polygon points=" 288 536 312 494 336 536 " fill="green" stroke="black" stroke-width="0.5"/> 
 <polygon points=" 312 494 336 536 360 494 " fill="green" stroke="black" stroke-width="0.5"/> 
 <polygon points=" 336 536 360 494 384 536 " fill="green" stroke="black" stroke-width="0.5"/> 
 <polygon points=" 360 494 384 536 408 494 " fill="green" stroke="black" stroke-width="0.5"/> 
 <polygon points=" 384 536 408 494 432 536 " fill="green" stroke="black" stroke-width="0.5"/> 
 <polygon points=" 408 494 432 536 456 494 " fill="green" stroke="black" stroke-width="0.5"/> 
 <polygon points=" 432 536 456 494 480 536 " fill="green" stroke="black" stroke-width="0.5"/> 
 <polygon points=" 456 494 480 536 504 494 " fill="green" stroke="black" stroke-width="0.5"/> 
 <polygon points=" 480 536 504 494 528 536 " fill="green" stroke="black" stroke-width="0.5"/> 
 <polygon points=" 504 494 528 536 552 494 " fill="green" stroke="black" stroke-width="0.5"/> 
 <polygon points=" 528 536 552 494 576 536 " fill="green" stroke="black" stroke-width="0.5"/> 
 <polygon points=" 552 494 576 536 600 494 " fill="green" stroke="black" stroke-width="0.5"/> 
 <polygon points=" 576 536 600 494 624 536 " fill="green" stroke="black" stroke-width="0.5"/> 
 <polygon points=" 72 494 96 452 120 494 " fill="green" stroke="black" stroke-width="0.5"/> 
 <polygon points=" 96 452 120 494 144 452 " fill="green" stroke="black" stroke-width="0.5"/> 
 <polygon points=" 120 494 144 452 168 494 " fill="green" stroke="black" stroke-width="0.5"/> 
 <polygon points=" 144 452 168 494 192 452 " fill="green" stroke="black" stroke-width="0.5"/> 
 <polygon points=" 168 494 192 452 216 494 " fill="green" stroke="black" stroke-width="0.5"/> 
 <polygon points=" 192 452 216 494 240 452 " fill="green" stroke="black" stroke-width="0.5"/> 
 <polygon points=" 216 494 240 452 264 494 " fill="green" stroke="black" stroke-width="0.5"/> 
 <polygon points=" 240 452 264 494 288 452 " fill="green" stroke="black" stroke-width="0.5"/> 
 <polygon points=" 264 494 288 452 312 494 " fill="green" stroke="black" stroke-width="0.5"/> 
 <polygon points=" 288 452 312 494 336 452 " fill="green" stroke="black" stroke-width="0.5"/> 
 <polygon points=" 312 494 336 452 360 494 " fill="green" stroke="black" stroke-width="0.5"/> 
 <polygon points=" 336 452 360 494 384 452 " fill="green" stroke="black" stroke-width="0.5"/> 
 <polygon points=" 360 494 384 452 408 494 " fill="green" stroke="black" stroke-width="0.5"/> 
 <polygon points=" 384 452 408 494 432 452 " fill="green" stroke="black" stroke-width="0.5"/> 
 <polygon points=" 408 494 432 452 456 494 " fill="green" stroke="black" stroke-width="0.5"/> 
 <polygon points=" 432 452 456 494 480 452 " fill="green" stroke="black" stroke-width="0.5"/> 
 <polygon points=" 456 494 480 452 504 494 " fill="green" stroke="black" stroke-width="0.5"/> 
 <polygon points=" 480 452 504 494 528 452 " fill="green" stroke="black" stroke-width="0.5"/> 
 <polygon points=" 504 494 528 452 552 494 " fill="green" stroke="black" stroke-width="0.5"/> 
 <polygon points=" 528 452 552 494 576 452 " fill="green" stroke="black" stroke-width="0.5"/> 
 <polygon points=" 552 494 576 452 600 494 " fill="green" stroke="black" stroke-width="0.5"/> 
 <polygon points=" 96 452 120 411 144 452 " fill="green" stroke="black" stroke-width="0.5"/> 
 <polygon points=" 120 411 144 452 168 411 " fill="green" stroke="black" stroke-width="0.5"/> 
 <polygon points=" 144 452 168 411 192 452 " fill="green" stroke="black" stroke-width="0.5"/> 
 <polygon points=" 168 411 192 452 216 411 " fill="green" stroke="black" stroke-width="0.5"/> 
 <polygon points=" 192 452 216 411 240 452 " fill="green" stroke="black" stroke-width="0.5"/> 
 <polygon points=" 216 411 240 452 264 411 " fill="green" stroke="black" stroke-width="0.5"/> 
 <polygon points=" 240 452 264 411 288 452 " fill="green" stroke="black" stroke-width="0.5"/> 
 <polygon points=" 264 411 288 452 312 411 " fill="green" stroke="black" stroke-width="0.5"/> 
 <polygon points=" 288 452 312 411 336 452 " fill="green" stroke="black" stroke-width="0.5"/> 
 <polygon points=" 312 411 336 452 360 411 " fill="green" stroke="black" stroke-width="0.5"/> 
 <polygon points=" 336 452 360 411 384 452 " fill="green" stroke="black" stroke-width="0.5"/> 
 <polygon points=" 360 411 384 452 408 411 " fill="green" stroke="black" stroke-width="0.5"/> 
 <polygon points=" 384 452 408 411 432 452 " fill="green" stroke="black" stroke-width="0.5"/> 
 <polygon points=" 408 411 432 452 456 411 " fill="green" stroke="black" stroke-width="0.5"/> 
 <polygon points=" 432 452 456 411 480 452 " fill="green" stroke="black" stroke-width="0.5"/> 
 <polygon points=" 456 411 480 452 504 411 " fill="green" stroke="black" stroke-width="0.5"/> 
 <polygon points=" 480 452 504 411 528 452 " fill="green" stroke="black" stroke-width="0.5"/> 
 <polygon points=" 504 411 528 452 552 411 " fill="green" stroke="black" stroke-width="0.5"/> 
 <polygon points=" 528 452 552 411 576 452 " fill="green" stroke="black" stroke-width="0.5"/> 
 <polygon points=" 120 411 144 369 168 411 " fill="green" stroke="black" stroke-width="0.5"/> 
 <polygon points=" 144 369 168 411 192 369 " fill="green" stroke="black" stroke-width="0.5"/> 
 <polygon points=" 168 411 192 369 216 411 " fill="green" stroke="black" stroke-width="0.5"/> 
 <polygon points=" 192 369 216 411 240 369 " fill="green" stroke="black" stroke-width="0.5"/> 
 <polygon points=" 216 411 240 369 264 411 " fill="green" stroke="black" stroke-width="0.5"/> 
 <polygon points=" 240 369 264 411 288 369 " fill="green" stroke="black" stroke-width="0.5"/> 
 <polygon points=" 264 411 288 369 312 411 " fill="green" stroke="black" stroke-width="0.5"/> 
 <polygon points=" 288 369 312 411 336 369 " fill="green" stroke="black" stroke-width="0.5"/> 
 <polygon points=" 312 411 336 369 360 411 " fill="green" stroke="black" stroke-width="0.5"/> 
 <polygon points=" 336 369 360 411 384 369 " fill="green" stroke="black" stroke-width="0.5"/> 
 <polygon points=" 360 411 384 369 408 411 " fill="green" stroke="black" stroke-width="0.5"/> 
 <polygon points=" 384 369 408 411 432 369 " fill="green" stroke="black" stroke-width="0.5"/> 
 <polygon points=" 408 411 432 369 456 411 " fill="green" stroke="black" stroke-width="0.5"/> 
 <polygon points=" 432 369 456 411 480 369 " fill="green" stroke="black" stroke-width="0.5"/> 
 <polygon points=" 456 411 480 369 504 411 " fill="green" stroke="black" stroke-width="0.5"/> 
 <polygon points=" 480 369 504 411 528 369 " fill="green" stroke="black" stroke-width="0.5"/> 
 <polygon points=" 504 411 528 369 552 411 " fill="green" stroke="black" stroke-width="0.5"/> 
 <polygon points=" 144 369 168 328 192 369 " fill="green" stroke="black" stroke-width="0.5"/> 
 <polygon points=" 168 328 192 369 216 328 " fill="green" stroke="black" stroke-width="0.5"/> 
 <polygon points=" 192 369 216 328 240 369 " fill="green" stroke="black" stroke-width="0.5"/> 
 <polygon points=" 216 328 240 369 264 328 " fill="green" stroke="black" stroke-width="0.5"/> 
 <polygon points=" 240 369 264 328 288 369 " fill="green" stroke="black" stroke-width="0.5"/> 
 <polygon points=" 264 328 288 369 312 328 " fill="green" stroke="black" stroke-width="0.5"/> 
 <polygon points=" 288 369 312 328 336 369 " fill="green" stroke="black" stroke-width="0.5"/> 
 <polygon points=" 312 328 336 369 360 328 " fill="green" stroke="black" stroke-width="0.5"/> 
 <polygon points=" 336 369 360 328 384 369 " fill="green" stroke="black" stroke-width="0.5"/> 
 <polygon points=" 360 328 384 369 408 328 " fill="green" stroke="black" stroke-width="0.5"/> 
 <polygon points=" 384 369 408 328 432 369 " fill="green" stroke="black" stroke-width="0.5"/> 
 <polygon points=" 408 328 432 369 456 328 " fill="green" stroke="black" stroke-width="0.5"/> 
 <polygon points=" 432 369 456 328 480 369 " fill="green" stroke="black" stroke-width="0.5"/> 
 <polygon points=" 456 328 480 369 504 328 " fill="green" stroke="black" stroke-width="0.5"/> 
 <polygon points=" 480 369 504 328 528 369 " fill="green" stroke="black" stroke-width="0.5"/> 
 <polygon points=" 168 328 192 286 216 328 " fill="green" stroke="black" stroke-width="0.5"/> 
 <polygon points=" 192 286 216 328 240 286 " fill="green" stroke="black" stroke-width="0.5"/> 
 <polygon points=" 216 328 240 286 264 328 " fill="green" stroke="black" stroke-width="0.5"/> 
 <polygon points=" 240 286 264 328 288 286 " fill="green" stroke="black" stroke-width="0.5"/> 
 <polygon points=" 264 328 288 286 312 328 " fill="green" stroke="black" stroke-width="0.5"/> 
 <polygon points=" 288 286 312 328 336 286 " fill="green" stroke="black" stroke-width="0.5"/> 
 <polygon points=" 312 328 336 286 360 328 " fill="green" stroke="black" stroke-width="0.5"/> 
 <polygon points=" 336 286 360 328 384 286 " fill="green" stroke="black" stroke-width="0.5"/> 
 <polygon points=" 360 328 384 286 408 328 " fill="green" stroke="black" stroke-width="0.5"/> 
 <polygon points=" 384 286 408 328 432 286 " fill="green" stroke="black" stroke-width="0.5"/> 
 <polygon points=" 408 328 432 286 456 328 " fill="green" stroke="black" stroke-width="0.5"/> 
 <polygon points=" 432 286 456 328 480 286 " fill="green" stroke="black" stroke-width="0.5"/> 
 <polygon points=" 456 328 480 286 504 328 " fill="green" stroke="black" stroke-width="0.5"/> 
 <polygon points=" 192 286 216 245 240 286 " fill="green" stroke="black" stroke-width="0.5"/> 
 <polygon points=" 216 245 240 286 264 245 " fill="green" stroke="black" stroke-width="0.5"/> 
 <polygon points=" 240 286 264 245 288 286 " fill="green" stroke="black" stroke-width="0.5"/> 
 <polygon points=" 264 245 288 286 312 245 " fill="green" stroke="black" stroke-width="0.5"/> 
 <polygon points=" 288 286 312 245 336 286 " fill="green" stroke="black" stroke-width="0.5"/> 
 <polygon points=" 312 245 336 286 360 245 " fill="green" stroke="black" stroke-width="0.5"/> 
 <polygon points=" 336 286 360 245 384 286 " fill="green" stroke="black" stroke-width="0.5"/> 
 <polygon points=" 360 245 384 286 408 245 " fill="green" stroke="black" stroke-width="0.5"/> 
 <polygon points=" 384 286 408 245 432 286 " fill="green" stroke="black" stroke-width="0.5"/> 
 <polygon points=" 408 245 432 286 456 245 " fill="green" stroke="black" stroke-width="0.5"/> 
 <polygon points=" 432 286 456 245 480 286 " fill="green" stroke="black" stroke-width="0.5"/> 
 <polygon points=" 216 245 240 203 264 245 " fill="green" stroke="black" stroke-width="0.5"/> 
 <polygon points=" 240 203 264 245 288 203 " fill="green" stroke="black" stroke-width="0.5"/> 
 <polygon points=" 264 245 288 203 312 245 " fill="green" stroke="black" stroke-width="0.5"/> 
 <polygon points=" 288 203 312 245 336 203 " fill="green" stroke="black" stroke-width="0.5"/> 
 <polygon points=" 312 245 336 203 360 245 " fill="green" stroke="black" stroke-width="0.5"/> 
 <polygon points=" 336 203 360 245 384 203 " fill="green" stroke="black" stroke-width="0.5"/> 
 <polygon points=" 360 245 384 203 408 245 " fill="green" stroke="black" stroke-width="0.5"/> 
 <polygon points=" 384 203 408 245 432 203 " fill="green" stroke="black" stroke-width="0.5"/> 
 <polygon points=" 408 245 432 203 456 245 " fill="green" stroke="black" stroke-width="0.5"/> 
 <polygon points=" 240 203 264 161 288 203 " fill="green" stroke="black" stroke-width="0.5"/> 
 <polygon points=" 264 161 288 203 312 161 " fill="green" stroke="black" stroke-width="0.5"/> 
 <polygon points=" 288 203 312 161 336 203 " fill="green" stroke="black" stroke-width="0.5"/> 
 <polygon points=" 312 161 336 203 360 161 " fill="green" stroke="black" stroke-width="0.5"/> 
 <polygon points=" 336 203 360 161 384 203 " fill="green" stroke="black" stroke-width="0.5"/> 
 <polygon points=" 360 161 384 203 408 161 " fill="green" stroke="black" stroke-width="0.5"/> 
 <polygon points=" 384 203 408 161 432 203 " fill="green" stroke="black" stroke-width="0.5"/> 
 <polygon points=" 264 161 288 120 312 161 " fill="green" stroke="black" stroke-width="0.5"/> 
 <polygon points=" 288 120 312 161 336 120 " fill="green" stroke="black" stroke-width="0.5"/> 
 <polygon points=" 312 161 336 120 360 161 " fill="green" stroke="black" stroke-width="0.5"/> 
 <polygon points=" 336 120 360 161 384 120 " fill="green" stroke="black" stroke-width="0.5"/> 
 <polygon points=" 360 161 384 120 408 161 " fill="green" stroke="black" stroke-width="0.5"/> 
 <polygon points=" 288 120 312 78 336 120 " fill="green" stroke="black" stroke-width="0.5"/> 
 <polygon points=" 312 78 336 120 360 78 " fill="green" stroke="black" stroke-width="0.5"/> 
 <polygon points=" 336 120 360 78 384 120 " fill="green" stroke="black" stroke-width="0.5"/> 
 <polygon points=" 312 78 336 37 360 78 " fill="green" stroke="black" stroke-width="0.5"/> 
</svg>