<svg version="1.1" xmlns="http://www.w3.org/2000/svg"> 
 <polygon points=" 555 1110 589.849 1108.9 624.56 1105.62 658.997 1100.17 693.023 1092.56 726.504 1082.84 759.309 1071.03 791.308 1057.18 822.373 1041.35 852.384 1023.6 881.221 1004 908.77 982.635 934.924 959.578 959.578 934.924 982.635 908.77 1004 881.221 1023.6 852.384 1041.35 822.373 1057.18 791.308 1071.03 759.309 1082.84 726.504 1092.56 693.023 1100.17 658.997 1105.62 624.56 1108.9 589.849 1110 555 1108.9 520.151 1105.62 485.44 1100.17 451.003 1092.56 416.977 1082.84 383.496 1071.03 350.691 1057.18 318.692 1041.35 287.627 1023.6 257.616 1004 228.779 982.635 201.23 959.578 175.076 934.924 150.422 908.77 127.365 881.221 105.996 852.384 86.398 822.373 68.6498 791.308 52.821 759.309 38.9741 726.504 27.1636 693.023 17.4363 658.997 9.83058 624.56 4.37634 589.849 1.09517 555 0 520.151 1.09517 485.44 4.37634 451.003 9.83058 416.977 17.4363 383.496 27.1636 350.691 38.9741 318.692 52.821 287.627 68.6498 257.616 86.398 228.779 105.996 201.23 127.365 175.076 150.422 150.422 175.076 127.365 201.23 105.996 228.779 86.398 257.616 68.6498 287.627 52.821 318.692 38.9741 350.691 27.1636 383.496 17.4363 416.977 9.83058 451.003 4.37634 485.44 1.09517 520.151 0 555 1.09517 589.849 4.37634 624.56 9.83058 658.997 17.4363 693.023 27.1636 726.504 38.9741 759.309 52.821 791.308 68.6498 822.373 86.398 852.384 105.996 881.221 127.365 908.77 150.422 934.924 175.076 959.578 201.23 982.635 228.779 1004 257.616 1023.6 287.627 1041.35 318.692 1057.18 350.691 1071.03 383.496 1082.84 416.977 1092.56 451.003 1100.17 485.44 1105.62 520.151 1108.9 " fill="red" /> 
 <polygon points=" 360 50 400 50 400 100 360 100 " fill="green" stroke="black" stroke-width="0.5"/> 
 <polygon points=" 400 50 440 50 440 100 400 100 " fill="green" stroke="black" stroke-width="0.5"/> 
 <polygon points=" 440 50 480 50 480 100 440 100 " fill="green" stroke="black" stroke-width="0.5"/> 
 <polygon points=" 480 50 520 50 520 100 480 100 " fill="green" stroke="black" stroke-width="0.5"/> 
 <polygon points=" 520 50 560 50 560 100 520 100 " fill="green" stroke="black" stroke-width="0.5"/> 
 <polygon points=" 560 50 600 50 600 100 560 100 " fill="green" stroke="black" stroke-width="0.5"/> 
 <polygon points=" 600 50 640 50 640 100 600 100 " fill="green" stroke="black" stroke-width="0.5"/> 
 <polygon points=" 640 50 680 50 680 100 640 100 " fill="green" stroke="black" stroke-width="0.5"/> 
 <polygon points=" 680 50 720 50 720 100 680 100 " fill="green" stroke="black" stroke-width="0.5"/> 
 <polygon points=" 720 50 760 50 760 100 720 100 " fill="green" stroke="black" stroke-width="0.5"/> 
 <polygon points=" 240 100 280 100 280 150 240 150 " fill="green" stroke="black" stroke-width="0.5"/> 
 <polygon points=" 280 100 320 100 320 150 280 150 " fill="green" stroke="black" stroke-width="0.5"/> 
 <polygon points=" 320 100 360 100 360 150 320 150 " fill="green" stroke="black" stroke-width="0.5"/> 
 <polygon points=" 360 100 400 100 400 150 360 150 " fill="green" stroke="black" stroke-width="0.5"/> 
 <polygon points=" 400 100 440 100 440 150 400 150 " fill="green" stroke="black" stroke-width="0.5"/> 
 <polygon points=" 440 100 480 100 480 150 440 150 " fill="green" stroke="black" stroke-width="0.5"/> 
 <polygon points=" 480 100 520 100 520 150 480 150 " fill="green" stroke="black" stroke-width="0.5"/> 
 <polygon points=" 520 100 560 100 560 150 520 150 " fill="green" stroke="black" stroke-width="0.5"/> 
 <polygon points=" 560 100 600 100 600 150 560 150 " fill="green" stroke="black" stroke-width="0.5"/> 
 <polygon points=" 600 100 640 100 640 150 600 150 " fill="green" stroke="black" stroke-width="0.5"/> 
 <polygon points=" 640 100 680 100 680 150 640 150 " fill="green" stroke="black" stroke-width="0.5"/> 
 <polygon points=" 680 100 720 100 720 150 680 150 " fill="green" stroke="black" stroke-width="0.5"/> 
 <polygon points=" 720 100 760 100 760 150 720 150 " fill="green" stroke="black" stroke-width="0.5"/> 
 <polygon points=" 760 100 800 100 800 150 760 150 " fill="green" stroke="black" stroke-width="0.5"/> 
 <polygon points=" 800 100 840 100 840 150 800 150 " fill="green" stroke="black" stroke-width="0.5"/> 
 <polygon points=" 200 150 240 150 240 200 200 200 " fill="green" stroke="black" stroke-width="0.5"/> 
 <polygon points=" 240 150 280 150 280 200 240 200 " fill="green" stroke="black" stroke-width="0.5"/> 
 <polygon points=" 280 150 320 150 320 200 280 200 " fill="green" stroke="black" stroke-width="0.5"/> 
 <polygon points=" 320 150 360 150 360 200 320 200 " fill="green" stroke="black" stroke-width="0.5"/> 
 <polygon points=" 360 150 400 150 400 200 360 200 " fill="green" stroke="black" stroke-width="0.5"/> 
 <polygon points=" 400 150 440 150 440 200 400 200 " fill="green" stroke="black" stroke-width="0.5"/> 
 <polygon points=" 440 150 480 150 480 200 440 200 " fill="green" stroke="black" stroke-width="0.5"/> 
 <polygon points=" 480 150 520 150 520 200 480 200 " fill="green" stroke="black" stroke-width="0.5"/> 
 <polygon points=" 520 150 560 150 560 200 520 200 " fill="green" stroke="black" stroke-width="0.5"/> 
 <polygon points=" 560 150 600 150 600 200 560 200 " fill="green" stroke="black" stroke-width="0.5"/> 
 <polygon points=" 600 150 640 150 640 200 600 200 " fill="green" stroke="black" stroke-width="0.5"/> 
 <polygon points=" 640 150 680 150 680 200 640 200 " fill="green" stroke="black" stroke-width="0.5"/> 
 <polygon points=" 680 150 720 150 720 200 680 200 " fill="green" stroke="black" stroke-width="0.5"/> 
 <polygon points=" 720 150 760 150 760 200 720 200 " fill="green" stroke="black" stroke-width="0.5"/> 
 <polygon points=" 760 150 800 150 800 200 760 200 " fill="green" stroke="black" stroke-width="0.5"/> 
 <polygon points=" 800 150 840 150 840 200 800 200 " fill="green" stroke="black" stroke-width="0.5"/> 
 <polygon points=" 840 150 880 150 880 200 840 200 " fill="green" stroke="black" stroke-width="0.5"/> 
 <polygon points=" 880 150 920 150 920 200 880 200 " fill="green" stroke="black" stroke-width="0.5"/> 
 <polygon points=" 160 200 200 200 200 250 160 250 " fill="green" stroke="black" stroke-width="0.5"/> 
 <polygon points=" 200 200 240 200 240 250 200 250 " fill="green" stroke="black" stroke-width="0.5"/> 
 <polygon points=" 240 200 280 200 280 250 240 250 " fill="green" stroke="black" stroke-width="0.5"/> 
 <polygon points=" 280 200 320 200 320 250 280 250 " fill="green" stroke="black" stroke-width="0.5"/> 
 <polygon points=" 320 200 360 200 360 250 320 250 " fill="green" stroke="black" stroke-width="0.5"/> 
 <polygon points=" 360 200 400 200 400 250 360 250 " fill="green" stroke="black" stroke-width="0.5"/> 
 <polygon points=" 400 200 440 200 440 250 400 250 " fill="green" stroke="black" stroke-width="0.5"/> 
 <polygon points=" 440 200 480 200 480 250 440 250 " fill="green" stroke="black" stroke-width="0.5"/> 
 <polygon points=" 480 200 520 200 520 250 480 250 " fill="green" stroke="black" stroke-width="0.5"/> 
 <polygon points=" 520 200 560 200 560 250 520 250 " fill="green" stroke="black" stroke-width="0.5"/> 
 <polygon points=" 560 200 600 200 600 250 560 250 " fill="green" stroke="black" stroke-width="0.5"/> 
 <polygon points=" 600 200 640 200 640 250 600 250 " fill="green" stroke="black" stroke-width="0.5"/> 
 <polygon points=" 640 200 680 200 680 250 640 250 " fill="green" stroke="black" stroke-width="0.5"/> 
 <polygon points=" 680 200 720 200 720 250 680 250 " fill="green" stroke="black" stroke-width="0.5"/> 
 <polygon points=" 720 200 760 200 760 250 720 250 " fill="green" stroke="black" stroke-width="0.5"/> 
 <polygon points=" 760 200 800 200 800 250 760 250 " fill="green" stroke="black" stroke-width="0.5"/> 
 <polygon points=" 800 200 840 200 840 250 800 250 " fill="green" stroke="black" stroke-width="0.5"/> 
 <polygon points=" 840 200 880 200 880 250 840 250 " fill="green" stroke="black" stroke-width="0.5"/> 
 <polygon points=" 880 200 920 200 920 250 880 250 " fill="green" stroke="black" stroke-width="0.5"/> 
 <polygon points=" 920 200 960 200 960 250 920 250 " fill="green" stroke="black" stroke-width="0.5"/> 
 <polygon points=" 120 250 160 250 160 300 120 300 " fill="green" stroke="black" stroke-width="0.5"/> 
 <polygon points=" 160 250 200 250 200 300 160 300 " fill="green" stroke="black" stroke-width="0.5"/> 
 <polygon points=" 200 250 240 250 240 300 200 300 " fill="green" stroke="black" stroke-width="0.5"/> 
 <polygon points=" 240 250 280 250 280 300 240 300 " fill="green" stroke="black" stroke-width="0.5"/> 
 <polygon points=" 280 250 320 250 320 300 280 300 " fill="green" stroke="black" stroke-width="0.5"/> 
 <polygon points=" 320 250 360 250 360 300 320 300 " fill="green" stroke="black" stroke-width="0.5"/> 
 <polygon points=" 360 250 400 250 400 300 360 300 " fill="green" stroke="black" stroke-width="0.5"/> 
 <polygon points=" 400 250 440 250 440 300 400 300 " fill="green" stroke="black" stroke-width="0.5"/> 
 <polygon points=" 440 250 480 250 480 300 440 300 " fill="green" stroke="black" stroke-width="0.5"/> 
 <polygon points=" 480 250 520 250 520 300 480 300 " fill="green" stroke="black" stroke-width="0.5"/> 
 <polygon points=" 520 250 560 250 560 300 520 300 " fill="green" stroke="black" stroke-width="0.5"/> 
 <polygon points=" 560 250 600 250 600 300 560 300 " fill="green" stroke="black" stroke-width="0.5"/> 
 <polygon points=" 600 250 640 250 640 300 600 300 " fill="green" stroke="black" stroke-width="0.5"/> 
 <polygon points=" 640 250 680 250 680 300 640 300 " fill="green" stroke="black" stroke-width="0.5"/> 
 <polygon points=" 680 250 720 250 720 300 680 300 " fill="green" stroke="black" stroke-width="0.5"/> 
 <polygon points=" 720 250 760 250 760 300 720 300 " fill="green" stroke="black" stroke-width="0.5"/> 
 <polygon points=" 760 250 800 250 800 300 760 300 " fill="green" stroke="black" stroke-width="0.5"/> 
 <polygon points=" 800 250 840 250 840 300 800 300 " fill="green" stroke="black" stroke-width="0.5"/> 
 <polygon points=" 840 250 880 250 880 300 840 300 " fill="green" stroke="black" stroke-width="0.5"/> 
 <polygon points=" 880 250 920 250 920 300 880 300 " fill="green" stroke="black" stroke-width="0.5"/> 
 <polygon points=" 920 250 960 250 960 300 920 300 " fill="green" stroke="black" stroke-width="0.5"/> 
 <polygon points=" 960 250 1000 250 1000 300 960 300 " fill="green" stroke="black" stroke-width="0.5"/> 
 <polygon points=" 80 300 120 300 120 350 80 350 " fill="green" stroke="black" stroke-width="0.5"/> 
 <polygon points=" 120 300 160 300 160 350 120 350 " fill="green" stroke="black" stroke-width="0.5"/> 
 <polygon points=" 160 300 200 300 200 350 160 350 " fill="green" stroke="black" stroke-width="0.5"/> 
 <polygon points=" 200 300 240 300 240 350 200 350 " fill="green" stroke="black" stroke-width="0.5"/> 
 <polygon points=" 240 300 280 300 280 350 240 350 " fill="green" stroke="black" stroke-width="0.5"/> 
 <polygon points=" 280 300 320 300 320 350 280 350 " fill="green" stroke="black" stroke-width="0.5"/> 
 <polygon points=" 320 300 360 300 360 350 320 350 " fill="green" stroke="black" stroke-width="0.5"/> 
 <polygon points=" 360 300 400 300 400 350 360 350 " fill="green" stroke="black" stroke-width="0.5"/> 
 <polygon points=" 400 300 440 300 440 350 400 350 " fill="green" stroke="black" stroke-width="0.5"/> 
 <polygon points=" 440 300 480 300 480 350 440 350 " fill="green" stroke="black" stroke-width="0.5"/> 
 <polygon points=" 480 300 520 300 520 350 480 350 " fill="green" stroke="black" stroke-width="0.5"/> 
 <polygon points=" 520 300 560 300 560 350 520 350 " fill="green" stroke="black" stroke-width="0.5"/> 
 <polygon points=" 560 300 600 300 600 350 560 350 " fill="green" stroke="black" stroke-width="0.5"/> 
 <polygon points=" 600 300 640 300 640 350 600 350 " fill="green" stroke="black" stroke-width="0.5"/> 
 <polygon points=" 640 300 680 300 680 350 640 350 " fill="green" stroke="black" stroke-width="0.5"/> 
 <polygon points=" 680 300 720 300 720 350 680 350 " fill="green" stroke="black" stroke-width="0.5"/> 
 <polygon points=" 720 300 760 300 760 350 720 350 " fill="green" stroke="black" stroke-width="0.5"/> 
 <polygon points=" 760 300 800 300 800 350 760 350 " fill="green" stroke="black" stroke-width="0.5"/> 
 <polygon points=" 800 300 840 300 840 350 800 350 " fill="green" stroke="black" stroke-width="0.5"/> 
 <polygon points=" 840 300 880 300 880 350 840 350 " fill="green" stroke="black" stroke-width="0.5"/> 
 <polygon points=" 880 300 920 300 920 350 880 350 " fill="green" stroke="black" stroke-width="0.5"/> 
 <polygon points=" 920 300 960 300 960 350 920 350 " fill="green" stroke="black" stroke-width="0.5"/> 
 <polygon points=" 960 300 1000 300 1000 350 960 350 " fill="green" stroke="black" stroke-width="0.5"/> 
 <polygon points=" 1000 300 1040 300 1040 350 1000 350 " fill="green" stroke="black" stroke-width="0.5"/> 
 <polygon points=" 40 350 80 350 80 400 40 400 " fill="green" stroke="black" stroke-width="0.5"/> 
 <polygon points=" 80 350 120 350 120 400 80 400 " fill="green" stroke="black" stroke-width="0.5"/> 
 <polygon points=" 120 350 160 350 160 400 120 400 " fill="green" stroke="black" stroke-width="0.5"/> 
 <polygon points=" 160 350 200 350 200 400 160 400 " fill="green" stroke="black" stroke-width="0.5"/> 
 <polygon points=" 200 350 240 350 240 400 200 400 " fill="green" stroke="black" stroke-width="0.5"/> 
 <polygon points=" 240 350 280 350 280 400 240 400 " fill="green" stroke="black" stroke-width="0.5"/> 
 <polygon points=" 280 350 320 350 320 400 280 400 " fill="green" stroke="black" stroke-width="0.5"/> 
 <polygon points=" 320 350 360 350 360 400 320 400 " fill="green" stroke="black" stroke-width="0.5"/> 
 <polygon points=" 360 350 400 350 400 400 360 400 " fill="green" stroke="black" stroke-width="0.5"/> 
 <polygon points=" 400 350 440 350 440 400 400 400 " fill="green" stroke="black" stroke-width="0.5"/> 
 <polygon points=" 440 350 480 350 480 400 440 400 " fill="green" stroke="black" stroke-width="0.5"/> 
 <polygon points=" 480 350 520 350 520 400 480 400 " fill="green" stroke="black" stroke-width="0.5"/> 
 <polygon points=" 520 350 560 350 560 400 520 400 " fill="green" stroke="black" stroke-width="0.5"/> 
 <polygon points=" 560 350 600 350 600 400 560 400 " fill="green" stroke="black" stroke-width="0.5"/> 
 <polygon points=" 600 350 640 350 640 400 600 400 " fill="green" stroke="black" stroke-width="0.5"/> 
 <polygon points=" 640 350 680 350 680 400 640 400 " fill="green" stroke="black" stroke-width="0.5"/> 
 <polygon points=" 680 350 720 350 720 400 680 400 " fill="green" stroke="black" stroke-width="0.5"/> 
 <polygon points=" 720 350 760 350 760 400 720 400 " fill="green" stroke="black" stroke-width="0.5"/> 
 <polygon points=" 760 350 800 350 800 400 760 400 " fill="green" stroke="black" stroke-width="0.5"/> 
 <polygon points=" 800 350 840 350 840 400 800 400 " fill="green" stroke="black" stroke-width="0.5"/> 
 <polygon points=" 840 350 880 350 880 400 840 400 " fill="green" stroke="black" stroke-width="0.5"/> 
 <polygon points=" 880 350 920 350 920 400 880 400 " fill="green" stroke="black" stroke-width="0.5"/> 
 <polygon points=" 920 350 960 350 960 400 920 400 " fill="green" stroke="black" stroke-width="0.5"/> 
 <polygon points=" 960 350 1000 350 1000 400 960 400 " fill="green" stroke="black" stroke-width="0.5"/> 
 <polygon points=" 1000 350 1040 350 1040 400 1000 400 " fill="green" stroke="black" stroke-width="0.5"/> 
 <polygon points=" 40 400 80 400 80 450 40 450 " fill="green" stroke="black" stroke-width="0.5"/> 
 <polygon points=" 80 400 120 400 120 450 80 450 " fill="green" stroke="black" stroke-width="0.5"/> 
 <polygon points=" 120 400 160 400 160 450 120 450 " fill="green" stroke="black" stroke-width="0.5"/> 
 <polygon points=" 160 400 200 400 200 450 160 450 " fill="green" stroke="black" stroke-width="0.5"/> 
 <polygon points=" 200 400 240 400 240 450 200 450 " fill="green" stroke="black" stroke-width="0.5"/> 
 <polygon points=" 240 400 280 400 280 450 240 450 " fill="green" stroke="black" stroke-width="0.5"/> 
 <polygon points=" 280 400 320 400 320 450 280 450 " fill="green" stroke="black" stroke-width="0.5"/> 
 <polygon points=" 320 400 360 400 360 450 320 450 " fill="green" stroke="black" stroke-width="0.5"/> 
 <polygon points=" 360 400 400 400 400 450 360 450 " fill="green" stroke="black" stroke-width="0.5"/> 
 <polygon points=" 400 400 440 400 440 450 400 450 " fill="green" stroke="black" stroke-width="0.5"/> 
 <polygon points=" 440 400 480 400 480 450 440 450 " fill="green" stroke="black" stroke-width="0.5"/> 
 <polygon points=" 480 400 520 400 520 450 480 450 " fill="green" stroke="black" stroke-width="0.5"/> 
 <polygon points=" 520 400 560 400 560 450 520 450 " fill="green" stroke="black" stroke-width="0.5"/> 
 <polygon points=" 560 400 600 400 600 450 560 450 " fill="green" stroke="black" stroke-width="0.5"/> 
 <polygon points=" 600 400 640 400 640 450 600 450 " fill="green" stroke="black" stroke-width="0.5"/> 
 <polygon points=" 640 400 680 400 680 450 640 450 " fill="green" stroke="black" stroke-width="0.5"/> 
 <polygon points=" 680 400 720 400 720 450 680 450 " fill="green" stroke="black" stroke-width="0.5"/> 
 <polygon points=" 720 400 760 400 760 450 720 450 " fill="green" stroke="black" stroke-width="0.5"/> 
 <polygon points=" 760 400 800 400 800 450 760 450 " fill="green" stroke="black" stroke-width="0.5"/> 
 <polygon points=" 800 400 840 400 840 450 800 450 " fill="green" stroke="black" stroke-width="0.5"/> 
 <polygon points=" 840 400 880 400 880 450 840 450 " fill="green" stroke="black" stroke-width="0.5"/> 
 <polygon points=" 880 400 920 400 920 450 880 450 " fill="green" stroke="black" stroke-width="0.5"/> 
 <polygon points=" 920 400 960 400 960 450 920 450 " fill="green" stroke="black" stroke-width="0.5"/> 
 <polygon points=" 960 400 1000 400 1000 450 960 450 " fill="green" stroke="black" stroke-width="0.5"/> 
 <polygon points=" 1000 400 1040 400 1040 450 1000 450 " fill="green" stroke="black" stroke-width="0.5"/> 
 <polygon points=" 1040 400 1080 400 1080 450 1040 450 " fill="green" stroke="black" stroke-width="0.5"/> 
 <polygon points=" 40 450 80 450 80 500 40 500 " fill="green" stroke="black" stroke-width="0.5"/> 
 <polygon points=" 80 450 120 450 120 500 80 500 " fill="green" stroke="black" stroke-width="0.5"/> 
 <polygon points=" 120 450 160 450 160 500 120 500 " fill="green" stroke="black" stroke-width="0.5"/> 
 <polygon points=" 160 450 200 450 200 500 160 500 " fill="green" stroke="black" stroke-width="0.5"/> 
 <polygon points=" 200 450 240 450 240 500 200 500 " fill="green" stroke="black" stroke-width="0.5"/> 
 <polygon points=" 240 450 280 450 280 500 240 500 " fill="green" stroke="black" stroke-width="0.5"/> 
 <polygon points=" 280 450 320 450 320 500 280 500 " fill="green" stroke="black" stroke-width="0.5"/> 
 <polygon points=" 320 450 360 450 360 500 320 500 " fill="green" stroke="black" stroke-width="0.5"/> 
 <polygon points=" 360 450 400 450 400 500 360 500 " fill="green" stroke="black" stroke-width="0.5"/> 
 <polygon points=" 400 450 440 450 440 500 400 500 " fill="green" stroke="black" stroke-width="0.5"/> 
 <polygon points=" 440 450 480 450 480 500 440 500 " fill="green" stroke="black" stroke-width="0.5"/> 
 <polygon points=" 480 450 520 450 520 500 480 500 " fill="green" stroke="black" stroke-width="0.5"/> 
 <polygon points=" 520 450 560 450 560 500 520 500 " fill="green" stroke="black" stroke-width="0.5"/> 
 <polygon points=" 560 450 600 450 600 500 560 500 " fill="green" stroke="black" stroke-width="0.5"/> 
 <polygon points=" 600 450 640 450 640 500 600 500 " fill="green" stroke="black" stroke-width="0.5"/> 
 <polygon points=" 640 450 680 450 680 500 640 500 " fill="green" stroke="black" stroke-width="0.5"/> 
 <polygon points=" 680 450 720 450 720 500 680 500 " fill="green" stroke="black" stroke-width="0.5"/> 
 <polygon points=" 720 450 760 450 760 500 720 500 " fill="green" stroke="black" stroke-width="0.5"/> 
 <polygon points=" 760 450 800 450 800 500 760 500 " fill="green" stroke="black" stroke-width="0.5"/> 
 <polygon points=" 800 450 840 450 840 500 800 500 " fill="green" stroke="black" stroke-width="0.5"/> 
 <polygon points=" 840 450 880 450 880 500 840 500 " fill="green" stroke="black" stroke-width="0.5"/> 
 <polygon points=" 880 450 920 450 920 500 880 500 " fill="green" stroke="black" stroke-width="0.5"/> 
 <polygon points=" 920 450 960 450 960 500 920 500 " fill="green" stroke="black" stroke-width="0.5"/> 
 <polygon points=" 960 450 1000 450 1000 500 960 500 " fill="green" stroke="black" stroke-width="0.5"/> 
 <polygon points=" 1000 450 1040 450 1040 500 1000 500 " fill="green" stroke="black" stroke-width="0.5"/> 
 <polygon points=" 1040 450 1080 450 1080 500 1040 500 " fill="green" stroke="black" stroke-width="0.5"/> 
 <polygon points=" 40 500 80 500 80 550 40 550 " fill="green" stroke="black" stroke-width="0.5"/> 
 <polygon points=" 80 500 120 500 120 550 80 550 " fill="green" stroke="black" stroke-width="0.5"/> 
 <polygon points=" 120 500 160 500 160 550 120 550 " fill="green" stroke="black" stroke-width="0.5"/> 
 <polygon points=" 160 500 200 500 200 550 160 550 " fill="green" stroke="black" stroke-width="0.5"/> 
 <polygon points=" 200 500 240 500 240 550 200 550 " fill="green" stroke="black" stroke-width="0.5"/> 
 <polygon points=" 240 500 280 500 280 550 240 550 " fill="green" stroke="black" stroke-width="0.5"/> 
 <polygon points=" 280 500 320 500 320 550 280 550 " fill="green" stroke="black" stroke-width="0.5"/> 
 <polygon points=" 320 500 360 500 360 550 320 550 " fill="green" stroke="black" stroke-width="0.5"/> 
 <polygon points=" 360 500 400 500 400 550 360 550 " fill="green" stroke="black" stroke-width="0.5"/> 
 <polygon points=" 400 500 440 500 440 550 400 550 " fill="green" stroke="black" stroke-width="0.5"/> 
 <polygon points=" 440 500 480 500 480 550 440 550 " fill="green" stroke="black" stroke-width="0.5"/> 
 <polygon points=" 480 500 520 500 520 550 480 550 " fill="green" stroke="black" stroke-width="0.5"/> 
 <polygon points=" 520 500 560 500 560 550 520 550 " fill="green" stroke="black" stroke-width="0.5"/> 
 <polygon points=" 560 500 600 500 600 550 560 550 " fill="green" stroke="black" stroke-width="0.5"/> 
 <polygon points=" 600 500 640 500 640 550 600 550 " fill="green" stroke="black" stroke-width="0.5"/> 
 <polygon points=" 640 500 680 500 680 550 640 550 " fill="green" stroke="black" stroke-width="0.5"/> 
 <polygon points=" 680 500 720 500 720 550 680 550 " fill="green" stroke="black" stroke-width="0.5"/> 
 <polygon points=" 720 500 760 500 760 550 720 550 " fill="green" stroke="black" stroke-width="0.5"/> 
 <polygon points=" 760 500 800 500 800 550 760 550 " fill="green" stroke="black" stroke-width="0.5"/> 
 <polygon points=" 800 500 840 500 840 550 800 550 " fill="green" stroke="black" stroke-width="0.5"/> 
 <polygon points=" 840 500 880 500 880 550 840 550 " fill="green" stroke="black" stroke-width="0.5"/> 
 <polygon points=" 880 500 920 500 920 550 880 550 " fill="green" stroke="black" stroke-width="0.5"/> 
 <polygon points=" 920 500 960 500 960 550 920 550 " fill="green" stroke="black" stroke-width="0.5"/> 
 <polygon points=" 960 500 1000 500 1000 550 960 550 " fill="green" stroke="black" stroke-width="0.5"/> 
 <polygon points=" 1000 500 1040 500 1040 550 1000 550 " fill="green" stroke="black" stroke-width="0.5"/> 
 <polygon points=" 1040 500 1080 500 1080 550 1040 550 " fill="green" stroke="black" stroke-width="0.5"/> 
 <polygon points=" 40 550 80 550 80 600 40 600 " fill="green" stroke="black" stroke-width="0.5"/> 
 <polygon points=" 80 550 120 550 120 600 80 600 " fill="green" stroke="black" stroke-width="0.5"/> 
 <polygon points=" 120 550 160 550 160 600 120 600 " fill="green" stroke="black" stroke-width="0.5"/> 
 <polygon points=" 160 550 200 550 200 600 160 600 " fill="green" stroke="black" stroke-width="0.5"/> 
 <polygon points=" 200 550 240 550 240 600 200 600 " fill="green" stroke="black" stroke-width="0.5"/> 
 <polygon points=" 240 550 280 550 280 600 240 600 " fill="green" stroke="black" stroke-width="0.5"/> 
 <polygon points=" 280 550 320 550 320 600 280 600 " fill="green" stroke="black" stroke-width="0.5"/> 
 <polygon points=" 320 550 360 550 360 600 320 600 " fill="green" stroke="black" stroke-width="0.5"/> 
 <polygon points=" 360 550 400 550 400 600 360 600 " fill="green" stroke="black" stroke-width="0.5"/> 
 <polygon points=" 400 550 440 550 440 600 400 600 " fill="green" stroke="black" stroke-width="0.5"/> 
 <polygon points=" 440 550 480 550 480 600 440 600 " fill="green" stroke="black" stroke-width="0.5"/> 
 <polygon points=" 480 550 520 550 520 600 480 600 " fill="green" stroke="black" stroke-width="0.5"/> 
 <polygon points=" 520 550 560 550 560 600 520 600 " fill="green" stroke="black" stroke-width="0.5"/> 
 <polygon points=" 560 550 600 550 600 600 560 600 " fill="green" stroke="black" stroke-width="0.5"/> 
 <polygon points=" 600 550 640 550 640 600 600 600 " fill="green" stroke="black" stroke-width="0.5"/> 
 <polygon points=" 640 550 680 550 680 600 640 600 " fill="green" stroke="black" stroke-width="0.5"/> 
 <polygon points=" 680 550 720 550 720 600 680 600 " fill="green" stroke="black" stroke-width="0.5"/> 
 <polygon points=" 720 550 760 550 760 600 720 600 " fill="green" stroke="black" stroke-width="0.5"/> 
 <polygon points=" 760 550 800 550 800 600 760 600 " fill="green" stroke="black" stroke-width="0.5"/> 
 <polygon points=" 800 550 840 550 840 600 800 600 " fill="green" stroke="black" stroke-width="0.5"/> 
 <polygon points=" 840 550 880 550 880 600 840 600 " fill="green" stroke="black" stroke-width="0.5"/> 
 <polygon points=" 880 550 920 550 920 600 880 600 " fill="green" stroke="black" stroke-width="0.5"/> 
 <polygon points=" 920 550 960 550 960 600 920 600 " fill="green" stroke="black" stroke-width="0.5"/> 
 <polygon points=" 960 550 1000 550 1000 600 960 600 " fill="green" stroke="black" stroke-width="0.5"/> 
 <polygon points=" 1000 550 1040 550 1040 600 1000 600 " fill="green" stroke="black" stroke-width="0.5"/> 
 <polygon points=" 1040 550 1080 550 1080 600 1040 600 " fill="green" stroke="black" stroke-width="0.5"/> 
 <polygon points=" 40 600 80 600 80 650 40 650 " fill="green" stroke="black" stroke-width="0.5"/> 
 <polygon points=" 80 600 120 600 120 650 80 650 " fill="green" stroke="black" stroke-width="0.5"/> 
 <polygon points=" 120 600 160 600 160 650 120 650 " fill="green" stroke="black" stroke-width="0.5"/> 
 <polygon points=" 160 600 200 600 200 650 160 650 " fill="green" stroke="black" stroke-width="0.5"/> 
 <polygon points=" 200 600 240 600 240 650 200 650 " fill="green" stroke="black" stroke-width="0.5"/> 
 <polygon points=" 240 600 280 600 280 650 240 650 " fill="green" stroke="black" stroke-width="0.5"/> 
 <polygon points=" 280 600 320 600 320 650 280 650 " fill="green" stroke="black" stroke-width="0.5"/> 
 <polygon points=" 320 600 360 600 360 650 320 650 " fill="green" stroke="black" stroke-width="0.5"/> 
 <polygon points=" 360 600 400 600 400 650 360 650 " fill="green" stroke="black" stroke-width="0.5"/> 
 <polygon points=" 400 600 440 600 440 650 400 650 " fill="green" stroke="black" stroke-width="0.5"/> 
 <polygon points=" 440 600 480 600 480 650 440 650 " fill="green" stroke="black" stroke-width="0.5"/> 
 <polygon points=" 480 600 520 600 520 650 480 650 " fill="green" stroke="black" stroke-width="0.5"/> 
 <polygon points=" 520 600 560 600 560 650 520 650 " fill="green" stroke="black" stroke-width="0.5"/> 
 <polygon points=" 560 600 600 600 600 650 560 650 " fill="green" stroke="black" stroke-width="0.5"/> 
 <polygon points=" 600 600 640 600 640 650 600 650 " fill="green" stroke="black" stroke-width="0.5"/> 
 <polygon points=" 640 600 680 600 680 650 640 650 " fill="green" stroke="black" stroke-width="0.5"/> 
 <polygon points=" 680 600 720 600 720 650 680 650 " fill="green" stroke="black" stroke-width="0.5"/> 
 <polygon points=" 720 600 760 600 760 650 720 650 " fill="green" stroke="black" stroke-width="0.5"/> 
 <polygon points=" 760 600 800 600 800 650 760 650 " fill="green" stroke="black" stroke-width="0.5"/> 
 <polygon points=" 800 600 840 600 840 650 800 650 " fill="green" stroke="black" stroke-width="0.5"/> 
 <polygon points=" 840 600 880 600 880 650 840 650 " fill="green" stroke="black" stroke-width="0.5"/> 
 <polygon points=" 880 600 920 600 920 650 880 650 " fill="green" stroke="black" stroke-width="0.5"/> 
 <polygon points=" 920 600 960 600 960 650 920 650 " fill="green" stroke="black" stroke-width="0.5"/> 
 <polygon points=" 960 600 1000 600 1000 650 960 650 " fill="green" stroke="black" stroke-width="0.5"/> 
 <polygon points=" 1000 600 1040 600 1040 650 1000 650 " fill="green" stroke="black" stroke-width="0.5"/> 
 <polygon points=" 1040 600 1080 600 1080 650 1040 650 " fill="green" stroke="black" stroke-width="0.5"/> 
 <polygon points=" 40 650 80 650 80 700 40 700 " fill="green" stroke="black" stroke-width="0.5"/> 
 <polygon points=" 80 650 120 650 120 700 80 700 " fill="green" stroke="black" stroke-width="0.5"/> 
 <polygon points=" 120 650 160 650 160 700 120 700 " fill="green" stroke="black" stroke-width="0.5"/> 
 <polygon points=" 160 650 200 650 200 700 160 700 " fill="green" stroke="black" stroke-width="0.5"/> 
 <polygon points=" 200 650 240 650 240 700 200 700 " fill="green" stroke="black" stroke-width="0.5"/> 
 <polygon points=" 240 650 280 650 280 700 240 700 " fill="green" stroke="black" stroke-width="0.5"/> 
 <polygon points=" 280 650 320 650 320 700 280 700 " fill="green" stroke="black" stroke-width="0.5"/> 
 <polygon points=" 320 650 360 650 360 700 320 700 " fill="green" stroke="black" stroke-width="0.5"/> 
 <polygon points=" 360 650 400 650 400 700 360 700 " fill="green" stroke="black" stroke-width="0.5"/> 
 <polygon points=" 400 650 440 650 440 700 400 700 " fill="green" stroke="black" stroke-width="0.5"/> 
 <polygon points=" 440 650 480 650 480 700 440 700 " fill="green" stroke="black" stroke-width="0.5"/> 
 <polygon points=" 480 650 520 650 520 700 480 700 " fill="green" stroke="black" stroke-width="0.5"/> 
 <polygon points=" 520 650 560 650 560 700 520 700 " fill="green" stroke="black" stroke-width="0.5"/> 
 <polygon points=" 560 650 600 650 600 700 560 700 " fill="green" stroke="black" stroke-width="0.5"/> 
 <polygon points=" 600 650 640 650 640 700 600 700 " fill="green" stroke="black" stroke-width="0.5"/> 
 <polygon points=" 640 650 680 650 680 700 640 700 " fill="green" stroke="black" stroke-width="0.5"/> 
 <polygon points=" 680 650 720 650 720 700 680 700 " fill="green" stroke="black" stroke-width="0.5"/> 
 <polygon points=" 720 650 760 650 760 700 720 700 " fill="green" stroke="black" stroke-width="0.5"/> 
 <polygon points=" 760 650 800 650 800 700 760 700 " fill="green" stroke="black" stroke-width="0.5"/> 
 <polygon points=" 800 650 840 650 840 700 800 700 " fill="green" stroke="black" stroke-width="0.5"/> 
 <polygon points=" 840 650 880 650 880 700 840 700 " fill="green" stroke="black" stroke-width="0.5"/> 
 <polygon points=" 880 650 920 650 920 700 880 700 " fill="green" stroke="black" stroke-width="0.5"/> 
 <polygon points=" 920 650 960 650 960 700 920 700 " fill="green" stroke="black" stroke-width="0.5"/> 
 <polygon points=" 960 650 1000 650 1000 700 960 700 " fill="green" stroke="black" stroke-width="0.5"/> 
 <polygon points=" 1000 650 1040 650 1040 700 1000 700 " fill="green" stroke="black" stroke-width="0.5"/> 
 <polygon points=" 1040 650 1080 650 1080 700 1040 700 " fill="green" stroke="black" stroke-width="0.5"/> 
 <polygon points=" 40 700 80 700 80 750 40 750 " fill="green" stroke="black" stroke-width="0.5"/> 
 <polygon points=" 80 700 120 700 120 750 80 750 " fill="green" stroke="black" stroke-width="0.5"/> 
 <polygon points=" 120 700 160 700 160 750 120 750 " fill="green" stroke="black" stroke-width="0.5"/> 
 <polygon points=" 160 700 200 700 200 750 160 750 " fill="green" stroke="black" stroke-width="0.5"/> 
 <polygon points=" 200 700 240 700 240 750 200 750 " fill="green" stroke="black" stroke-width="0.5"/> 
 <polygon points=" 240 700 280 700 280 750 240 750 " fill="green" stroke="black" stroke-width="0.5"/> 
 <polygon points=" 280 700 320 700 320 750 280 750 " fill="green" stroke="black" stroke-width="0.5"/> 
 <polygon points=" 320 700 360 700 360 750 320 750 " fill="green" stroke="black" stroke-width="0.5"/> 
 <polygon points=" 360 700 400 700 400 750 360 750 " fill="green" stroke="black" stroke-width="0.5"/> 
 <polygon points=" 400 700 440 700 440 750 400 750 " fill="green" stroke="black" stroke-width="0.5"/> 
 <polygon points=" 440 700 480 700 480 750 440 750 " fill="green" stroke="black" stroke-width="0.5"/> 
 <polygon points=" 480 700 520 700 520 750 480 750 " fill="green" stroke="black" stroke-width="0.5"/> 
 <polygon points=" 520 700 560 700 560 750 520 750 " fill="green" stroke="black" stroke-width="0.5"/> 
 <polygon points=" 560 700 600 700 600 750 560 750 " fill="green" stroke="black" stroke-width="0.5"/> 
 <polygon points=" 600 700 640 700 640 750 600 750 " fill="green" stroke="black" stroke-width="0.5"/> 
 <polygon points=" 640 700 680 700 680 750 640 750 " fill="green" stroke="black" stroke-width="0.5"/> 
 <polygon points=" 680 700 720 700 720 750 680 750 " fill="green" stroke="black" stroke-width="0.5"/> 
 <polygon points=" 720 700 760 700 760 750 720 750 " fill="green" stroke="black" stroke-width="0.5"/> 
 <polygon points=" 760 700 800 700 800 750 760 750 " fill="green" stroke="black" stroke-width="0.5"/> 
 <polygon points=" 800 700 840 700 840 750 800 750 " fill="green" stroke="black" stroke-width="0.5"/> 
 <polygon points=" 840 700 880 700 880 750 840 750 " fill="green" stroke="black" stroke-width="0.5"/> 
 <polygon points=" 880 700 920 700 920 750 880 750 " fill="green" stroke="black" stroke-width="0.5"/> 
 <polygon points=" 920 700 960 700 960 750 920 750 " fill="green" stroke="black" stroke-width="0.5"/> 
 <polygon points=" 960 700 1000 700 1000 750 960 750 " fill="green" stroke="black" stroke-width="0.5"/> 
 <polygon points=" 1000 700 1040 700 1040 750 1000 750 " fill="green" stroke="black" stroke-width="0.5"/> 
 <polygon points=" 80 750 120 750 120 800 80 800 " fill="green" stroke="black" stroke-width="0.5"/> 
 <polygon points=" 120 750 160 750 160 800 120 800 " fill="green" stroke="black" stroke-width="0.5"/> 
 <polygon points=" 160 750 200 750 200 800 160 800 " fill="green" stroke="black" stroke-width="0.5"/> 
 <polygon points=" 200 750 240 750 240 800 200 800 " fill="green" stroke="black" stroke-width="0.5"/> 
 <polygon points=" 240 750 280 750 280 800 240 800 " fill="green" stroke="black" stroke-width="0.5"/> 
 <polygon points=" 280 750 320 750 320 800 280 800 " fill="green" stroke="black" stroke-width="0.5"/> 
 <polygon points=" 320 750 360 750 360 800 320 800 " fill="green" stroke="black" stroke-width="0.5"/> 
 <polygon points=" 360 750 400 750 400 800 360 800 " fill="green" stroke="black" stroke-width="0.5"/> 
 <polygon points=" 400 750 440 750 440 800 400 800 " fill="green" stroke="black" stroke-width="0.5"/> 
 <polygon points=" 440 750 480 750 480 800 440 800 " fill="green" stroke="black" stroke-width="0.5"/> 
 <polygon points=" 480 750 520 750 520 800 480 800 " fill="green" stroke="black" stroke-width="0.5"/> 
 <polygon points=" 520 750 560 750 560 800 520 800 " fill="green" stroke="black" stroke-width="0.5"/> 
 <polygon points=" 560 750 600 750 600 800 560 800 " fill="green" stroke="black" stroke-width="0.5"/> 
 <polygon points=" 600 750 640 750 640 800 600 800 " fill="green" stroke="black" stroke-width="0.5"/> 
 <polygon points=" 640 750 680 750 680 800 640 800 " fill="green" stroke="black" stroke-width="0.5"/> 
 <polygon points=" 680 750 720 750 720 800 680 800 " fill="green" stroke="black" stroke-width="0.5"/> 
 <polygon points=" 720 750 760 750 760 800 720 800 " fill="green" stroke="black" stroke-width="0.5"/> 
 <polygon points=" 760 750 800 750 800 800 760 800 " fill="green" stroke="black" stroke-width="0.5"/> 
 <polygon points=" 800 750 840 750 840 800 800 800 " fill="green" stroke="black" stroke-width="0.5"/> 
 <polygon points=" 840 750 880 750 880 800 840 800 " fill="green" stroke="black" stroke-width="0.5"/> 
 <polygon points=" 880 750 920 750 920 800 880 800 " fill="green" stroke="black" stroke-width="0.5"/> 
 <polygon points=" 920 750 960 750 960 800 920 800 " fill="green" stroke="black" stroke-width="0.5"/> 
 <polygon points=" 960 750 1000 750 1000 800 960 800 " fill="green" stroke="black" stroke-width="0.5"/> 
 <polygon points=" 1000 750 1040 750 1040 800 1000 800 " fill="green" stroke="black" stroke-width="0.5"/> 
 <polygon points=" 120 800 160 800 160 850 120 850 " fill="green" stroke="black" stroke-width="0.5"/> 
 <polygon points=" 160 800 200 800 200 850 160 850 " fill="green" stroke="black" stroke-width="0.5"/> 
 <polygon points=" 200 800 240 800 240 850 200 850 " fill="green" stroke="black" stroke-width="0.5"/> 
 <polygon points=" 240 800 280 800 280 850 240 850 " fill="green" stroke="black" stroke-width="0.5"/> 
 <polygon points=" 280 800 320 800 320 850 280 850 " fill="green" stroke="black" stroke-width="0.5"/> 
 <polygon points=" 320 800 360 800 360 850 320 850 " fill="green" stroke="black" stroke-width="0.5"/> 
 <polygon points=" 360 800 400 800 400 850 360 850 " fill="green" stroke="black" stroke-width="0.5"/> 
 <polygon points=" 400 800 440 800 440 850 400 850 " fill="green" stroke="black" stroke-width="0.5"/> 
 <polygon points=" 440 800 480 800 480 850 440 850 " fill="green" stroke="black" stroke-width="0.5"/> 
 <polygon points=" 480 800 520 800 520 850 480 850 " fill="green" stroke="black" stroke-width="0.5"/> 
 <polygon points=" 520 800 560 800 560 850 520 850 " fill="green" stroke="black" stroke-width="0.5"/> 
 <polygon points=" 560 800 600 800 600 850 560 850 " fill="green" stroke="black" stroke-width="0.5"/> 
 <polygon points=" 600 800 640 800 640 850 600 850 " fill="green" stroke="black" stroke-width="0.5"/> 
 <polygon points=" 640 800 680 800 680 850 640 850 " fill="green" stroke="black" stroke-width="0.5"/> 
 <polygon points=" 680 800 720 800 720 850 680 850 " fill="green" stroke="black" stroke-width="0.5"/> 
 <polygon points=" 720 800 760 800 760 850 720 850 " fill="green" stroke="black" stroke-width="0.5"/> 
 <polygon points=" 760 800 800 800 800 850 760 850 " fill="green" stroke="black" stroke-width="0.5"/> 
 <polygon points=" 800 800 840 800 840 850 800 850 " fill="green" stroke="black" stroke-width="0.5"/> 
 <polygon points=" 840 800 880 800 880 850 840 850 " fill="green" stroke="black" stroke-width="0.5"/> 
 <polygon points=" 880 800 920 800 920 850 880 850 " fill="green" stroke="black" stroke-width="0.5"/> 
 <polygon points=" 920 800 960 800 960 850 920 850 " fill="green" stroke="black" stroke-width="0.5"/> 
 <polygon points=" 960 800 1000 800 1000 850 960 850 " fill="green" stroke="black" stroke-width="0.5"/> 
 <polygon points=" 160 850 200 850 200 900 160 900 " fill="green" stroke="black" stroke-width="0.5"/> 
 <polygon points=" 200 850 240 850 240 900 200 900 " fill="green" stroke="black" stroke-width="0.5"/> 
 <polygon points=" 240 850 280 850 280 900 240 900 " fill="green" stroke="black" stroke-width="0.5"/> 
 <polygon points=" 280 850 320 850 320 900 280 900 " fill="green" stroke="black" stroke-width="0.5"/> 
 <polygon points=" 320 850 360 850 360 900 320 900 " fill="green" stroke="black" stroke-width="0.5"/> 
 <polygon points=" 360 850 400 850 400 900 360 900 " fill="green" stroke="black" stroke-width="0.5"/> 
 <polygon points=" 400 850 440 850 440 900 400 900 " fill="green" stroke="black" stroke-width="0.5"/> 
 <polygon points=" 440 850 480 850 480 900 440 900 " fill="green" stroke="black" stroke-width="0.5"/> 
 <polygon points=" 480 850 520 850 520 900 480 900 " fill="green" stroke="black" stroke-width="0.5"/> 
 <polygon points=" 520 850 560 850 560 900 520 900 " fill="green" stroke="black" stroke-width="0.5"/> 
 <polygon points=" 560 850 600 850 600 900 560 900 " fill="green" stroke="black" stroke-width="0.5"/> 
 <polygon points=" 600 850 640 850 640 900 600 900 " fill="green" stroke="black" stroke-width="0.5"/> 
 <polygon points=" 640 850 680 850 680 900 640 900 " fill="green" stroke="black" stroke-width="0.5"/> 
 <polygon points=" 680 850 720 850 720 900 680 900 " fill="green" stroke="black" stroke-width="0.5"/> 
 <polygon points=" 720 850 760 850 760 900 720 900 " fill="green" stroke="black" stroke-width="0.5"/> 
 <polygon points=" 760 850 800 850 800 900 760 900 " fill="green" stroke="black" stroke-width="0.5"/> 
 <polygon points=" 800 850 840 850 840 900 800 900 " fill="green" stroke="black" stroke-width="0.5"/> 
 <polygon points=" 840 850 880 850 880 900 840 900 " fill="green" stroke="black" stroke-width="0.5"/> 
 <polygon points=" 880 850 920 850 920 900 880 900 " fill="green" stroke="black" stroke-width="0.5"/> 
 <polygon points=" 920 850 960 850 960 900 920 900 " fill="green" stroke="black" stroke-width="0.5"/> 
 <polygon points=" 200 900 240 900 240 950 200 950 " fill="green" stroke="black" stroke-width="0.5"/> 
 <polygon points=" 240 900 280 900 280 950 240 950 " fill="green" stroke="black" stroke-width="0.5"/> 
 <polygon points=" 280 900 320 900 320 950 280 950 " fill="green" stroke="black" stroke-width="0.5"/> 
 <polygon points=" 320 900 360 900 360 950 320 950 " fill="green" stroke="black" stroke-width="0.5"/> 
 <polygon points=" 360 900 400 900 400 950 360 950 " fill="green" stroke="black" stroke-width="0.5"/> 
 <polygon points=" 400 900 440 900 440 950 400 950 " fill="green" stroke="black" stroke-width="0.5"/> 
 <polygon points=" 440 900 480 900 480 950 440 950 " fill="green" stroke="black" stroke-width="0.5"/> 
 <polygon points=" 480 900 520 900 520 950 480 950 " fill="green" stroke="black" stroke-width="0.5"/> 
 <polygon points=" 520 900 560 900 560 950 520 950 " fill="green" stroke="black" stroke-width="0.5"/> 
 <polygon points=" 560 900 600 900 600 950 560 950 " fill="green" stroke="black" stroke-width="0.5"/> 
 <polygon points=" 600 900 640 900 640 950 600 950 " fill="green" stroke="black" stroke-width="0.5"/> 
 <polygon points=" 640 900 680 900 680 950 640 950 " fill="green" stroke="black" stroke-width="0.5"/> 
 <polygon points=" 680 900 720 900 720 950 680 950 " fill="green" stroke="black" stroke-width="0.5"/> 
 <polygon points=" 720 900 760 900 760 950 720 950 " fill="green" stroke="black" stroke-width="0.5"/> 
 <polygon points=" 760 900 800 900 800 950 760 950 " fill="green" stroke="black" stroke-width="0.5"/> 
 <polygon points=" 800 900 840 900 840 950 800 950 " fill="green" stroke="black" stroke-width="0.5"/> 
 <polygon points=" 840 900 880 900 880 950 840 950 " fill="green" stroke="black" stroke-width="0.5"/> 
 <polygon points=" 880 900 920 900 920 950 880 950 " fill="green" stroke="black" stroke-width="0.5"/> 
 <polygon points=" 240 950 280 950 280 1000 240 1000 " fill="green" stroke="black" stroke-width="0.5"/> 
 <polygon points=" 280 950 320 950 320 1000 280 1000 " fill="green" stroke="black" stroke-width="0.5"/> 
 <polygon points=" 320 950 360 950 360 1000 320 1000 " fill="green" stroke="black" stroke-width="0.5"/> 
 <polygon points=" 360 950 400 950 400 1000 360 1000 " fill="green" stroke="black" stroke-width="0.5"/> 
 <polygon points=" 400 950 440 950 440 1000 400 1000 " fill="green" stroke="black" stroke-width="0.5"/> 
 <polygon points=" 440 950 480 950 480 1000 440 1000 " fill="green" stroke="black" stroke-width="0.5"/> 
 <polygon points=" 480 950 520 950 520 1000 480 1000 " fill="green" stroke="black" stroke-width="0.5"/> 
 <polygon points=" 520 950 560 950 560 1000 520 1000 " fill="green" stroke="black" stroke-width="0.5"/> 
 <polygon points=" 560 950 600 950 600 1000 560 1000 " fill="green" stroke="black" stroke-width="0.5"/> 
 <polygon points=" 600 950 640 950 640 1000 600 1000 " fill="green" stroke="black" stroke-width="0.5"/> 
 <polygon points=" 640 950 680 950 680 1000 640 1000 " fill="green" stroke="black" stroke-width="0.5"/> 
 <polygon points=" 680 950 720 950 720 1000 680 1000 " fill="green" stroke="black" stroke-width="0.5"/> 
 <polygon points=" 720 950 760 950 760 1000 720 1000 " fill="green" stroke="black" stroke-width="0.5"/> 
 <polygon points=" 760 950 800 950 800 1000 760 1000 " fill="green" stroke="black" stroke-width="0.5"/> 
 <polygon points=" 800 950 840 950 840 1000 800 1000 " fill="green" stroke="black" stroke-width="0.5"/> 
 <polygon points=" 840 950 880 950 880 1000 840 1000 " fill="green" stroke="black" stroke-width="0.5"/> 
 <polygon points=" 320 1000 360 1000 360 1050 320 1050 " fill="green" stroke="black" stroke-width="0.5"/> 
 <polygon points=" 360 1000 400 1000 400 1050 360 1050 " fill="green" stroke="black" stroke-width="0.5"/> 
 <polygon points=" 400 1000 440 1000 440 1050 400 1050 " fill="green" stroke="black" stroke-width="0.5"/> 
 <polygon points=" 440 1000 480 1000 480 1050 440 1050 " fill="green" stroke="black" stroke-width="0.5"/> 
 <polygon points=" 480 1000 520 1000 520 1050 480 1050 " fill="green" stroke="black" stroke-width="0.5"/> 
 <polygon points=" 520 1000 560 1000 560 1050 520 1050 " fill="green" stroke="black" stroke-width="0.5"/> 
 <polygon points=" 560 1000 600 1000 600 1050 560 1050 " fill="green" stroke="black" stroke-width="0.5"/> 
 <polygon points=" 600 1000 640 1000 640 1050 600 1050 " fill="green" stroke="black" stroke-width="0.5"/> 
 <polygon points=" 640 1000 680 1000 680 1050 640 1050 " fill="green" stroke="black" stroke-width="0.5"/> 
 <polygon points=" 680 1000 720 1000 720 1050 680 1050 " fill="green" stroke="black" stroke-width="0.5"/> 
 <polygon points=" 720 1000 760 1000 760 1050 720 1050 " fill="green" stroke="black" stroke-width="0.5"/> 
 <polygon points=" 760 1000 800 1000 800 1050 760 1050 " fill="green" stroke="black" stroke-width="0.5"/> 
 <polygon points=" 480 1050 520 1050 520 1100 480 1100 " fill="green" stroke="black" stroke-width="0.5"/> 
 <polygon points=" 520 1050 560 1050 560 1100 520 1100 " fill="green" stroke="black" stroke-width="0.5"/> 
 <polygon points=" 560 1050 600 1050 600 1100 560 1100 " fill="green" stroke="black" stroke-width="0.5"/> 
 <polygon points=" 600 1050 640 1050 640 1100 600 1100 " fill="green" stroke="black" stroke-width="0.5"/> 
</svg>