<svg version="1.1" xmlns="http://www.w3.org/2000/svg"> 
 <polygon points=" 0 0 452 0 452 320 0 320 " fill="red" /> 
 <polygon points=" 0 0 46 0 46 23 0 23 " fill="green" stroke="black" stroke-width="0.5"/> 
 <polygon points=" 46 0 92 0 92 23 46 23 " fill="green" stroke="black" stroke-width="0.5"/> 
 <polygon points=" 92 0 138 0 138 23 92 23 " fill="green" stroke="black" stroke-width="0.5"/> 
 <polygon points=" 138 0 184 0 184 23 138 23 " fill="green" stroke="black" stroke-width="0.5"/> 
 <polygon points=" 184 0 230 0 230 23 184 23 " fill="green" stroke="black" stroke-width="0.5"/> 
 <polygon points=" 230 0 276 0 276 23 230 23 " fill="green" stroke="black" stroke-width="0.5"/> 
 <polygon points=" 276 0 322 0 322 23 276 23 " fill="green" stroke="black" stroke-width="0.5"/> 
 <polygon points=" 322 0 368 0 368 23 322 23 " fill="green" stroke="black" stroke-width="0.5"/> 
 <polygon points=" 368 0 414 0 414 23 368 23 " fill="green" stroke="black" stroke-width="0.5"/> 
 <polygon points=" 414 0 437 0 437 46 414 46 " fill="green" stroke="black" stroke-width="0.5"/> 
 <polygon points=" 414 46 437 46 437 92 414 92 " fill="green" stroke="black" stroke-width="0.5"/> 
 <polygon points=" 414 92 437 92 437 138 414 138 " fill="green" stroke="black" stroke-width="0.5"/> 
 <polygon points=" 414 138 437 138 437 184 414 184 " fill="green" stroke="black" stroke-width="0.5"/> 
 <polygon points=" 414 184 437 184 437 230 414 230 " fill="green" stroke="black" stroke-width="0.5"/> 
 <polygon points=" 414 230 437 230 437 276 414 276 " fill="green" stroke="black" stroke-width="0.5"/> 
 <polygon points=" 0 23 46 23 46 46 0 46 " fill="green" stroke="black" stroke-width="0.5"/> 
 <polygon points=" 46 23 92 23 92 46 46 46 " fill="green" stroke="black" stroke-width="0.5"/> 
 <polygon points=" 92 23 138 23 138 46 92 46 " fill="green" stroke="black" stroke-width="0.5"/> 
 <polygon points=" 138 23 184 23 184 46 138 46 " fill="green" stroke="black" stroke-width="0.5"/> 
 <polygon points=" 184 23 230 23 230 46 184 46 " fill="green" stroke="black" stroke-width="0.5"/> 
 <polygon points=" 230 23 276 23 276 46 230 46 " fill="green" stroke="black" stroke-width="0.5"/> 
 <polygon points=" 276 23 322 23 322 46 276 46 " fill="green" stroke="black" stroke-width="0.5"/> 
 <polygon points=" 322 23 368 23 368 46 322 46 " fill="green" stroke="black" stroke-width="0.5"/> 
 <polygon points=" 368 23 414 23 414 46 368 46 " fill="green" stroke="black" stroke-width="0.5"/> 
 <polygon points=" 0 46 46 46 46 69 0 69 " fill="green" stroke="black" stroke-width="0.5"/> 
 <polygon points=" 46 46 92 46 92 69 46 69 " fill="green" stroke="black" stroke-width="0.5"/> 
 <polygon points=" 92 46 138 46 138 69 92 69 " fill="green" stroke="black" stroke-width="0.5"/> 
 <polygon points=" 138 46 184 46 184 69 138 69 " fill="green" stroke="black" stroke-width="0.5"/> 
 <polygon points=" 184 46 230 46 230 69 184 69 " fill="green" stroke="black" stroke-width="0.5"/> 
 <polygon points=" 230 46 276 46 276 69 230 69 " fill="green" stroke="black" stroke-width="0.5"/> 
 <polygon points=" 276 46 322 46 322 69 276 69 " fill="green" stroke="black" stroke-width="0.5"/> 
 <polygon points=" 322 46 368 46 368 69 322 69 " fill="green" stroke="black" stroke-width="0.5"/> 
 <polygon points=" 368 46 414 46 414 69 368 69 " fill="green" stroke="black" stroke-width="0.5"/> 
 <polygon points=" 0 69 46 69 46 92 0 92 " fill="green" stroke="black" stroke-width="0.5"/> 
 <polygon points=" 46 69 92 69 92 92 46 92 " fill="green" stroke="black" stroke-width="0.5"/> 
 <polygon points=" 92 69 138 69 138 92 92 92 " fill="green" stroke="black" stroke-width="0.5"/> 
 <polygon points=" 138 69 184 69 184 92 138 92 " fill="green" stroke="black" stroke-width="0.5"/> 
 <polygon points=" 184 69 230 69 230 92 184 92 " fill="green" stroke="black" stroke-width="0.5"/> 
 <polygon points=" 230 69 276 69 276 92 230 92 " fill="green" stroke="black" stroke-width="0.5"/> 
 <polygon points=" 276 69 322 69 322 92 276 92 " fill="green" stroke="black" stroke-width="0.5"/> 
 <polygon points=" 322 69 368 69 368 92 322 92 " fill="green" stroke="black" stroke-width="0.5"/> 
 <polygon points=" 368 69 414 69 414 92 368 92 " fill="green" stroke="black" stroke-width="0.5"/> 
 <polygon points=" 0 92 46 92 46 115 0 115 " fill="green" stroke="black" stroke-width="0.5"/> 
 <polygon points=" 46 92 92 92 92 115 46 115 " fill="green" stroke="black" stroke-width="0.5"/> 
 <polygon points=" 92 92 138 92 138 115 92 115 " fill="green" stroke="black" stroke-width="0.5"/> 
 <polygon points=" 138 92 184 92 184 115 138 115 " fill="green" stroke="black" stroke-width="0.5"/> 
 <polygon points=" 184 92 230 92 230 115 184 115 " fill="green" stroke="black" stroke-width="0.5"/> 
 <polygon points=" 230 92 276 92 276 115 230 115 " fill="green" stroke="black" stroke-width="0.5"/> 
 <polygon points=" 276 92 322 92 322 115 276 115 " fill="green" stroke="black" stroke-width="0.5"/> 
 <polygon points=" 322 92 368 92 368 115 322 115 " fill="green" stroke="black" stroke-width="0.5"/> 
 <polygon points=" 368 92 414 92 414 115 368 115 " fill="green" stroke="black" stroke-width="0.5"/> 
 <polygon points=" 0 115 46 115 46 138 0 138 " fill="green" stroke="black" stroke-width="0.5"/> 
 <polygon points=" 46 115 92 115 92 138 46 138 " fill="green" stroke="black" stroke-width="0.5"/> 
 <polygon points=" 92 115 138 115 138 138 92 138 " fill="green" stroke="black" stroke-width="0.5"/> 
 <polygon points=" 138 115 184 115 184 138 138 138 " fill="green" stroke="black" stroke-width="0.5"/> 
 <polygon points=" 184 115 230 115 230 138 184 138 " fill="green" stroke="black" stroke-width="0.5"/> 
 <polygon points=" 230 115 276 115 276 138 230 138 " fill="green" stroke="black" stroke-width="0.5"/> 
 <polygon points=" 276 115 322 115 322 138 276 138 " fill="green" stroke="black" stroke-width="0.5"/> 
 <polygon points=" 322 115 368 115 368 138 322 138 " fill="green" stroke="black" stroke-width="0.5"/> 
 <polygon points=" 368 115 414 115 414 138 368 138 " fill="green" stroke="black" stroke-width="0.5"/> 
 <polygon points=" 0 138 46 138 46 161 0 161 " fill="green" stroke="black" stroke-width="0.5"/> 
 <polygon points=" 46 138 92 138 92 161 46 161 " fill="green" stroke="black" stroke-width="0.5"/> 
 <polygon points=" 92 138 138 138 138 161 92 161 " fill="green" stroke="black" stroke-width="0.5"/> 
 <polygon points=" 138 138 184 138 184 161 138 161 " fill="green" stroke="black" stroke-width="0.5"/> 
 <polygon points=" 184 138 230 138 230 161 184 161 " fill="green" stroke="black" stroke-width="0.5"/> 
 <polygon points=" 230 138 276 138 276 161 230 161 " fill="green" stroke="black" stroke-width="0.5"/> 
 <polygon points=" 276 138 322 138 322 161 276 161 " fill="green" stroke="black" stroke-width="0.5"/> 
 <polygon points=" 322 138 368 138 368 161 322 161 " fill="green" stroke="black" stroke-width="0.5"/> 
 <polygon points=" 368 138 414 138 414 161 368 161 " fill="green" stroke="black" stroke-width="0.5"/> 
 <polygon points=" 0 161 46 161 46 184 0 184 " fill="green" stroke="black" stroke-width="0.5"/> 
 <polygon points=" 46 161 92 161 92 184 46 184 " fill="green" stroke="black" stroke-width="0.5"/> 
 <polygon points=" 92 161 138 161 138 184 92 184 " fill="green" stroke="black" stroke-width="0.5"/> 
 <polygon points=" 138 161 184 161 184 184 138 184 " fill="green" stroke="black" stroke-width="0.5"/> 
 <polygon points=" 184 161 230 161 230 184 184 184 " fill="green" stroke="black" stroke-width="0.5"/> 
 <polygon points=" 230 161 276 161 276 184 230 184 " fill="green" stroke="black" stroke-width="0.5"/> 
 <polygon points=" 276 161 322 161 322 184 276 184 " fill="green" stroke="black" stroke-width="0.5"/> 
 <polygon points=" 322 161 368 161 368 184 322 184 " fill="green" stroke="black" stroke-width="0.5"/> 
 <polygon points=" 368 161 414 161 414 184 368 184 " fill="green" stroke="black" stroke-width="0.5"/> 
 <polygon points=" 0 184 46 184 46 207 0 207 " fill="green" stroke="black" stroke-width="0.5"/> 
 <polygon points=" 46 184 92 184 92 207 46 207 " fill="green" stroke="black" stroke-width="0.5"/> 
 <polygon points=" 92 184 138 184 138 207 92 207 " fill="green" stroke="black" stroke-width="0.5"/> 
 <polygon points=" 138 184 184 184 184 207 138 207 " fill="green" stroke="black" stroke-width="0.5"/> 
 <polygon points=" 184 184 230 184 230 207 184 207 " fill="green" stroke="black" stroke-width="0.5"/> 
 <polygon points=" 230 184 276 184 276 207 230 207 " fill="green" stroke="black" stroke-width="0.5"/> 
 <polygon points=" 276 184 322 184 322 207 276 207 " fill="green" stroke="black" stroke-width="0.5"/> 
 <polygon points=" 322 184 368 184 368 207 322 207 " fill="green" stroke="black" stroke-width="0.5"/> 
 <polygon points=" 368 184 414 184 414 207 368 207 " fill="green" stroke="black" stroke-width="0.5"/> 
 <polygon points=" 0 207 46 207 46 230 0 230 " fill="green" stroke="black" stroke-width="0.5"/> 
 <polygon points=" 46 207 92 207 92 230 46 230 " fill="green" stroke="black" stroke-width="0.5"/> 
 <polygon points=" 92 207 138 207 138 230 92 230 " fill="green" stroke="black" stroke-width="0.5"/> 
 <polygon points=" 138 207 184 207 184 230 138 230 " fill="green" stroke="black" stroke-width="0.5"/> 
 <polygon points=" 184 207 230 207 230 230 184 230 " fill="green" stroke="black" stroke-width="0.5"/> 
 <polygon points=" 230 207 276 207 276 230 230 230 " fill="green" stroke="black" stroke-width="0.5"/> 
 <polygon points=" 276 207 322 207 322 230 276 230 " fill="green" stroke="black" stroke-width="0.5"/> 
 <polygon points=" 322 207 368 207 368 230 322 230 " fill="green" stroke="black" stroke-width="0.5"/> 
 <polygon points=" 368 207 414 207 414 230 368 230 " fill="green" stroke="black" stroke-width="0.5"/> 
 <polygon points=" 0 230 46 230 46 253 0 253 " fill="green" stroke="black" stroke-width="0.5"/> 
 <polygon points=" 46 230 92 230 92 253 46 253 " fill="green" stroke="black" stroke-width="0.5"/> 
 <polygon points=" 92 230 138 230 138 253 92 253 " fill="green" stroke="black" stroke-width="0.5"/> 
 <polygon points=" 138 230 184 230 184 253 138 253 " fill="green" stroke="black" stroke-width="0.5"/> 
 <polygon points=" 184 230 230 230 230 253 184 253 " fill="green" stroke="black" stroke-width="0.5"/> 
 <polygon points=" 230 230 276 230 276 253 230 253 " fill="green" stroke="black" stroke-width="0.5"/> 
 <polygon points=" 276 230 322 230 322 253 276 253 " fill="green" stroke="black" stroke-width="0.5"/> 
 <polygon points=" 322 230 368 230 368 253 322 253 " fill="green" stroke="black" stroke-width="0.5"/> 
 <polygon points=" 368 230 414 230 414 253 368 253 " fill="green" stroke="black" stroke-width="0.5"/> 
 <polygon points=" 0 253 46 253 46 276 0 276 " fill="green" stroke="black" stroke-width="0.5"/> 
 <polygon points=" 46 253 92 253 92 276 46 276 " fill="green" stroke="black" stroke-width="0.5"/> 
 <polygon points=" 92 253 138 253 138 276 92 276 " fill="green" stroke="black" stroke-width="0.5"/> 
 <polygon points=" 138 253 184 253 184 276 138 276 " fill="green" stroke="black" stroke-width="0.5"/> 
 <polygon points=" 184 253 230 253 230 276 184 276 " fill="green" stroke="black" stroke-width="0.5"/> 
 <polygon points=" 230 253 276 253 276 276 230 276 " fill="green" stroke="black" stroke-width="0.5"/> 
 <polygon points=" 276 253 322 253 322 276 276 276 " fill="green" stroke="black" stroke-width="0.5"/> 
 <polygon points=" 322 253 368 253 368 276 322 276 " fill="green" stroke="black" stroke-width="0.5"/> 
 <polygon points=" 368 253 414 253 414 276 368 276 " fill="green" stroke="black" stroke-width="0.5"/> 
 <polygon points=" 0 276 46 276 46 299 0 299 " fill="green" stroke="black" stroke-width="0.5"/> 
 <polygon points=" 46 276 92 276 92 299 46 299 " fill="green" stroke="black" stroke-width="0.5"/> 
 <polygon points=" 92 276 138 276 138 299 92 299 " fill="green" stroke="black" stroke-width="0.5"/> 
 <polygon points=" 138 276 184 276 184 299 138 299 " fill="green" stroke="black" stroke-width="0.5"/> 
 <polygon points=" 184 276 230 276 230 299 184 299 " fill="green" stroke="black" stroke-width="0.5"/> 
 <polygon points=" 230 276 276 276 276 299 230 299 " fill="green" stroke="black" stroke-width="0.5"/> 
 <polygon points=" 276 276 322 276 322 299 276 299 " fill="green" stroke="black" stroke-width="0.5"/> 
 <polygon points=" 322 276 368 276 368 299 322 299 " fill="green" stroke="black" stroke-width="0.5"/> 
 <polygon points=" 368 276 414 276 414 299 368 299 " fill="green" stroke="black" stroke-width="0.5"/> 
</svg>