<svg version="1.1" xmlns="http://www.w3.org/2000/svg"> 
 <polygon points=" 0 0 452 0 452 320 0 320 " fill="red" /> 
 <polygon points=" 46 92 48.8884 91.9092 51.7653 91.6373 54.6195 91.1852 57.4397 90.5548 60.2148 89.7486 62.9337 88.7697 65.5858 87.622 68.1607 86.3101 70.648 84.8391 73.0381 83.2148 75.3215 81.4436 77.4892 79.5326 79.5326 77.4892 81.4436 75.3215 83.2148 73.0381 84.8391 70.648 86.3101 68.1607 87.622 65.5858 88.7697 62.9337 89.7486 60.2148 90.5548 57.4397 91.1852 54.6195 91.6373 51.7653 91.9092 48.8884 92 46 91.9092 43.1116 91.6373 40.2347 91.1852 37.3805 90.5548 34.5603 89.7486 31.7852 88.7697 29.0663 87.622 26.4142 86.3101 23.8393 84.8391 21.352 83.2148 18.9619 81.4436 16.6785 79.5326 14.5108 77.4892 12.4674 75.3215 10.5564 73.0381 8.78522 70.648 7.16092 68.1607 5.68989 65.5858 4.37796 62.9337 3.23028 60.2148 2.2514 57.4397 1.44517 54.6195 0.814786 51.7653 0.362724 48.8884 0.0907705 46 0 43.1116 0.0907705 40.2347 0.362724 37.3805 0.814786 34.5603 1.44517 31.7852 2.2514 29.0663 3.23028 26.4142 4.37796 23.8393 5.68989 21.352 7.16092 18.9619 8.78522 16.6785 10.5564 14.5108 12.4674 12.4674 14.5108 10.5564 16.6785 8.78522 18.9619 7.16092 21.352 5.68989 23.8393 4.37796 26.4142 3.23028 29.0663 2.2514 31.7852 1.44517 34.5603 0.814786 37.3805 0.362724 40.2347 0.0907705 43.1116 0 46 0.0907705 48.8884 0.362724 51.7653 0.814786 54.6195 1.44517 57.4397 2.2514 60.2148 3.23028 62.9337 4.37796 65.5858 5.68989 68.1607 7.16092 70.648 8.78522 73.0381 10.5564 75.3215 12.4674 77.4892 14.5108 79.5326 16.6785 81.4436 18.9619 83.2148 21.352 84.8391 23.8393 86.3101 26.4142 87.622 29.0663 88.7697 31.7852 89.7486 34.5603 90.5548 37.3805 91.1852 40.2347 91.6373 43.1116 91.9092 " fill="green" stroke="black" stroke-width="0.5"/> 
 <polygon points=" 138 92 140.888 91.9092 143.765 91.6373 146.62 91.1852 149.44 90.5548 152.215 89.7486 154.934 88.7697 157.586 87.622 160.161 86.3101 162.648 84.8391 165.038 83.2148 167.322 81.4436 169.489 79.5326 171.533 77.4892 173.444 75.3215 175.215 73.0381 176.839 70.648 178.31 68.1607 179.622 65.5858 180.77 62.9337 181.749 60.2148 182.555 57.4397 183.185 54.6195 183.637 51.7653 183.909 48.8884 184 46 183.909 43.1116 183.637 40.2347 183.185 37.3805 182.555 34.5603 181.749 31.7852 180.77 29.0663 179.622 26.4142 178.31 23.8393 176.839 21.352 175.215 18.9619 173.444 16.6785 171.533 14.5108 169.489 12.4674 167.322 10.5564 165.038 8.78522 162.648 7.16092 160.161 5.68989 157.586 4.37796 154.934 3.23028 152.215 2.2514 149.44 1.44517 146.62 0.814786 143.765 0.362724 140.888 0.0907705 138 0 135.112 0.0907705 132.235 0.362724 129.38 0.814786 126.56 1.44517 123.785 2.2514 121.066 3.23028 118.414 4.37796 115.839 5.68989 113.352 7.16092 110.962 8.78522 108.678 10.5564 106.511 12.4674 104.467 14.5108 102.556 16.6785 100.785 18.9619 99.1609 21.352 97.6899 23.8393 96.378 26.4142 95.2303 29.0663 94.2514 31.7852 93.4452 34.5603 92.8148 37.3805 92.3627 40.2347 92.0908 43.1116 92 46 92.0908 48.8884 92.3627 51.7653 92.8148 54.6195 93.4452 57.4397 94.2514 60.2148 95.2303 62.9337 96.378 65.5858 97.6899 68.1607 99.1609 70.648 100.785 73.0381 102.556 75.3215 104.467 77.4892 106.511 79.5326 108.678 81.4436 110.962 83.2148 113.352 84.8391 115.839 86.3101 118.414 87.622 121.066 88.7697 123.785 89.7486 126.56 90.5548 129.38 91.1852 132.235 91.6373 135.112 91.9092 " fill="green" stroke="black" stroke-width="0.5"/> 
 <polygon points=" 230 92 232.888 91.9092 235.765 91.6373 238.62 91.1852 241.44 90.5548 244.215 89.7486 246.934 88.7697 249.586 87.622 252.161 86.3101 254.648 84.8391 257.038 83.2148 259.322 81.4436 261.489 79.5326 263.533 77.4892 265.444 75.3215 267.215 73.0381 268.839 70.648 270.31 68.1607 271.622 65.5858 272.77 62.9337 273.749 60.2148 274.555 57.4397 275.185 54.6195 275.637 51.7653 275.909 48.8884 276 46 275.909 43.1116 275.637 40.2347 275.185 37.3805 274.555 34.5603 273.749 31.7852 272.77 29.0663 271.622 26.4142 270.31 23.8393 268.839 21.352 267.215 18.9619 265.444 16.6785 263.533 14.5108 261.489 12.4674 259.322 10.5564 257.038 8.78522 254.648 7.16092 252.161 5.68989 249.586 4.37796 246.934 3.23028 244.215 2.2514 241.44 1.44517 238.62 0.814786 235.765 0.362724 232.888 0.0907705 230 0 227.112 0.0907705 224.235 0.362724 221.38 0.814786 218.56 1.44517 215.785 2.2514 213.066 3.23028 210.414 4.37796 207.839 5.68989 205.352 7.16092 202.962 8.78522 200.678 10.5564 198.511 12.4674 196.467 14.5108 194.556 16.6785 192.785 18.9619 191.161 21.352 189.69 23.8393 188.378 26.4142 187.23 29.0663 186.251 31.7852 185.445 34.5603 184.815 37.3805 184.363 40.2347 184.091 43.1116 184 46 184.091 48.8884 184.363 51.7653 184.815 54.6195 185.445 57.4397 186.251 60.2148 187.23 62.9337 188.378 65.5858 189.69 68.1607 191.161 70.648 192.785 73.0381 194.556 75.3215 196.467 77.4892 198.511 79.5326 200.678 81.4436 202.962 83.2148 205.352 84.8391 207.839 86.3101 210.414 87.622 213.066 88.7697 215.785 89.7486 218.56 90.5548 221.38 91.1852 224.235 91.6373 227.112 91.9092 " fill="green" stroke="black" stroke-width="0.5"/> 
 <polygon points=" 322 92 324.888 91.9092 327.765 91.6373 330.62 91.1852 333.44 90.5548 336.215 89.7486 338.934 88.7697 341.586 87.622 344.161 86.3101 346.648 84.8391 349.038 83.2148 351.322 81.4436 353.489 79.5326 355.533 77.4892 357.444 75.3215 359.215 73.0381 360.839 70.648 362.31 68.1607 363.622 65.5858 364.77 62.9337 365.749 60.2148 366.555 57.4397 367.185 54.6195 367.637 51.7653 367.909 48.8884 368 46 367.909 43.1116 367.637 40.2347 367.185 37.3805 366.555 34.5603 365.749 31.7852 364.77 29.0663 363.622 26.4142 362.31 23.8393 360.839 21.352 359.215 18.9619 357.444 16.6785 355.533 14.5108 353.489 12.4674 351.322 10.5564 349.038 8.78522 346.648 7.16092 344.161 5.68989 341.586 4.37796 338.934 3.23028 336.215 2.2514 333.44 1.44517 330.62 0.814786 327.765 0.362724 324.888 0.0907705 322 0 319.112 0.0907705 316.235 0.362724 313.38 0.814786 310.56 1.44517 307.785 2.2514 305.066 3.23028 302.414 4.37796 299.839 5.68989 297.352 7.16092 294.962 8.78522 292.678 10.5564 290.511 12.4674 288.467 14.5108 286.556 16.6785 284.785 18.9619 283.161 21.352 281.69 23.8393 280.378 26.4142 279.23 29.0663 278.251 31.7852 277.445 34.5603 276.815 37.3805 276.363 40.2347 276.091 43.1116 276 46 276.091 48.8884 276.363 51.7653 276.815 54.6195 277.445 57.4397 278.251 60.2148 279.23 62.9337 280.378 65.5858 281.69 68.1607 283.161 70.648 284.785 73.0381 286.556 75.3215 288.467 77.4892 290.511 79.5326 292.678 81.4436 294.962 83.2148 297.352 84.8391 299.839 86.3101 302.414 87.622 305.066 88.7697 307.785 89.7486 310.56 90.5548 313.38 91.1852 316.235 91.6373 319.112 91.9092 " fill="green" stroke="black" stroke-width="0.5"/> 
 <polygon points=" 46 184 48.8884 183.909 51.7653 183.637 54.6195 183.185 57.4397 182.555 60.2148 181.749 62.9337 180.77 65.5858 179.622 68.1607 178.31 70.648 176.839 73.0381 175.215 75.3215 173.444 77.4892 171.533 79.5326 169.489 81.4436 167.322 83.2148 165.038 84.8391 162.648 86.3101 160.161 87.622 157.586 88.7697 154.934 89.7486 152.215 90.5548 149.44 91.1852 146.62 91.6373 143.765 91.9092 140.888 92 138 91.9092 135.112 91.6373 132.235 91.1852 129.38 90.5548 126.56 89.7486 123.785 88.7697 121.066 87.622 118.414 86.3101 115.839 84.8391 113.352 83.2148 110.962 81.4436 108.678 79.5326 106.511 77.4892 104.467 75.3215 102.556 73.0381 100.785 70.648 99.1609 68.1607 97.6899 65.5858 96.378 62.9337 95.2303 60.2148 94.2514 57.4397 93.4452 54.6195 92.8148 51.7653 92.3627 48.8884 92.0908 46 92 43.1116 92.0908 40.2347 92.3627 37.3805 92.8148 34.5603 93.4452 31.7852 94.2514 29.0663 95.2303 26.4142 96.378 23.8393 97.6899 21.352 99.1609 18.9619 100.785 16.6785 102.556 14.5108 104.467 12.4674 106.511 10.5564 108.678 8.78522 110.962 7.16092 113.352 5.68989 115.839 4.37796 118.414 3.23028 121.066 2.2514 123.785 1.44517 126.56 0.814786 129.38 0.362724 132.235 0.0907705 135.112 0 138 0.0907705 140.888 0.362724 143.765 0.814786 146.62 1.44517 149.44 2.2514 152.215 3.23028 154.934 4.37796 157.586 5.68989 160.161 7.16092 162.648 8.78522 165.038 10.5564 167.322 12.4674 169.489 14.5108 171.533 16.6785 173.444 18.9619 175.215 21.352 176.839 23.8393 178.31 26.4142 179.622 29.0663 180.77 31.7852 181.749 34.5603 182.555 37.3805 183.185 40.2347 183.637 43.1116 183.909 " fill="green" stroke="black" stroke-width="0.5"/> 
 <polygon points=" 138 184 140.888 183.909 143.765 183.637 146.62 183.185 149.44 182.555 152.215 181.749 154.934 180.77 157.586 179.622 160.161 178.31 162.648 176.839 165.038 175.215 167.322 173.444 169.489 171.533 171.533 169.489 173.444 167.322 175.215 165.038 176.839 162.648 178.31 160.161 179.622 157.586 180.77 154.934 181.749 152.215 182.555 149.44 183.185 146.62 183.637 143.765 183.909 140.888 184 138 183.909 135.112 183.637 132.235 183.185 129.38 182.555 126.56 181.749 123.785 180.77 121.066 179.622 118.414 178.31 115.839 176.839 113.352 175.215 110.962 173.444 108.678 171.533 106.511 169.489 104.467 167.322 102.556 165.038 100.785 162.648 99.1609 160.161 97.6899 157.586 96.378 154.934 95.2303 152.215 94.2514 149.44 93.4452 146.62 92.8148 143.765 92.3627 140.888 92.0908 138 92 135.112 92.0908 132.235 92.3627 129.38 92.8148 126.56 93.4452 123.785 94.2514 121.066 95.2303 118.414 96.378 115.839 97.6899 113.352 99.1609 110.962 100.785 108.678 102.556 106.511 104.467 104.467 106.511 102.556 108.678 100.785 110.962 99.1609 113.352 97.6899 115.839 96.378 118.414 95.2303 121.066 94.2514 123.785 93.4452 126.56 92.8148 129.38 92.3627 132.235 92.0908 135.112 92 138 92.0908 140.888 92.3627 143.765 92.8148 146.62 93.4452 149.44 94.2514 152.215 95.2303 154.934 96.378 157.586 97.6899 160.161 99.1609 162.648 100.785 165.038 102.556 167.322 104.467 169.489 106.511 171.533 108.678 173.444 110.962 175.215 113.352 176.839 115.839 178.31 118.414 179.622 121.066 180.77 123.785 181.749 126.56 182.555 129.38 183.185 132.235 183.637 135.112 183.909 " fill="green" stroke="black" stroke-width="0.5"/> 
 <polygon points=" 230 184 232.888 183.909 235.765 183.637 238.62 183.185 241.44 182.555 244.215 181.749 246.934 180.77 249.586 179.622 252.161 178.31 254.648 176.839 257.038 175.215 259.322 173.444 261.489 171.533 263.533 169.489 265.444 167.322 267.215 165.038 268.839 162.648 270.31 160.161 271.622 157.586 272.77 154.934 273.749 152.215 274.555 149.44 275.185 146.62 275.637 143.765 275.909 140.888 276 138 275.909 135.112 275.637 132.235 275.185 129.38 274.555 126.56 273.749 123.785 272.77 121.066 271.622 118.414 270.31 115.839 268.839 113.352 267.215 110.962 265.444 108.678 263.533 106.511 261.489 104.467 259.322 102.556 257.038 100.785 254.648 99.1609 252.161 97.6899 249.586 96.378 246.934 95.2303 244.215 94.2514 241.44 93.4452 238.62 92.8148 235.765 92.3627 232.888 92.0908 230 92 227.112 92.0908 224.235 92.3627 221.38 92.8148 218.56 93.4452 215.785 94.2514 213.066 95.2303 210.414 96.378 207.839 97.6899 205.352 99.1609 202.962 100.785 200.678 102.556 198.511 104.467 196.467 106.511 194.556 108.678 192.785 110.962 191.161 113.352 189.69 115.839 188.378 118.414 187.23 121.066 186.251 123.785 185.445 126.56 184.815 129.38 184.363 132.235 184.091 135.112 184 138 184.091 140.888 184.363 143.765 184.815 146.62 185.445 149.44 186.251 152.215 187.23 154.934 188.378 157.586 189.69 160.161 191.161 162.648 192.785 165.038 194.556 167.322 196.467 169.489 198.511 171.533 200.678 173.444 202.962 175.215 205.352 176.839 207.839 178.31 210.414 179.622 213.066 180.77 215.785 181.749 218.56 182.555 221.38 183.185 224.235 183.637 227.112 183.909 " fill="green" stroke="black" stroke-width="0.5"/> 
 <polygon points=" 322 184 324.888 183.909 327.765 183.637 330.62 183.185 333.44 182.555 336.215 181.749 338.934 180.77 341.586 179.622 344.161 178.31 346.648 176.839 349.038 175.215 351.322 173.444 353.489 171.533 355.533 169.489 357.444 167.322 359.215 165.038 360.839 162.648 362.31 160.161 363.622 157.586 364.77 154.934 365.749 152.215 366.555 149.44 367.185 146.62 367.637 143.765 367.909 140.888 368 138 367.909 135.112 367.637 132.235 367.185 129.38 366.555 126.56 365.749 123.785 364.77 121.066 363.622 118.414 362.31 115.839 360.839 113.352 359.215 110.962 357.444 108.678 355.533 106.511 353.489 104.467 351.322 102.556 349.038 100.785 346.648 99.1609 344.161 97.6899 341.586 96.378 338.934 95.2303 336.215 94.2514 333.44 93.4452 330.62 92.8148 327.765 92.3627 324.888 92.0908 322 92 319.112 92.0908 316.235 92.3627 313.38 92.8148 310.56 93.4452 307.785 94.2514 305.066 95.2303 302.414 96.378 299.839 97.6899 297.352 99.1609 294.962 100.785 292.678 102.556 290.511 104.467 288.467 106.511 286.556 108.678 284.785 110.962 283.161 113.352 281.69 115.839 280.378 118.414 279.23 121.066 278.251 123.785 277.445 126.56 276.815 129.38 276.363 132.235 276.091 135.112 276 138 276.091 140.888 276.363 143.765 276.815 146.62 277.445 149.44 278.251 152.215 279.23 154.934 280.378 157.586 281.69 160.161 283.161 162.648 284.785 165.038 286.556 167.322 288.467 169.489 290.511 171.533 292.678 173.444 294.962 175.215 297.352 176.839 299.839 178.31 302.414 179.622 305.066 180.77 307.785 181.749 310.56 182.555 313.38 183.185 316.235 183.637 319.112 183.909 " fill="green" stroke="black" stroke-width="0.5"/> 
 <polygon points=" 401 138 403.888 137.909 406.765 137.637 409.62 137.185 412.44 136.555 415.215 135.749 417.934 134.77 420.586 133.622 423.161 132.31 425.648 130.839 428.038 129.215 430.322 127.444 432.489 125.533 434.533 123.489 436.444 121.322 438.215 119.038 439.839 116.648 441.31 114.161 442.622 111.586 443.77 108.934 444.749 106.215 445.555 103.44 446.185 100.62 446.637 97.7653 446.909 94.8884 447 92 446.909 89.1116 446.637 86.2347 446.185 83.3805 445.555 80.5603 444.749 77.7852 443.77 75.0663 442.622 72.4142 441.31 69.8393 439.839 67.352 438.215 64.9619 436.444 62.6785 434.533 60.5108 432.489 58.4674 430.322 56.5564 428.038 54.7852 425.648 53.1609 423.161 51.6899 420.586 50.378 417.934 49.2303 415.215 48.2514 412.44 47.4452 409.62 46.8148 406.765 46.3627 403.888 46.0908 401 46 398.112 46.0908 395.235 46.3627 392.38 46.8148 389.56 47.4452 386.785 48.2514 384.066 49.2303 381.414 50.378 378.839 51.6899 376.352 53.1609 373.962 54.7852 371.678 56.5564 369.511 58.4674 367.467 60.5108 365.556 62.6785 363.785 64.9619 362.161 67.352 360.69 69.8393 359.378 72.4142 358.23 75.0663 357.251 77.7852 356.445 80.5603 355.815 83.3805 355.363 86.2347 355.091 89.1116 355 92 355.091 94.8884 355.363 97.7653 355.815 100.62 356.445 103.44 357.251 106.215 358.23 108.934 359.378 111.586 360.69 114.161 362.161 116.648 363.785 119.038 365.556 121.322 367.467 123.489 369.511 125.533 371.678 127.444 373.962 129.215 376.352 130.839 378.839 132.31 381.414 133.622 384.066 134.77 386.785 135.749 389.56 136.555 392.38 137.185 395.235 137.637 398.112 137.909 " fill="green" stroke="black" stroke-width="0.5"/> 
 <polygon points=" 46 276 48.8884 275.909 51.7653 275.637 54.6195 275.185 57.4397 274.555 60.2148 273.749 62.9337 272.77 65.5858 271.622 68.1607 270.31 70.648 268.839 73.0381 267.215 75.3215 265.444 77.4892 263.533 79.5326 261.489 81.4436 259.322 83.2148 257.038 84.8391 254.648 86.3101 252.161 87.622 249.586 88.7697 246.934 89.7486 244.215 90.5548 241.44 91.1852 238.62 91.6373 235.765 91.9092 232.888 92 230 91.9092 227.112 91.6373 224.235 91.1852 221.38 90.5548 218.56 89.7486 215.785 88.7697 213.066 87.622 210.414 86.3101 207.839 84.8391 205.352 83.2148 202.962 81.4436 200.678 79.5326 198.511 77.4892 196.467 75.3215 194.556 73.0381 192.785 70.648 191.161 68.1607 189.69 65.5858 188.378 62.9337 187.23 60.2148 186.251 57.4397 185.445 54.6195 184.815 51.7653 184.363 48.8884 184.091 46 184 43.1116 184.091 40.2347 184.363 37.3805 184.815 34.5603 185.445 31.7852 186.251 29.0663 187.23 26.4142 188.378 23.8393 189.69 21.352 191.161 18.9619 192.785 16.6785 194.556 14.5108 196.467 12.4674 198.511 10.5564 200.678 8.78522 202.962 7.16092 205.352 5.68989 207.839 4.37796 210.414 3.23028 213.066 2.2514 215.785 1.44517 218.56 0.814786 221.38 0.362724 224.235 0.0907705 227.112 0 230 0.0907705 232.888 0.362724 235.765 0.814786 238.62 1.44517 241.44 2.2514 244.215 3.23028 246.934 4.37796 249.586 5.68989 252.161 7.16092 254.648 8.78522 257.038 10.5564 259.322 12.4674 261.489 14.5108 263.533 16.6785 265.444 18.9619 267.215 21.352 268.839 23.8393 270.31 26.4142 271.622 29.0663 272.77 31.7852 273.749 34.5603 274.555 37.3805 275.185 40.2347 275.637 43.1116 275.909 " fill="green" stroke="black" stroke-width="0.5"/> 
 <polygon points=" 138 276 140.888 275.909 143.765 275.637 146.62 275.185 149.44 274.555 152.215 273.749 154.934 272.77 157.586 271.622 160.161 270.31 162.648 268.839 165.038 267.215 167.322 265.444 169.489 263.533 171.533 261.489 173.444 259.322 175.215 257.038 176.839 254.648 178.31 252.161 179.622 249.586 180.77 246.934 181.749 244.215 182.555 241.44 183.185 238.62 183.637 235.765 183.909 232.888 184 230 183.909 227.112 183.637 224.235 183.185 221.38 182.555 218.56 181.749 215.785 180.77 213.066 179.622 210.414 178.31 207.839 176.839 205.352 175.215 202.962 173.444 200.678 171.533 198.511 169.489 196.467 167.322 194.556 165.038 192.785 162.648 191.161 160.161 189.69 157.586 188.378 154.934 187.23 152.215 186.251 149.44 185.445 146.62 184.815 143.765 184.363 140.888 184.091 138 184 135.112 184.091 132.235 184.363 129.38 184.815 126.56 185.445 123.785 186.251 121.066 187.23 118.414 188.378 115.839 189.69 113.352 191.161 110.962 192.785 108.678 194.556 106.511 196.467 104.467 198.511 102.556 200.678 100.785 202.962 99.1609 205.352 97.6899 207.839 96.378 210.414 95.2303 213.066 94.2514 215.785 93.4452 218.56 92.8148 221.38 92.3627 224.235 92.0908 227.112 92 230 92.0908 232.888 92.3627 235.765 92.8148 238.62 93.4452 241.44 94.2514 244.215 95.2303 246.934 96.378 249.586 97.6899 252.161 99.1609 254.648 100.785 257.038 102.556 259.322 104.467 261.489 106.511 263.533 108.678 265.444 110.962 267.215 113.352 268.839 115.839 270.31 118.414 271.622 121.066 272.77 123.785 273.749 126.56 274.555 129.38 275.185 132.235 275.637 135.112 275.909 " fill="green" stroke="black" stroke-width="0.5"/> 
 <polygon points=" 230 276 232.888 275.909 235.765 275.637 238.62 275.185 241.44 274.555 244.215 273.749 246.934 272.77 249.586 271.622 252.161 270.31 254.648 268.839 257.038 267.215 259.322 265.444 261.489 263.533 263.533 261.489 265.444 259.322 267.215 257.038 268.839 254.648 270.31 252.161 271.622 249.586 272.77 246.934 273.749 244.215 274.555 241.44 275.185 238.62 275.637 235.765 275.909 232.888 276 230 275.909 227.112 275.637 224.235 275.185 221.38 274.555 218.56 273.749 215.785 272.77 213.066 271.622 210.414 270.31 207.839 268.839 205.352 267.215 202.962 265.444 200.678 263.533 198.511 261.489 196.467 259.322 194.556 257.038 192.785 254.648 191.161 252.161 189.69 249.586 188.378 246.934 187.23 244.215 186.251 241.44 185.445 238.62 184.815 235.765 184.363 232.888 184.091 230 184 227.112 184.091 224.235 184.363 221.38 184.815 218.56 185.445 215.785 186.251 213.066 187.23 210.414 188.378 207.839 189.69 205.352 191.161 202.962 192.785 200.678 194.556 198.511 196.467 196.467 198.511 194.556 200.678 192.785 202.962 191.161 205.352 189.69 207.839 188.378 210.414 187.23 213.066 186.251 215.785 185.445 218.56 184.815 221.38 184.363 224.235 184.091 227.112 184 230 184.091 232.888 184.363 235.765 184.815 238.62 185.445 241.44 186.251 244.215 187.23 246.934 188.378 249.586 189.69 252.161 191.161 254.648 192.785 257.038 194.556 259.322 196.467 261.489 198.511 263.533 200.678 265.444 202.962 267.215 205.352 268.839 207.839 270.31 210.414 271.622 213.066 272.77 215.785 273.749 218.56 274.555 221.38 275.185 224.235 275.637 227.112 275.909 " fill="green" stroke="black" stroke-width="0.5"/> 
 <polygon points=" 322 276 324.888 275.909 327.765 275.637 330.62 275.185 333.44 274.555 336.215 273.749 338.934 272.77 341.586 271.622 344.161 270.31 346.648 268.839 349.038 267.215 351.322 265.444 353.489 263.533 355.533 261.489 357.444 259.322 359.215 257.038 360.839 254.648 362.31 252.161 363.622 249.586 364.77 246.934 365.749 244.215 366.555 241.44 367.185 238.62 367.637 235.765 367.909 232.888 368 230 367.909 227.112 367.637 224.235 367.185 221.38 366.555 218.56 365.749 215.785 364.77 213.066 363.622 210.414 362.31 207.839 360.839 205.352 359.215 202.962 357.444 200.678 355.533 198.511 353.489 196.467 351.322 194.556 349.038 192.785 346.648 191.161 344.161 189.69 341.586 188.378 338.934 187.23 336.215 186.251 333.44 185.445 330.62 184.815 327.765 184.363 324.888 184.091 322 184 319.112 184.091 316.235 184.363 313.38 184.815 310.56 185.445 307.785 186.251 305.066 187.23 302.414 188.378 299.839 189.69 297.352 191.161 294.962 192.785 292.678 194.556 290.511 196.467 288.467 198.511 286.556 200.678 284.785 202.962 283.161 205.352 281.69 207.839 280.378 210.414 279.23 213.066 278.251 215.785 277.445 218.56 276.815 221.38 276.363 224.235 276.091 227.112 276 230 276.091 232.888 276.363 235.765 276.815 238.62 277.445 241.44 278.251 244.215 279.23 246.934 280.378 249.586 281.69 252.161 283.161 254.648 284.785 257.038 286.556 259.322 288.467 261.489 290.511 263.533 292.678 265.444 294.962 267.215 297.352 268.839 299.839 270.31 302.414 271.622 305.066 272.77 307.785 273.749 310.56 274.555 313.38 275.185 316.235 275.637 319.112 275.909 " fill="green" stroke="black" stroke-width="0.5"/> 
 <polygon points=" 401 230 403.888 229.909 406.765 229.637 409.62 229.185 412.44 228.555 415.215 227.749 417.934 226.77 420.586 225.622 423.161 224.31 425.648 222.839 428.038 221.215 430.322 219.444 432.489 217.533 434.533 215.489 436.444 213.322 438.215 211.038 439.839 208.648 441.31 206.161 442.622 203.586 443.77 200.934 444.749 198.215 445.555 195.44 446.185 192.62 446.637 189.765 446.909 186.888 447 184 446.909 181.112 446.637 178.235 446.185 175.38 445.555 172.56 444.749 169.785 443.77 167.066 442.622 164.414 441.31 161.839 439.839 159.352 438.215 156.962 436.444 154.678 434.533 152.511 432.489 150.467 430.322 148.556 428.038 146.785 425.648 145.161 423.161 143.69 420.586 142.378 417.934 141.23 415.215 140.251 412.44 139.445 409.62 138.815 406.765 138.363 403.888 138.091 401 138 398.112 138.091 395.235 138.363 392.38 138.815 389.56 139.445 386.785 140.251 384.066 141.23 381.414 142.378 378.839 143.69 376.352 145.161 373.962 146.785 371.678 148.556 369.511 150.467 367.467 152.511 365.556 154.678 363.785 156.962 362.161 159.352 360.69 161.839 359.378 164.414 358.23 167.066 357.251 169.785 356.445 172.56 355.815 175.38 355.363 178.235 355.091 181.112 355 184 355.091 186.888 355.363 189.765 355.815 192.62 356.445 195.44 357.251 198.215 358.23 200.934 359.378 203.586 360.69 206.161 362.161 208.648 363.785 211.038 365.556 213.322 367.467 215.489 369.511 217.533 371.678 219.444 373.962 221.215 376.352 222.839 378.839 224.31 381.414 225.622 384.066 226.77 386.785 227.749 389.56 228.555 392.38 229.185 395.235 229.637 398.112 229.909 " fill="green" stroke="black" stroke-width="0.5"/> 
</svg>