<svg version="1.1" xmlns="http://www.w3.org/2000/svg"> 
 <polygon points="0 618.342 357 0 715 618.342" fill="red" />
 <circle cx="39" cy="596" r="23" fill="green" stroke="black" stroke-width="0.5" /> 
 <circle cx="85" cy="596" r="23" fill="green" stroke="black" stroke-width="0.5" /> 
 <circle cx="131" cy="596" r="23" fill="green" stroke="black" stroke-width="0.5" /> 
 <circle cx="177" cy="596" r="23" fill="green" stroke="black" stroke-width="0.5" /> 
 <circle cx="223" cy="596" r="23" fill="green" stroke="black" stroke-width="0.5" /> 
 <circle cx="269" cy="596" r="23" fill="green" stroke="black" stroke-width="0.5" /> 
 <circle cx="315" cy="596" r="23" fill="green" stroke="black" stroke-width="0.5" /> 
 <circle cx="361" cy="596" r="23" fill="green" stroke="black" stroke-width="0.5" /> 
 <circle cx="407" cy="596" r="23" fill="green" stroke="black" stroke-width="0.5" /> 
 <circle cx="453" cy="596" r="23" fill="green" stroke="black" stroke-width="0.5" /> 
 <circle cx="499" cy="596" r="23" fill="green" stroke="black" stroke-width="0.5" /> 
 <circle cx="545" cy="596" r="23" fill="green" stroke="black" stroke-width="0.5" /> 
 <circle cx="591" cy="596" r="23" fill="green" stroke="black" stroke-width="0.5" /> 
 <circle cx="637" cy="596" r="23" fill="green" stroke="black" stroke-width="0.5" /> 
 <circle cx="62" cy="556" r="23" fill="green" stroke="black" stroke-width="0.5" /> 
 <circle cx="108" cy="556" r="23" fill="green" stroke="black" stroke-width="0.5" /> 
 <circle cx="154" cy="556" r="23" fill="green" stroke="black" stroke-width="0.5" /> 
 <circle cx="200" cy="556" r="23" fill="green" stroke="black" stroke-width="0.5" /> 
 <circle cx="246" cy="556" r="23" fill="green" stroke="black" stroke-width="0.5" /> 
 <circle cx="292" cy="556" r="23" fill="green" stroke="black" stroke-width="0.5" /> 
 <circle cx="338" cy="556" r="23" fill="green" stroke="black" stroke-width="0.5" /> 
 <circle cx="384" cy="556" r="23" fill="green" stroke="black" stroke-width="0.5" /> 
 <circle cx="430" cy="556" r="23" fill="green" stroke="black" stroke-width="0.5" /> 
 <circle cx="476" cy="556" r="23" fill="green" stroke="black" stroke-width="0.5" /> 
 <circle cx="522" cy="556" r="23" fill="green" stroke="black" stroke-width="0.5" /> 
 <circle cx="568" cy="556" r="23" fill="green" stroke="black" stroke-width="0.5" /> 
 <circle cx="614" cy="556" r="23" fill="green" stroke="black" stroke-width="0.5" /> 
 <circle cx="85" cy="516" r="23" fill="green" stroke="black" stroke-width="0.5" /> 
 <circle cx="131" cy="516" r="23" fill="green" stroke="black" stroke-width="0.5" /> 
 <circle cx="177" cy="516" r="23" fill="green" stroke="black" stroke-width="0.5" /> 
 <circle cx="223" cy="516" r="23" fill="green" stroke="black" stroke-width="0.5" /> 
 <circle cx="269" cy="516" r="23" fill="green" stroke="black" stroke-width="0.5" /> 
 <circle cx="315" cy="516" r="23" fill="green" stroke="black" stroke-width="0.5" /> 
 <circle cx="361" cy="516" r="23" fill="green" stroke="black" stroke-width="0.5" /> 
 <circle cx="407" cy="516" r="23" fill="green" stroke="black" stroke-width="0.5" /> 
 <circle cx="453" cy="516" r="23" fill="green" stroke="black" stroke-width="0.5" /> 
 <circle cx="499" cy="516" r="23" fill="green" stroke="black" stroke-width="0.5" /> 
 <circle cx="545" cy="516" r="23" fill="green" stroke="black" stroke-width="0.5" /> 
 <circle cx="591" cy="516" r="23" fill="green" stroke="black" stroke-width="0.5" /> 
 <circle cx="108" cy="476" r="23" fill="green" stroke="black" stroke-width="0.5" /> 
 <circle cx="154" cy="476" r="23" fill="green" stroke="black" stroke-width="0.5" /> 
 <circle cx="200" cy="476" r="23" fill="green" stroke="black" stroke-width="0.5" /> 
 <circle cx="246" cy="476" r="23" fill="green" stroke="black" stroke-width="0.5" /> 
 <circle cx="292" cy="476" r="23" fill="green" stroke="black" stroke-width="0.5" /> 
 <circle cx="338" cy="476" r="23" fill="green" stroke="black" stroke-width="0.5" /> 
 <circle cx="384" cy="476" r="23" fill="green" stroke="black" stroke-width="0.5" /> 
 <circle cx="430" cy="476" r="23" fill="green" stroke="black" stroke-width="0.5" /> 
 <circle cx="476" cy="476" r="23" fill="green" stroke="black" stroke-width="0.5" /> 
 <circle cx="522" cy="476" r="23" fill="green" stroke="black" stroke-width="0.5" /> 
 <circle cx="568" cy="476" r="23" fill="green" stroke="black" stroke-width="0.5" /> 
 <circle cx="131" cy="436" r="23" fill="green" stroke="black" stroke-width="0.5" /> 
 <circle cx="177" cy="436" r="23" fill="green" stroke="black" stroke-width="0.5" /> 
 <circle cx="223" cy="436" r="23" fill="green" stroke="black" stroke-width="0.5" /> 
 <circle cx="269" cy="436" r="23" fill="green" stroke="black" stroke-width="0.5" /> 
 <circle cx="315" cy="436" r="23" fill="green" stroke="black" stroke-width="0.5" /> 
 <circle cx="361" cy="436" r="23" fill="green" stroke="black" stroke-width="0.5" /> 
 <circle cx="407" cy="436" r="23" fill="green" stroke="black" stroke-width="0.5" /> 
 <circle cx="453" cy="436" r="23" fill="green" stroke="black" stroke-width="0.5" /> 
 <circle cx="499" cy="436" r="23" fill="green" stroke="black" stroke-width="0.5" /> 
 <circle cx="545" cy="436" r="23" fill="green" stroke="black" stroke-width="0.5" /> 
 <circle cx="154" cy="397" r="23" fill="green" stroke="black" stroke-width="0.5" /> 
 <circle cx="200" cy="397" r="23" fill="green" stroke="black" stroke-width="0.5" /> 
 <circle cx="246" cy="397" r="23" fill="green" stroke="black" stroke-width="0.5" /> 
 <circle cx="292" cy="397" r="23" fill="green" stroke="black" stroke-width="0.5" /> 
 <circle cx="338" cy="397" r="23" fill="green" stroke="black" stroke-width="0.5" /> 
 <circle cx="384" cy="397" r="23" fill="green" stroke="black" stroke-width="0.5" /> 
 <circle cx="430" cy="397" r="23" fill="green" stroke="black" stroke-width="0.5" /> 
 <circle cx="476" cy="397" r="23" fill="green" stroke="black" stroke-width="0.5" /> 
 <circle cx="522" cy="397" r="23" fill="green" stroke="black" stroke-width="0.5" /> 
 <circle cx="177" cy="357" r="23" fill="green" stroke="black" stroke-width="0.5" /> 
 <circle cx="223" cy="357" r="23" fill="green" stroke="black" stroke-width="0.5" /> 
 <circle cx="269" cy="357" r="23" fill="green" stroke="black" stroke-width="0.5" /> 
 <circle cx="315" cy="357" r="23" fill="green" stroke="black" stroke-width="0.5" /> 
 <circle cx="361" cy="357" r="23" fill="green" stroke="black" stroke-width="0.5" /> 
 <circle cx="407" cy="357" r="23" fill="green" stroke="black" stroke-width="0.5" /> 
 <circle cx="453" cy="357" r="23" fill="green" stroke="black" stroke-width="0.5" /> 
 <circle cx="499" cy="357" r="23" fill="green" stroke="black" stroke-width="0.5" /> 
 <circle cx="200" cy="317" r="23" fill="green" stroke="black" stroke-width="0.5" /> 
 <circle cx="246" cy="317" r="23" fill="green" stroke="black" stroke-width="0.5" /> 
 <circle cx="292" cy="317" r="23" fill="green" stroke="black" stroke-width="0.5" /> 
 <circle cx="338" cy="317" r="23" fill="green" stroke="black" stroke-width="0.5" /> 
 <circle cx="384" cy="317" r="23" fill="green" stroke="black" stroke-width="0.5" /> 
 <circle cx="430" cy="317" r="23" fill="green" stroke="black" stroke-width="0.5" /> 
 <circle cx="476" cy="317" r="23" fill="green" stroke="black" stroke-width="0.5" /> 
 <circle cx="223" cy="277" r="23" fill="green" stroke="black" stroke-width="0.5" /> 
 <circle cx="269" cy="277" r="23" fill="green" stroke="black" stroke-width="0.5" /> 
 <circle cx="315" cy="277" r="23" fill="green" stroke="black" stroke-width="0.5" /> 
 <circle cx="361" cy="277" r="23" fill="green" stroke="black" stroke-width="0.5" /> 
 <circle cx="407" cy="277" r="23" fill="green" stroke="black" stroke-width="0.5" /> 
 <circle cx="453" cy="277" r="23" fill="green" stroke="black" stroke-width="0.5" /> 
 <circle cx="246" cy="237" r="23" fill="green" stroke="black" stroke-width="0.5" /> 
 <circle cx="292" cy="237" r="23" fill="green" stroke="black" stroke-width="0.5" /> 
 <circle cx="338" cy="237" r="23" fill="green" stroke="black" stroke-width="0.5" /> 
 <circle cx="384" cy="237" r="23" fill="green" stroke="black" stroke-width="0.5" /> 
 <circle cx="430" cy="237" r="23" fill="green" stroke="black" stroke-width="0.5" /> 
 <circle cx="269" cy="197" r="23" fill="green" stroke="black" stroke-width="0.5" /> 
 <circle cx="315" cy="197" r="23" fill="green" stroke="black" stroke-width="0.5" /> 
 <circle cx="361" cy="197" r="23" fill="green" stroke="black" stroke-width="0.5" /> 
 <circle cx="407" cy="197" r="23" fill="green" stroke="black" stroke-width="0.5" /> 
 <circle cx="292" cy="157" r="23" fill="green" stroke="black" stroke-width="0.5" /> 
 <circle cx="338" cy="157" r="23" fill="green" stroke="black" stroke-width="0.5" /> 
 <circle cx="384" cy="157" r="23" fill="green" stroke="black" stroke-width="0.5" /> 
 <circle cx="315" cy="118" r="23" fill="green" stroke="black" stroke-width="0.5" /> 
 <circle cx="361" cy="118" r="23" fill="green" stroke="black" stroke-width="0.5" /> 
 <circle cx="338" cy="78" r="23" fill="green" stroke="black" stroke-width="0.5" /> 
</svg>