<svg version="1.1" xmlns="http://www.w3.org/2000/svg"> 
 <circle cx="555" cy="555" r="555" fill="red"/> 
<rect x="360" y="50" width="40" height="50" fill="green" stroke="black" stroke-width="0.5" />
<rect x="400" y="50" width="40" height="50" fill="green" stroke="black" stroke-width="0.5" />
<rect x="440" y="50" width="40" height="50" fill="green" stroke="black" stroke-width="0.5" />
<rect x="480" y="50" width="40" height="50" fill="green" stroke="black" stroke-width="0.5" />
<rect x="520" y="50" width="40" height="50" fill="green" stroke="black" stroke-width="0.5" />
<rect x="560" y="50" width="40" height="50" fill="green" stroke="black" stroke-width="0.5" />
<rect x="600" y="50" width="40" height="50" fill="green" stroke="black" stroke-width="0.5" />
<rect x="640" y="50" width="40" height="50" fill="green" stroke="black" stroke-width="0.5" />
<rect x="680" y="50" width="40" height="50" fill="green" stroke="black" stroke-width="0.5" />
<rect x="720" y="50" width="40" height="50" fill="green" stroke="black" stroke-width="0.5" />
<rect x="240" y="100" width="40" height="50" fill="green" stroke="black" stroke-width="0.5" />
<rect x="280" y="100" width="40" height="50" fill="green" stroke="black" stroke-width="0.5" />
<rect x="320" y="100" width="40" height="50" fill="green" stroke="black" stroke-width="0.5" />
<rect x="360" y="100" width="40" height="50" fill="green" stroke="black" stroke-width="0.5" />
<rect x="400" y="100" width="40" height="50" fill="green" stroke="black" stroke-width="0.5" />
<rect x="440" y="100" width="40" height="50" fill="green" stroke="black" stroke-width="0.5" />
<rect x="480" y="100" width="40" height="50" fill="green" stroke="black" stroke-width="0.5" />
<rect x="520" y="100" width="40" height="50" fill="green" stroke="black" stroke-width="0.5" />
<rect x="560" y="100" width="40" height="50" fill="green" stroke="black" stroke-width="0.5" />
<rect x="600" y="100" width="40" height="50" fill="green" stroke="black" stroke-width="0.5" />
<rect x="640" y="100" width="40" height="50" fill="green" stroke="black" stroke-width="0.5" />
<rect x="680" y="100" width="40" height="50" fill="green" stroke="black" stroke-width="0.5" />
<rect x="720" y="100" width="40" height="50" fill="green" stroke="black" stroke-width="0.5" />
<rect x="760" y="100" width="40" height="50" fill="green" stroke="black" stroke-width="0.5" />
<rect x="800" y="100" width="40" height="50" fill="green" stroke="black" stroke-width="0.5" />
<rect x="200" y="150" width="40" height="50" fill="green" stroke="black" stroke-width="0.5" />
<rect x="240" y="150" width="40" height="50" fill="green" stroke="black" stroke-width="0.5" />
<rect x="280" y="150" width="40" height="50" fill="green" stroke="black" stroke-width="0.5" />
<rect x="320" y="150" width="40" height="50" fill="green" stroke="black" stroke-width="0.5" />
<rect x="360" y="150" width="40" height="50" fill="green" stroke="black" stroke-width="0.5" />
<rect x="400" y="150" width="40" height="50" fill="green" stroke="black" stroke-width="0.5" />
<rect x="440" y="150" width="40" height="50" fill="green" stroke="black" stroke-width="0.5" />
<rect x="480" y="150" width="40" height="50" fill="green" stroke="black" stroke-width="0.5" />
<rect x="520" y="150" width="40" height="50" fill="green" stroke="black" stroke-width="0.5" />
<rect x="560" y="150" width="40" height="50" fill="green" stroke="black" stroke-width="0.5" />
<rect x="600" y="150" width="40" height="50" fill="green" stroke="black" stroke-width="0.5" />
<rect x="640" y="150" width="40" height="50" fill="green" stroke="black" stroke-width="0.5" />
<rect x="680" y="150" width="40" height="50" fill="green" stroke="black" stroke-width="0.5" />
<rect x="720" y="150" width="40" height="50" fill="green" stroke="black" stroke-width="0.5" />
<rect x="760" y="150" width="40" height="50" fill="green" stroke="black" stroke-width="0.5" />
<rect x="800" y="150" width="40" height="50" fill="green" stroke="black" stroke-width="0.5" />
<rect x="840" y="150" width="40" height="50" fill="green" stroke="black" stroke-width="0.5" />
<rect x="880" y="150" width="40" height="50" fill="green" stroke="black" stroke-width="0.5" />
<rect x="160" y="200" width="40" height="50" fill="green" stroke="black" stroke-width="0.5" />
<rect x="200" y="200" width="40" height="50" fill="green" stroke="black" stroke-width="0.5" />
<rect x="240" y="200" width="40" height="50" fill="green" stroke="black" stroke-width="0.5" />
<rect x="280" y="200" width="40" height="50" fill="green" stroke="black" stroke-width="0.5" />
<rect x="320" y="200" width="40" height="50" fill="green" stroke="black" stroke-width="0.5" />
<rect x="360" y="200" width="40" height="50" fill="green" stroke="black" stroke-width="0.5" />
<rect x="400" y="200" width="40" height="50" fill="green" stroke="black" stroke-width="0.5" />
<rect x="440" y="200" width="40" height="50" fill="green" stroke="black" stroke-width="0.5" />
<rect x="480" y="200" width="40" height="50" fill="green" stroke="black" stroke-width="0.5" />
<rect x="520" y="200" width="40" height="50" fill="green" stroke="black" stroke-width="0.5" />
<rect x="560" y="200" width="40" height="50" fill="green" stroke="black" stroke-width="0.5" />
<rect x="600" y="200" width="40" height="50" fill="green" stroke="black" stroke-width="0.5" />
<rect x="640" y="200" width="40" height="50" fill="green" stroke="black" stroke-width="0.5" />
<rect x="680" y="200" width="40" height="50" fill="green" stroke="black" stroke-width="0.5" />
<rect x="720" y="200" width="40" height="50" fill="green" stroke="black" stroke-width="0.5" />
<rect x="760" y="200" width="40" height="50" fill="green" stroke="black" stroke-width="0.5" />
<rect x="800" y="200" width="40" height="50" fill="green" stroke="black" stroke-width="0.5" />
<rect x="840" y="200" width="40" height="50" fill="green" stroke="black" stroke-width="0.5" />
<rect x="880" y="200" width="40" height="50" fill="green" stroke="black" stroke-width="0.5" />
<rect x="920" y="200" width="40" height="50" fill="green" stroke="black" stroke-width="0.5" />
<rect x="120" y="250" width="40" height="50" fill="green" stroke="black" stroke-width="0.5" />
<rect x="160" y="250" width="40" height="50" fill="green" stroke="black" stroke-width="0.5" />
<rect x="200" y="250" width="40" height="50" fill="green" stroke="black" stroke-width="0.5" />
<rect x="240" y="250" width="40" height="50" fill="green" stroke="black" stroke-width="0.5" />
<rect x="280" y="250" width="40" height="50" fill="green" stroke="black" stroke-width="0.5" />
<rect x="320" y="250" width="40" height="50" fill="green" stroke="black" stroke-width="0.5" />
<rect x="360" y="250" width="40" height="50" fill="green" stroke="black" stroke-width="0.5" />
<rect x="400" y="250" width="40" height="50" fill="green" stroke="black" stroke-width="0.5" />
<rect x="440" y="250" width="40" height="50" fill="green" stroke="black" stroke-width="0.5" />
<rect x="480" y="250" width="40" height="50" fill="green" stroke="black" stroke-width="0.5" />
<rect x="520" y="250" width="40" height="50" fill="green" stroke="black" stroke-width="0.5" />
<rect x="560" y="250" width="40" height="50" fill="green" stroke="black" stroke-width="0.5" />
<rect x="600" y="250" width="40" height="50" fill="green" stroke="black" stroke-width="0.5" />
<rect x="640" y="250" width="40" height="50" fill="green" stroke="black" stroke-width="0.5" />
<rect x="680" y="250" width="40" height="50" fill="green" stroke="black" stroke-width="0.5" />
<rect x="720" y="250" width="40" height="50" fill="green" stroke="black" stroke-width="0.5" />
<rect x="760" y="250" width="40" height="50" fill="green" stroke="black" stroke-width="0.5" />
<rect x="800" y="250" width="40" height="50" fill="green" stroke="black" stroke-width="0.5" />
<rect x="840" y="250" width="40" height="50" fill="green" stroke="black" stroke-width="0.5" />
<rect x="880" y="250" width="40" height="50" fill="green" stroke="black" stroke-width="0.5" />
<rect x="920" y="250" width="40" height="50" fill="green" stroke="black" stroke-width="0.5" />
<rect x="960" y="250" width="40" height="50" fill="green" stroke="black" stroke-width="0.5" />
<rect x="80" y="300" width="40" height="50" fill="green" stroke="black" stroke-width="0.5" />
<rect x="120" y="300" width="40" height="50" fill="green" stroke="black" stroke-width="0.5" />
<rect x="160" y="300" width="40" height="50" fill="green" stroke="black" stroke-width="0.5" />
<rect x="200" y="300" width="40" height="50" fill="green" stroke="black" stroke-width="0.5" />
<rect x="240" y="300" width="40" height="50" fill="green" stroke="black" stroke-width="0.5" />
<rect x="280" y="300" width="40" height="50" fill="green" stroke="black" stroke-width="0.5" />
<rect x="320" y="300" width="40" height="50" fill="green" stroke="black" stroke-width="0.5" />
<rect x="360" y="300" width="40" height="50" fill="green" stroke="black" stroke-width="0.5" />
<rect x="400" y="300" width="40" height="50" fill="green" stroke="black" stroke-width="0.5" />
<rect x="440" y="300" width="40" height="50" fill="green" stroke="black" stroke-width="0.5" />
<rect x="480" y="300" width="40" height="50" fill="green" stroke="black" stroke-width="0.5" />
<rect x="520" y="300" width="40" height="50" fill="green" stroke="black" stroke-width="0.5" />
<rect x="560" y="300" width="40" height="50" fill="green" stroke="black" stroke-width="0.5" />
<rect x="600" y="300" width="40" height="50" fill="green" stroke="black" stroke-width="0.5" />
<rect x="640" y="300" width="40" height="50" fill="green" stroke="black" stroke-width="0.5" />
<rect x="680" y="300" width="40" height="50" fill="green" stroke="black" stroke-width="0.5" />
<rect x="720" y="300" width="40" height="50" fill="green" stroke="black" stroke-width="0.5" />
<rect x="760" y="300" width="40" height="50" fill="green" stroke="black" stroke-width="0.5" />
<rect x="800" y="300" width="40" height="50" fill="green" stroke="black" stroke-width="0.5" />
<rect x="840" y="300" width="40" height="50" fill="green" stroke="black" stroke-width="0.5" />
<rect x="880" y="300" width="40" height="50" fill="green" stroke="black" stroke-width="0.5" />
<rect x="920" y="300" width="40" height="50" fill="green" stroke="black" stroke-width="0.5" />
<rect x="960" y="300" width="40" height="50" fill="green" stroke="black" stroke-width="0.5" />
<rect x="1000" y="300" width="40" height="50" fill="green" stroke="black" stroke-width="0.5" />
<rect x="40" y="350" width="40" height="50" fill="green" stroke="black" stroke-width="0.5" />
<rect x="80" y="350" width="40" height="50" fill="green" stroke="black" stroke-width="0.5" />
<rect x="120" y="350" width="40" height="50" fill="green" stroke="black" stroke-width="0.5" />
<rect x="160" y="350" width="40" height="50" fill="green" stroke="black" stroke-width="0.5" />
<rect x="200" y="350" width="40" height="50" fill="green" stroke="black" stroke-width="0.5" />
<rect x="240" y="350" width="40" height="50" fill="green" stroke="black" stroke-width="0.5" />
<rect x="280" y="350" width="40" height="50" fill="green" stroke="black" stroke-width="0.5" />
<rect x="320" y="350" width="40" height="50" fill="green" stroke="black" stroke-width="0.5" />
<rect x="360" y="350" width="40" height="50" fill="green" stroke="black" stroke-width="0.5" />
<rect x="400" y="350" width="40" height="50" fill="green" stroke="black" stroke-width="0.5" />
<rect x="440" y="350" width="40" height="50" fill="green" stroke="black" stroke-width="0.5" />
<rect x="480" y="350" width="40" height="50" fill="green" stroke="black" stroke-width="0.5" />
<rect x="520" y="350" width="40" height="50" fill="green" stroke="black" stroke-width="0.5" />
<rect x="560" y="350" width="40" height="50" fill="green" stroke="black" stroke-width="0.5" />
<rect x="600" y="350" width="40" height="50" fill="green" stroke="black" stroke-width="0.5" />
<rect x="640" y="350" width="40" height="50" fill="green" stroke="black" stroke-width="0.5" />
<rect x="680" y="350" width="40" height="50" fill="green" stroke="black" stroke-width="0.5" />
<rect x="720" y="350" width="40" height="50" fill="green" stroke="black" stroke-width="0.5" />
<rect x="760" y="350" width="40" height="50" fill="green" stroke="black" stroke-width="0.5" />
<rect x="800" y="350" width="40" height="50" fill="green" stroke="black" stroke-width="0.5" />
<rect x="840" y="350" width="40" height="50" fill="green" stroke="black" stroke-width="0.5" />
<rect x="880" y="350" width="40" height="50" fill="green" stroke="black" stroke-width="0.5" />
<rect x="920" y="350" width="40" height="50" fill="green" stroke="black" stroke-width="0.5" />
<rect x="960" y="350" width="40" height="50" fill="green" stroke="black" stroke-width="0.5" />
<rect x="1000" y="350" width="40" height="50" fill="green" stroke="black" stroke-width="0.5" />
<rect x="40" y="400" width="40" height="50" fill="green" stroke="black" stroke-width="0.5" />
<rect x="80" y="400" width="40" height="50" fill="green" stroke="black" stroke-width="0.5" />
<rect x="120" y="400" width="40" height="50" fill="green" stroke="black" stroke-width="0.5" />
<rect x="160" y="400" width="40" height="50" fill="green" stroke="black" stroke-width="0.5" />
<rect x="200" y="400" width="40" height="50" fill="green" stroke="black" stroke-width="0.5" />
<rect x="240" y="400" width="40" height="50" fill="green" stroke="black" stroke-width="0.5" />
<rect x="280" y="400" width="40" height="50" fill="green" stroke="black" stroke-width="0.5" />
<rect x="320" y="400" width="40" height="50" fill="green" stroke="black" stroke-width="0.5" />
<rect x="360" y="400" width="40" height="50" fill="green" stroke="black" stroke-width="0.5" />
<rect x="400" y="400" width="40" height="50" fill="green" stroke="black" stroke-width="0.5" />
<rect x="440" y="400" width="40" height="50" fill="green" stroke="black" stroke-width="0.5" />
<rect x="480" y="400" width="40" height="50" fill="green" stroke="black" stroke-width="0.5" />
<rect x="520" y="400" width="40" height="50" fill="green" stroke="black" stroke-width="0.5" />
<rect x="560" y="400" width="40" height="50" fill="green" stroke="black" stroke-width="0.5" />
<rect x="600" y="400" width="40" height="50" fill="green" stroke="black" stroke-width="0.5" />
<rect x="640" y="400" width="40" height="50" fill="green" stroke="black" stroke-width="0.5" />
<rect x="680" y="400" width="40" height="50" fill="green" stroke="black" stroke-width="0.5" />
<rect x="720" y="400" width="40" height="50" fill="green" stroke="black" stroke-width="0.5" />
<rect x="760" y="400" width="40" height="50" fill="green" stroke="black" stroke-width="0.5" />
<rect x="800" y="400" width="40" height="50" fill="green" stroke="black" stroke-width="0.5" />
<rect x="840" y="400" width="40" height="50" fill="green" stroke="black" stroke-width="0.5" />
<rect x="880" y="400" width="40" height="50" fill="green" stroke="black" stroke-width="0.5" />
<rect x="920" y="400" width="40" height="50" fill="green" stroke="black" stroke-width="0.5" />
<rect x="960" y="400" width="40" height="50" fill="green" stroke="black" stroke-width="0.5" />
<rect x="1000" y="400" width="40" height="50" fill="green" stroke="black" stroke-width="0.5" />
<rect x="1040" y="400" width="40" height="50" fill="green" stroke="black" stroke-width="0.5" />
<rect x="40" y="450" width="40" height="50" fill="green" stroke="black" stroke-width="0.5" />
<rect x="80" y="450" width="40" height="50" fill="green" stroke="black" stroke-width="0.5" />
<rect x="120" y="450" width="40" height="50" fill="green" stroke="black" stroke-width="0.5" />
<rect x="160" y="450" width="40" height="50" fill="green" stroke="black" stroke-width="0.5" />
<rect x="200" y="450" width="40" height="50" fill="green" stroke="black" stroke-width="0.5" />
<rect x="240" y="450" width="40" height="50" fill="green" stroke="black" stroke-width="0.5" />
<rect x="280" y="450" width="40" height="50" fill="green" stroke="black" stroke-width="0.5" />
<rect x="320" y="450" width="40" height="50" fill="green" stroke="black" stroke-width="0.5" />
<rect x="360" y="450" width="40" height="50" fill="green" stroke="black" stroke-width="0.5" />
<rect x="400" y="450" width="40" height="50" fill="green" stroke="black" stroke-width="0.5" />
<rect x="440" y="450" width="40" height="50" fill="green" stroke="black" stroke-width="0.5" />
<rect x="480" y="450" width="40" height="50" fill="green" stroke="black" stroke-width="0.5" />
<rect x="520" y="450" width="40" height="50" fill="green" stroke="black" stroke-width="0.5" />
<rect x="560" y="450" width="40" height="50" fill="green" stroke="black" stroke-width="0.5" />
<rect x="600" y="450" width="40" height="50" fill="green" stroke="black" stroke-width="0.5" />
<rect x="640" y="450" width="40" height="50" fill="green" stroke="black" stroke-width="0.5" />
<rect x="680" y="450" width="40" height="50" fill="green" stroke="black" stroke-width="0.5" />
<rect x="720" y="450" width="40" height="50" fill="green" stroke="black" stroke-width="0.5" />
<rect x="760" y="450" width="40" height="50" fill="green" stroke="black" stroke-width="0.5" />
<rect x="800" y="450" width="40" height="50" fill="green" stroke="black" stroke-width="0.5" />
<rect x="840" y="450" width="40" height="50" fill="green" stroke="black" stroke-width="0.5" />
<rect x="880" y="450" width="40" height="50" fill="green" stroke="black" stroke-width="0.5" />
<rect x="920" y="450" width="40" height="50" fill="green" stroke="black" stroke-width="0.5" />
<rect x="960" y="450" width="40" height="50" fill="green" stroke="black" stroke-width="0.5" />
<rect x="1000" y="450" width="40" height="50" fill="green" stroke="black" stroke-width="0.5" />
<rect x="1040" y="450" width="40" height="50" fill="green" stroke="black" stroke-width="0.5" />
<rect x="40" y="500" width="40" height="50" fill="green" stroke="black" stroke-width="0.5" />
<rect x="80" y="500" width="40" height="50" fill="green" stroke="black" stroke-width="0.5" />
<rect x="120" y="500" width="40" height="50" fill="green" stroke="black" stroke-width="0.5" />
<rect x="160" y="500" width="40" height="50" fill="green" stroke="black" stroke-width="0.5" />
<rect x="200" y="500" width="40" height="50" fill="green" stroke="black" stroke-width="0.5" />
<rect x="240" y="500" width="40" height="50" fill="green" stroke="black" stroke-width="0.5" />
<rect x="280" y="500" width="40" height="50" fill="green" stroke="black" stroke-width="0.5" />
<rect x="320" y="500" width="40" height="50" fill="green" stroke="black" stroke-width="0.5" />
<rect x="360" y="500" width="40" height="50" fill="green" stroke="black" stroke-width="0.5" />
<rect x="400" y="500" width="40" height="50" fill="green" stroke="black" stroke-width="0.5" />
<rect x="440" y="500" width="40" height="50" fill="green" stroke="black" stroke-width="0.5" />
<rect x="480" y="500" width="40" height="50" fill="green" stroke="black" stroke-width="0.5" />
<rect x="520" y="500" width="40" height="50" fill="green" stroke="black" stroke-width="0.5" />
<rect x="560" y="500" width="40" height="50" fill="green" stroke="black" stroke-width="0.5" />
<rect x="600" y="500" width="40" height="50" fill="green" stroke="black" stroke-width="0.5" />
<rect x="640" y="500" width="40" height="50" fill="green" stroke="black" stroke-width="0.5" />
<rect x="680" y="500" width="40" height="50" fill="green" stroke="black" stroke-width="0.5" />
<rect x="720" y="500" width="40" height="50" fill="green" stroke="black" stroke-width="0.5" />
<rect x="760" y="500" width="40" height="50" fill="green" stroke="black" stroke-width="0.5" />
<rect x="800" y="500" width="40" height="50" fill="green" stroke="black" stroke-width="0.5" />
<rect x="840" y="500" width="40" height="50" fill="green" stroke="black" stroke-width="0.5" />
<rect x="880" y="500" width="40" height="50" fill="green" stroke="black" stroke-width="0.5" />
<rect x="920" y="500" width="40" height="50" fill="green" stroke="black" stroke-width="0.5" />
<rect x="960" y="500" width="40" height="50" fill="green" stroke="black" stroke-width="0.5" />
<rect x="1000" y="500" width="40" height="50" fill="green" stroke="black" stroke-width="0.5" />
<rect x="1040" y="500" width="40" height="50" fill="green" stroke="black" stroke-width="0.5" />
<rect x="40" y="550" width="40" height="50" fill="green" stroke="black" stroke-width="0.5" />
<rect x="80" y="550" width="40" height="50" fill="green" stroke="black" stroke-width="0.5" />
<rect x="120" y="550" width="40" height="50" fill="green" stroke="black" stroke-width="0.5" />
<rect x="160" y="550" width="40" height="50" fill="green" stroke="black" stroke-width="0.5" />
<rect x="200" y="550" width="40" height="50" fill="green" stroke="black" stroke-width="0.5" />
<rect x="240" y="550" width="40" height="50" fill="green" stroke="black" stroke-width="0.5" />
<rect x="280" y="550" width="40" height="50" fill="green" stroke="black" stroke-width="0.5" />
<rect x="320" y="550" width="40" height="50" fill="green" stroke="black" stroke-width="0.5" />
<rect x="360" y="550" width="40" height="50" fill="green" stroke="black" stroke-width="0.5" />
<rect x="400" y="550" width="40" height="50" fill="green" stroke="black" stroke-width="0.5" />
<rect x="440" y="550" width="40" height="50" fill="green" stroke="black" stroke-width="0.5" />
<rect x="480" y="550" width="40" height="50" fill="green" stroke="black" stroke-width="0.5" />
<rect x="520" y="550" width="40" height="50" fill="green" stroke="black" stroke-width="0.5" />
<rect x="560" y="550" width="40" height="50" fill="green" stroke="black" stroke-width="0.5" />
<rect x="600" y="550" width="40" height="50" fill="green" stroke="black" stroke-width="0.5" />
<rect x="640" y="550" width="40" height="50" fill="green" stroke="black" stroke-width="0.5" />
<rect x="680" y="550" width="40" height="50" fill="green" stroke="black" stroke-width="0.5" />
<rect x="720" y="550" width="40" height="50" fill="green" stroke="black" stroke-width="0.5" />
<rect x="760" y="550" width="40" height="50" fill="green" stroke="black" stroke-width="0.5" />
<rect x="800" y="550" width="40" height="50" fill="green" stroke="black" stroke-width="0.5" />
<rect x="840" y="550" width="40" height="50" fill="green" stroke="black" stroke-width="0.5" />
<rect x="880" y="550" width="40" height="50" fill="green" stroke="black" stroke-width="0.5" />
<rect x="920" y="550" width="40" height="50" fill="green" stroke="black" stroke-width="0.5" />
<rect x="960" y="550" width="40" height="50" fill="green" stroke="black" stroke-width="0.5" />
<rect x="1000" y="550" width="40" height="50" fill="green" stroke="black" stroke-width="0.5" />
<rect x="1040" y="550" width="40" height="50" fill="green" stroke="black" stroke-width="0.5" />
<rect x="40" y="600" width="40" height="50" fill="green" stroke="black" stroke-width="0.5" />
<rect x="80" y="600" width="40" height="50" fill="green" stroke="black" stroke-width="0.5" />
<rect x="120" y="600" width="40" height="50" fill="green" stroke="black" stroke-width="0.5" />
<rect x="160" y="600" width="40" height="50" fill="green" stroke="black" stroke-width="0.5" />
<rect x="200" y="600" width="40" height="50" fill="green" stroke="black" stroke-width="0.5" />
<rect x="240" y="600" width="40" height="50" fill="green" stroke="black" stroke-width="0.5" />
<rect x="280" y="600" width="40" height="50" fill="green" stroke="black" stroke-width="0.5" />
<rect x="320" y="600" width="40" height="50" fill="green" stroke="black" stroke-width="0.5" />
<rect x="360" y="600" width="40" height="50" fill="green" stroke="black" stroke-width="0.5" />
<rect x="400" y="600" width="40" height="50" fill="green" stroke="black" stroke-width="0.5" />
<rect x="440" y="600" width="40" height="50" fill="green" stroke="black" stroke-width="0.5" />
<rect x="480" y="600" width="40" height="50" fill="green" stroke="black" stroke-width="0.5" />
<rect x="520" y="600" width="40" height="50" fill="green" stroke="black" stroke-width="0.5" />
<rect x="560" y="600" width="40" height="50" fill="green" stroke="black" stroke-width="0.5" />
<rect x="600" y="600" width="40" height="50" fill="green" stroke="black" stroke-width="0.5" />
<rect x="640" y="600" width="40" height="50" fill="green" stroke="black" stroke-width="0.5" />
<rect x="680" y="600" width="40" height="50" fill="green" stroke="black" stroke-width="0.5" />
<rect x="720" y="600" width="40" height="50" fill="green" stroke="black" stroke-width="0.5" />
<rect x="760" y="600" width="40" height="50" fill="green" stroke="black" stroke-width="0.5" />
<rect x="800" y="600" width="40" height="50" fill="green" stroke="black" stroke-width="0.5" />
<rect x="840" y="600" width="40" height="50" fill="green" stroke="black" stroke-width="0.5" />
<rect x="880" y="600" width="40" height="50" fill="green" stroke="black" stroke-width="0.5" />
<rect x="920" y="600" width="40" height="50" fill="green" stroke="black" stroke-width="0.5" />
<rect x="960" y="600" width="40" height="50" fill="green" stroke="black" stroke-width="0.5" />
<rect x="1000" y="600" width="40" height="50" fill="green" stroke="black" stroke-width="0.5" />
<rect x="1040" y="600" width="40" height="50" fill="green" stroke="black" stroke-width="0.5" />
<rect x="40" y="650" width="40" height="50" fill="green" stroke="black" stroke-width="0.5" />
<rect x="80" y="650" width="40" height="50" fill="green" stroke="black" stroke-width="0.5" />
<rect x="120" y="650" width="40" height="50" fill="green" stroke="black" stroke-width="0.5" />
<rect x="160" y="650" width="40" height="50" fill="green" stroke="black" stroke-width="0.5" />
<rect x="200" y="650" width="40" height="50" fill="green" stroke="black" stroke-width="0.5" />
<rect x="240" y="650" width="40" height="50" fill="green" stroke="black" stroke-width="0.5" />
<rect x="280" y="650" width="40" height="50" fill="green" stroke="black" stroke-width="0.5" />
<rect x="320" y="650" width="40" height="50" fill="green" stroke="black" stroke-width="0.5" />
<rect x="360" y="650" width="40" height="50" fill="green" stroke="black" stroke-width="0.5" />
<rect x="400" y="650" width="40" height="50" fill="green" stroke="black" stroke-width="0.5" />
<rect x="440" y="650" width="40" height="50" fill="green" stroke="black" stroke-width="0.5" />
<rect x="480" y="650" width="40" height="50" fill="green" stroke="black" stroke-width="0.5" />
<rect x="520" y="650" width="40" height="50" fill="green" stroke="black" stroke-width="0.5" />
<rect x="560" y="650" width="40" height="50" fill="green" stroke="black" stroke-width="0.5" />
<rect x="600" y="650" width="40" height="50" fill="green" stroke="black" stroke-width="0.5" />
<rect x="640" y="650" width="40" height="50" fill="green" stroke="black" stroke-width="0.5" />
<rect x="680" y="650" width="40" height="50" fill="green" stroke="black" stroke-width="0.5" />
<rect x="720" y="650" width="40" height="50" fill="green" stroke="black" stroke-width="0.5" />
<rect x="760" y="650" width="40" height="50" fill="green" stroke="black" stroke-width="0.5" />
<rect x="800" y="650" width="40" height="50" fill="green" stroke="black" stroke-width="0.5" />
<rect x="840" y="650" width="40" height="50" fill="green" stroke="black" stroke-width="0.5" />
<rect x="880" y="650" width="40" height="50" fill="green" stroke="black" stroke-width="0.5" />
<rect x="920" y="650" width="40" height="50" fill="green" stroke="black" stroke-width="0.5" />
<rect x="960" y="650" width="40" height="50" fill="green" stroke="black" stroke-width="0.5" />
<rect x="1000" y="650" width="40" height="50" fill="green" stroke="black" stroke-width="0.5" />
<rect x="1040" y="650" width="40" height="50" fill="green" stroke="black" stroke-width="0.5" />
<rect x="40" y="700" width="40" height="50" fill="green" stroke="black" stroke-width="0.5" />
<rect x="80" y="700" width="40" height="50" fill="green" stroke="black" stroke-width="0.5" />
<rect x="120" y="700" width="40" height="50" fill="green" stroke="black" stroke-width="0.5" />
<rect x="160" y="700" width="40" height="50" fill="green" stroke="black" stroke-width="0.5" />
<rect x="200" y="700" width="40" height="50" fill="green" stroke="black" stroke-width="0.5" />
<rect x="240" y="700" width="40" height="50" fill="green" stroke="black" stroke-width="0.5" />
<rect x="280" y="700" width="40" height="50" fill="green" stroke="black" stroke-width="0.5" />
<rect x="320" y="700" width="40" height="50" fill="green" stroke="black" stroke-width="0.5" />
<rect x="360" y="700" width="40" height="50" fill="green" stroke="black" stroke-width="0.5" />
<rect x="400" y="700" width="40" height="50" fill="green" stroke="black" stroke-width="0.5" />
<rect x="440" y="700" width="40" height="50" fill="green" stroke="black" stroke-width="0.5" />
<rect x="480" y="700" width="40" height="50" fill="green" stroke="black" stroke-width="0.5" />
<rect x="520" y="700" width="40" height="50" fill="green" stroke="black" stroke-width="0.5" />
<rect x="560" y="700" width="40" height="50" fill="green" stroke="black" stroke-width="0.5" />
<rect x="600" y="700" width="40" height="50" fill="green" stroke="black" stroke-width="0.5" />
<rect x="640" y="700" width="40" height="50" fill="green" stroke="black" stroke-width="0.5" />
<rect x="680" y="700" width="40" height="50" fill="green" stroke="black" stroke-width="0.5" />
<rect x="720" y="700" width="40" height="50" fill="green" stroke="black" stroke-width="0.5" />
<rect x="760" y="700" width="40" height="50" fill="green" stroke="black" stroke-width="0.5" />
<rect x="800" y="700" width="40" height="50" fill="green" stroke="black" stroke-width="0.5" />
<rect x="840" y="700" width="40" height="50" fill="green" stroke="black" stroke-width="0.5" />
<rect x="880" y="700" width="40" height="50" fill="green" stroke="black" stroke-width="0.5" />
<rect x="920" y="700" width="40" height="50" fill="green" stroke="black" stroke-width="0.5" />
<rect x="960" y="700" width="40" height="50" fill="green" stroke="black" stroke-width="0.5" />
<rect x="1000" y="700" width="40" height="50" fill="green" stroke="black" stroke-width="0.5" />
<rect x="80" y="750" width="40" height="50" fill="green" stroke="black" stroke-width="0.5" />
<rect x="120" y="750" width="40" height="50" fill="green" stroke="black" stroke-width="0.5" />
<rect x="160" y="750" width="40" height="50" fill="green" stroke="black" stroke-width="0.5" />
<rect x="200" y="750" width="40" height="50" fill="green" stroke="black" stroke-width="0.5" />
<rect x="240" y="750" width="40" height="50" fill="green" stroke="black" stroke-width="0.5" />
<rect x="280" y="750" width="40" height="50" fill="green" stroke="black" stroke-width="0.5" />
<rect x="320" y="750" width="40" height="50" fill="green" stroke="black" stroke-width="0.5" />
<rect x="360" y="750" width="40" height="50" fill="green" stroke="black" stroke-width="0.5" />
<rect x="400" y="750" width="40" height="50" fill="green" stroke="black" stroke-width="0.5" />
<rect x="440" y="750" width="40" height="50" fill="green" stroke="black" stroke-width="0.5" />
<rect x="480" y="750" width="40" height="50" fill="green" stroke="black" stroke-width="0.5" />
<rect x="520" y="750" width="40" height="50" fill="green" stroke="black" stroke-width="0.5" />
<rect x="560" y="750" width="40" height="50" fill="green" stroke="black" stroke-width="0.5" />
<rect x="600" y="750" width="40" height="50" fill="green" stroke="black" stroke-width="0.5" />
<rect x="640" y="750" width="40" height="50" fill="green" stroke="black" stroke-width="0.5" />
<rect x="680" y="750" width="40" height="50" fill="green" stroke="black" stroke-width="0.5" />
<rect x="720" y="750" width="40" height="50" fill="green" stroke="black" stroke-width="0.5" />
<rect x="760" y="750" width="40" height="50" fill="green" stroke="black" stroke-width="0.5" />
<rect x="800" y="750" width="40" height="50" fill="green" stroke="black" stroke-width="0.5" />
<rect x="840" y="750" width="40" height="50" fill="green" stroke="black" stroke-width="0.5" />
<rect x="880" y="750" width="40" height="50" fill="green" stroke="black" stroke-width="0.5" />
<rect x="920" y="750" width="40" height="50" fill="green" stroke="black" stroke-width="0.5" />
<rect x="960" y="750" width="40" height="50" fill="green" stroke="black" stroke-width="0.5" />
<rect x="1000" y="750" width="40" height="50" fill="green" stroke="black" stroke-width="0.5" />
<rect x="120" y="800" width="40" height="50" fill="green" stroke="black" stroke-width="0.5" />
<rect x="160" y="800" width="40" height="50" fill="green" stroke="black" stroke-width="0.5" />
<rect x="200" y="800" width="40" height="50" fill="green" stroke="black" stroke-width="0.5" />
<rect x="240" y="800" width="40" height="50" fill="green" stroke="black" stroke-width="0.5" />
<rect x="280" y="800" width="40" height="50" fill="green" stroke="black" stroke-width="0.5" />
<rect x="320" y="800" width="40" height="50" fill="green" stroke="black" stroke-width="0.5" />
<rect x="360" y="800" width="40" height="50" fill="green" stroke="black" stroke-width="0.5" />
<rect x="400" y="800" width="40" height="50" fill="green" stroke="black" stroke-width="0.5" />
<rect x="440" y="800" width="40" height="50" fill="green" stroke="black" stroke-width="0.5" />
<rect x="480" y="800" width="40" height="50" fill="green" stroke="black" stroke-width="0.5" />
<rect x="520" y="800" width="40" height="50" fill="green" stroke="black" stroke-width="0.5" />
<rect x="560" y="800" width="40" height="50" fill="green" stroke="black" stroke-width="0.5" />
<rect x="600" y="800" width="40" height="50" fill="green" stroke="black" stroke-width="0.5" />
<rect x="640" y="800" width="40" height="50" fill="green" stroke="black" stroke-width="0.5" />
<rect x="680" y="800" width="40" height="50" fill="green" stroke="black" stroke-width="0.5" />
<rect x="720" y="800" width="40" height="50" fill="green" stroke="black" stroke-width="0.5" />
<rect x="760" y="800" width="40" height="50" fill="green" stroke="black" stroke-width="0.5" />
<rect x="800" y="800" width="40" height="50" fill="green" stroke="black" stroke-width="0.5" />
<rect x="840" y="800" width="40" height="50" fill="green" stroke="black" stroke-width="0.5" />
<rect x="880" y="800" width="40" height="50" fill="green" stroke="black" stroke-width="0.5" />
<rect x="920" y="800" width="40" height="50" fill="green" stroke="black" stroke-width="0.5" />
<rect x="960" y="800" width="40" height="50" fill="green" stroke="black" stroke-width="0.5" />
<rect x="160" y="850" width="40" height="50" fill="green" stroke="black" stroke-width="0.5" />
<rect x="200" y="850" width="40" height="50" fill="green" stroke="black" stroke-width="0.5" />
<rect x="240" y="850" width="40" height="50" fill="green" stroke="black" stroke-width="0.5" />
<rect x="280" y="850" width="40" height="50" fill="green" stroke="black" stroke-width="0.5" />
<rect x="320" y="850" width="40" height="50" fill="green" stroke="black" stroke-width="0.5" />
<rect x="360" y="850" width="40" height="50" fill="green" stroke="black" stroke-width="0.5" />
<rect x="400" y="850" width="40" height="50" fill="green" stroke="black" stroke-width="0.5" />
<rect x="440" y="850" width="40" height="50" fill="green" stroke="black" stroke-width="0.5" />
<rect x="480" y="850" width="40" height="50" fill="green" stroke="black" stroke-width="0.5" />
<rect x="520" y="850" width="40" height="50" fill="green" stroke="black" stroke-width="0.5" />
<rect x="560" y="850" width="40" height="50" fill="green" stroke="black" stroke-width="0.5" />
<rect x="600" y="850" width="40" height="50" fill="green" stroke="black" stroke-width="0.5" />
<rect x="640" y="850" width="40" height="50" fill="green" stroke="black" stroke-width="0.5" />
<rect x="680" y="850" width="40" height="50" fill="green" stroke="black" stroke-width="0.5" />
<rect x="720" y="850" width="40" height="50" fill="green" stroke="black" stroke-width="0.5" />
<rect x="760" y="850" width="40" height="50" fill="green" stroke="black" stroke-width="0.5" />
<rect x="800" y="850" width="40" height="50" fill="green" stroke="black" stroke-width="0.5" />
<rect x="840" y="850" width="40" height="50" fill="green" stroke="black" stroke-width="0.5" />
<rect x="880" y="850" width="40" height="50" fill="green" stroke="black" stroke-width="0.5" />
<rect x="920" y="850" width="40" height="50" fill="green" stroke="black" stroke-width="0.5" />
<rect x="200" y="900" width="40" height="50" fill="green" stroke="black" stroke-width="0.5" />
<rect x="240" y="900" width="40" height="50" fill="green" stroke="black" stroke-width="0.5" />
<rect x="280" y="900" width="40" height="50" fill="green" stroke="black" stroke-width="0.5" />
<rect x="320" y="900" width="40" height="50" fill="green" stroke="black" stroke-width="0.5" />
<rect x="360" y="900" width="40" height="50" fill="green" stroke="black" stroke-width="0.5" />
<rect x="400" y="900" width="40" height="50" fill="green" stroke="black" stroke-width="0.5" />
<rect x="440" y="900" width="40" height="50" fill="green" stroke="black" stroke-width="0.5" />
<rect x="480" y="900" width="40" height="50" fill="green" stroke="black" stroke-width="0.5" />
<rect x="520" y="900" width="40" height="50" fill="green" stroke="black" stroke-width="0.5" />
<rect x="560" y="900" width="40" height="50" fill="green" stroke="black" stroke-width="0.5" />
<rect x="600" y="900" width="40" height="50" fill="green" stroke="black" stroke-width="0.5" />
<rect x="640" y="900" width="40" height="50" fill="green" stroke="black" stroke-width="0.5" />
<rect x="680" y="900" width="40" height="50" fill="green" stroke="black" stroke-width="0.5" />
<rect x="720" y="900" width="40" height="50" fill="green" stroke="black" stroke-width="0.5" />
<rect x="760" y="900" width="40" height="50" fill="green" stroke="black" stroke-width="0.5" />
<rect x="800" y="900" width="40" height="50" fill="green" stroke="black" stroke-width="0.5" />
<rect x="840" y="900" width="40" height="50" fill="green" stroke="black" stroke-width="0.5" />
<rect x="880" y="900" width="40" height="50" fill="green" stroke="black" stroke-width="0.5" />
<rect x="240" y="950" width="40" height="50" fill="green" stroke="black" stroke-width="0.5" />
<rect x="280" y="950" width="40" height="50" fill="green" stroke="black" stroke-width="0.5" />
<rect x="320" y="950" width="40" height="50" fill="green" stroke="black" stroke-width="0.5" />
<rect x="360" y="950" width="40" height="50" fill="green" stroke="black" stroke-width="0.5" />
<rect x="400" y="950" width="40" height="50" fill="green" stroke="black" stroke-width="0.5" />
<rect x="440" y="950" width="40" height="50" fill="green" stroke="black" stroke-width="0.5" />
<rect x="480" y="950" width="40" height="50" fill="green" stroke="black" stroke-width="0.5" />
<rect x="520" y="950" width="40" height="50" fill="green" stroke="black" stroke-width="0.5" />
<rect x="560" y="950" width="40" height="50" fill="green" stroke="black" stroke-width="0.5" />
<rect x="600" y="950" width="40" height="50" fill="green" stroke="black" stroke-width="0.5" />
<rect x="640" y="950" width="40" height="50" fill="green" stroke="black" stroke-width="0.5" />
<rect x="680" y="950" width="40" height="50" fill="green" stroke="black" stroke-width="0.5" />
<rect x="720" y="950" width="40" height="50" fill="green" stroke="black" stroke-width="0.5" />
<rect x="760" y="950" width="40" height="50" fill="green" stroke="black" stroke-width="0.5" />
<rect x="800" y="950" width="40" height="50" fill="green" stroke="black" stroke-width="0.5" />
<rect x="840" y="950" width="40" height="50" fill="green" stroke="black" stroke-width="0.5" />
<rect x="320" y="1000" width="40" height="50" fill="green" stroke="black" stroke-width="0.5" />
<rect x="360" y="1000" width="40" height="50" fill="green" stroke="black" stroke-width="0.5" />
<rect x="400" y="1000" width="40" height="50" fill="green" stroke="black" stroke-width="0.5" />
<rect x="440" y="1000" width="40" height="50" fill="green" stroke="black" stroke-width="0.5" />
<rect x="480" y="1000" width="40" height="50" fill="green" stroke="black" stroke-width="0.5" />
<rect x="520" y="1000" width="40" height="50" fill="green" stroke="black" stroke-width="0.5" />
<rect x="560" y="1000" width="40" height="50" fill="green" stroke="black" stroke-width="0.5" />
<rect x="600" y="1000" width="40" height="50" fill="green" stroke="black" stroke-width="0.5" />
<rect x="640" y="1000" width="40" height="50" fill="green" stroke="black" stroke-width="0.5" />
<rect x="680" y="1000" width="40" height="50" fill="green" stroke="black" stroke-width="0.5" />
<rect x="720" y="1000" width="40" height="50" fill="green" stroke="black" stroke-width="0.5" />
<rect x="760" y="1000" width="40" height="50" fill="green" stroke="black" stroke-width="0.5" />
<rect x="480" y="1050" width="40" height="50" fill="green" stroke="black" stroke-width="0.5" />
<rect x="520" y="1050" width="40" height="50" fill="green" stroke="black" stroke-width="0.5" />
<rect x="560" y="1050" width="40" height="50" fill="green" stroke="black" stroke-width="0.5" />
<rect x="600" y="1050" width="40" height="50" fill="green" stroke="black" stroke-width="0.5" />
</svg>