<svg version="1.1" xmlns="http://www.w3.org/2000/svg"> 
 <polygon points="0 618.342 357 0 715 618.342" fill="red" />
<rect x="25" y="574" width="95" height="45" fill="green" stroke="black" stroke-width="0.5" />
<rect x="120" y="574" width="95" height="45" fill="green" stroke="black" stroke-width="0.5" />
<rect x="215" y="574" width="95" height="45" fill="green" stroke="black" stroke-width="0.5" />
<rect x="310" y="574" width="95" height="45" fill="green" stroke="black" stroke-width="0.5" />
<rect x="405" y="574" width="95" height="45" fill="green" stroke="black" stroke-width="0.5" />
<rect x="500" y="574" width="95" height="45" fill="green" stroke="black" stroke-width="0.5" />
<rect x="51" y="529" width="95" height="45" fill="green" stroke="black" stroke-width="0.5" />
<rect x="146" y="529" width="95" height="45" fill="green" stroke="black" stroke-width="0.5" />
<rect x="241" y="529" width="95" height="45" fill="green" stroke="black" stroke-width="0.5" />
<rect x="336" y="529" width="95" height="45" fill="green" stroke="black" stroke-width="0.5" />
<rect x="431" y="529" width="95" height="45" fill="green" stroke="black" stroke-width="0.5" />
<rect x="526" y="529" width="95" height="45" fill="green" stroke="black" stroke-width="0.5" />
<rect x="77" y="484" width="95" height="45" fill="green" stroke="black" stroke-width="0.5" />
<rect x="172" y="484" width="95" height="45" fill="green" stroke="black" stroke-width="0.5" />
<rect x="267" y="484" width="95" height="45" fill="green" stroke="black" stroke-width="0.5" />
<rect x="362" y="484" width="95" height="45" fill="green" stroke="black" stroke-width="0.5" />
<rect x="457" y="484" width="95" height="45" fill="green" stroke="black" stroke-width="0.5" />
<rect x="103" y="439" width="95" height="45" fill="green" stroke="black" stroke-width="0.5" />
<rect x="198" y="439" width="95" height="45" fill="green" stroke="black" stroke-width="0.5" />
<rect x="293" y="439" width="95" height="45" fill="green" stroke="black" stroke-width="0.5" />
<rect x="388" y="439" width="95" height="45" fill="green" stroke="black" stroke-width="0.5" />
<rect x="483" y="439" width="95" height="45" fill="green" stroke="black" stroke-width="0.5" />
<rect x="129" y="394" width="95" height="45" fill="green" stroke="black" stroke-width="0.5" />
<rect x="224" y="394" width="95" height="45" fill="green" stroke="black" stroke-width="0.5" />
<rect x="319" y="394" width="95" height="45" fill="green" stroke="black" stroke-width="0.5" />
<rect x="414" y="394" width="95" height="45" fill="green" stroke="black" stroke-width="0.5" />
<rect x="155" y="349" width="95" height="45" fill="green" stroke="black" stroke-width="0.5" />
<rect x="250" y="349" width="95" height="45" fill="green" stroke="black" stroke-width="0.5" />
<rect x="345" y="349" width="95" height="45" fill="green" stroke="black" stroke-width="0.5" />
<rect x="440" y="349" width="95" height="45" fill="green" stroke="black" stroke-width="0.5" />
<rect x="181" y="304" width="95" height="45" fill="green" stroke="black" stroke-width="0.5" />
<rect x="276" y="304" width="95" height="45" fill="green" stroke="black" stroke-width="0.5" />
<rect x="371" y="304" width="95" height="45" fill="green" stroke="black" stroke-width="0.5" />
<rect x="207" y="259" width="95" height="45" fill="green" stroke="black" stroke-width="0.5" />
<rect x="302" y="259" width="95" height="45" fill="green" stroke="black" stroke-width="0.5" />
<rect x="397" y="259" width="95" height="45" fill="green" stroke="black" stroke-width="0.5" />
<rect x="233" y="214" width="95" height="45" fill="green" stroke="black" stroke-width="0.5" />
<rect x="328" y="214" width="95" height="45" fill="green" stroke="black" stroke-width="0.5" />
<rect x="259" y="169" width="95" height="45" fill="green" stroke="black" stroke-width="0.5" />
<rect x="354" y="169" width="95" height="45" fill="green" stroke="black" stroke-width="0.5" />
<rect x="285" y="124" width="95" height="45" fill="green" stroke="black" stroke-width="0.5" />
</svg>