<svg version="1.1" xmlns="http://www.w3.org/2000/svg"> 
 <circle cx="555" cy="555" r="555" fill="red"/> 
 <circle cx="375" cy="75" r="25" fill="green" stroke="black" stroke-width="0.5" /> 
 <circle cx="425" cy="75" r="25" fill="green" stroke="black" stroke-width="0.5" /> 
 <circle cx="475" cy="75" r="25" fill="green" stroke="black" stroke-width="0.5" /> 
 <circle cx="525" cy="75" r="25" fill="green" stroke="black" stroke-width="0.5" /> 
 <circle cx="575" cy="75" r="25" fill="green" stroke="black" stroke-width="0.5" /> 
 <circle cx="625" cy="75" r="25" fill="green" stroke="black" stroke-width="0.5" /> 
 <circle cx="675" cy="75" r="25" fill="green" stroke="black" stroke-width="0.5" /> 
 <circle cx="725" cy="75" r="25" fill="green" stroke="black" stroke-width="0.5" /> 
 <circle cx="775" cy="75" r="25" fill="green" stroke="black" stroke-width="0.5" /> 
 <circle cx="275" cy="125" r="25" fill="green" stroke="black" stroke-width="0.5" /> 
 <circle cx="325" cy="125" r="25" fill="green" stroke="black" stroke-width="0.5" /> 
 <circle cx="375" cy="125" r="25" fill="green" stroke="black" stroke-width="0.5" /> 
 <circle cx="425" cy="125" r="25" fill="green" stroke="black" stroke-width="0.5" /> 
 <circle cx="475" cy="125" r="25" fill="green" stroke="black" stroke-width="0.5" /> 
 <circle cx="525" cy="125" r="25" fill="green" stroke="black" stroke-width="0.5" /> 
 <circle cx="575" cy="125" r="25" fill="green" stroke="black" stroke-width="0.5" /> 
 <circle cx="625" cy="125" r="25" fill="green" stroke="black" stroke-width="0.5" /> 
 <circle cx="675" cy="125" r="25" fill="green" stroke="black" stroke-width="0.5" /> 
 <circle cx="725" cy="125" r="25" fill="green" stroke="black" stroke-width="0.5" /> 
 <circle cx="775" cy="125" r="25" fill="green" stroke="black" stroke-width="0.5" /> 
 <circle cx="825" cy="125" r="25" fill="green" stroke="black" stroke-width="0.5" /> 
 <circle cx="225" cy="175" r="25" fill="green" stroke="black" stroke-width="0.5" /> 
 <circle cx="275" cy="175" r="25" fill="green" stroke="black" stroke-width="0.5" /> 
 <circle cx="325" cy="175" r="25" fill="green" stroke="black" stroke-width="0.5" /> 
 <circle cx="375" cy="175" r="25" fill="green" stroke="black" stroke-width="0.5" /> 
 <circle cx="425" cy="175" r="25" fill="green" stroke="black" stroke-width="0.5" /> 
 <circle cx="475" cy="175" r="25" fill="green" stroke="black" stroke-width="0.5" /> 
 <circle cx="525" cy="175" r="25" fill="green" stroke="black" stroke-width="0.5" /> 
 <circle cx="575" cy="175" r="25" fill="green" stroke="black" stroke-width="0.5" /> 
 <circle cx="625" cy="175" r="25" fill="green" stroke="black" stroke-width="0.5" /> 
 <circle cx="675" cy="175" r="25" fill="green" stroke="black" stroke-width="0.5" /> 
 <circle cx="725" cy="175" r="25" fill="green" stroke="black" stroke-width="0.5" /> 
 <circle cx="775" cy="175" r="25" fill="green" stroke="black" stroke-width="0.5" /> 
 <circle cx="825" cy="175" r="25" fill="green" stroke="black" stroke-width="0.5" /> 
 <circle cx="875" cy="175" r="25" fill="green" stroke="black" stroke-width="0.5" /> 
 <circle cx="175" cy="225" r="25" fill="green" stroke="black" stroke-width="0.5" /> 
 <circle cx="225" cy="225" r="25" fill="green" stroke="black" stroke-width="0.5" /> 
 <circle cx="275" cy="225" r="25" fill="green" stroke="black" stroke-width="0.5" /> 
 <circle cx="325" cy="225" r="25" fill="green" stroke="black" stroke-width="0.5" /> 
 <circle cx="375" cy="225" r="25" fill="green" stroke="black" stroke-width="0.5" /> 
 <circle cx="425" cy="225" r="25" fill="green" stroke="black" stroke-width="0.5" /> 
 <circle cx="475" cy="225" r="25" fill="green" stroke="black" stroke-width="0.5" /> 
 <circle cx="525" cy="225" r="25" fill="green" stroke="black" stroke-width="0.5" /> 
 <circle cx="575" cy="225" r="25" fill="green" stroke="black" stroke-width="0.5" /> 
 <circle cx="625" cy="225" r="25" fill="green" stroke="black" stroke-width="0.5" /> 
 <circle cx="675" cy="225" r="25" fill="green" stroke="black" stroke-width="0.5" /> 
 <circle cx="725" cy="225" r="25" fill="green" stroke="black" stroke-width="0.5" /> 
 <circle cx="775" cy="225" r="25" fill="green" stroke="black" stroke-width="0.5" /> 
 <circle cx="825" cy="225" r="25" fill="green" stroke="black" stroke-width="0.5" /> 
 <circle cx="875" cy="225" r="25" fill="green" stroke="black" stroke-width="0.5" /> 
 <circle cx="925" cy="225" r="25" fill="green" stroke="black" stroke-width="0.5" /> 
 <circle cx="125" cy="275" r="25" fill="green" stroke="black" stroke-width="0.5" /> 
 <circle cx="175" cy="275" r="25" fill="green" stroke="black" stroke-width="0.5" /> 
 <circle cx="225" cy="275" r="25" fill="green" stroke="black" stroke-width="0.5" /> 
 <circle cx="275" cy="275" r="25" fill="green" stroke="black" stroke-width="0.5" /> 
 <circle cx="325" cy="275" r="25" fill="green" stroke="black" stroke-width="0.5" /> 
 <circle cx="375" cy="275" r="25" fill="green" stroke="black" stroke-width="0.5" /> 
 <circle cx="425" cy="275" r="25" fill="green" stroke="black" stroke-width="0.5" /> 
 <circle cx="475" cy="275" r="25" fill="green" stroke="black" stroke-width="0.5" /> 
 <circle cx="525" cy="275" r="25" fill="green" stroke="black" stroke-width="0.5" /> 
 <circle cx="575" cy="275" r="25" fill="green" stroke="black" stroke-width="0.5" /> 
 <circle cx="625" cy="275" r="25" fill="green" stroke="black" stroke-width="0.5" /> 
 <circle cx="675" cy="275" r="25" fill="green" stroke="black" stroke-width="0.5" /> 
 <circle cx="725" cy="275" r="25" fill="green" stroke="black" stroke-width="0.5" /> 
 <circle cx="775" cy="275" r="25" fill="green" stroke="black" stroke-width="0.5" /> 
 <circle cx="825" cy="275" r="25" fill="green" stroke="black" stroke-width="0.5" /> 
 <circle cx="875" cy="275" r="25" fill="green" stroke="black" stroke-width="0.5" /> 
 <circle cx="925" cy="275" r="25" fill="green" stroke="black" stroke-width="0.5" /> 
 <circle cx="975" cy="275" r="25" fill="green" stroke="black" stroke-width="0.5" /> 
 <circle cx="125" cy="325" r="25" fill="green" stroke="black" stroke-width="0.5" /> 
 <circle cx="175" cy="325" r="25" fill="green" stroke="black" stroke-width="0.5" /> 
 <circle cx="225" cy="325" r="25" fill="green" stroke="black" stroke-width="0.5" /> 
 <circle cx="275" cy="325" r="25" fill="green" stroke="black" stroke-width="0.5" /> 
 <circle cx="325" cy="325" r="25" fill="green" stroke="black" stroke-width="0.5" /> 
 <circle cx="375" cy="325" r="25" fill="green" stroke="black" stroke-width="0.5" /> 
 <circle cx="425" cy="325" r="25" fill="green" stroke="black" stroke-width="0.5" /> 
 <circle cx="475" cy="325" r="25" fill="green" stroke="black" stroke-width="0.5" /> 
 <circle cx="525" cy="325" r="25" fill="green" stroke="black" stroke-width="0.5" /> 
 <circle cx="575" cy="325" r="25" fill="green" stroke="black" stroke-width="0.5" /> 
 <circle cx="625" cy="325" r="25" fill="green" stroke="black" stroke-width="0.5" /> 
 <circle cx="675" cy="325" r="25" fill="green" stroke="black" stroke-width="0.5" /> 
 <circle cx="725" cy="325" r="25" fill="green" stroke="black" stroke-width="0.5" /> 
 <circle cx="775" cy="325" r="25" fill="green" stroke="black" stroke-width="0.5" /> 
 <circle cx="825" cy="325" r="25" fill="green" stroke="black" stroke-width="0.5" /> 
 <circle cx="875" cy="325" r="25" fill="green" stroke="black" stroke-width="0.5" /> 
 <circle cx="925" cy="325" r="25" fill="green" stroke="black" stroke-width="0.5" /> 
 <circle cx="975" cy="325" r="25" fill="green" stroke="black" stroke-width="0.5" /> 
 <circle cx="1025" cy="325" r="25" fill="green" stroke="black" stroke-width="0.5" /> 
 <circle cx="75" cy="375" r="25" fill="green" stroke="black" stroke-width="0.5" /> 
 <circle cx="125" cy="375" r="25" fill="green" stroke="black" stroke-width="0.5" /> 
 <circle cx="175" cy="375" r="25" fill="green" stroke="black" stroke-width="0.5" /> 
 <circle cx="225" cy="375" r="25" fill="green" stroke="black" stroke-width="0.5" /> 
 <circle cx="275" cy="375" r="25" fill="green" stroke="black" stroke-width="0.5" /> 
 <circle cx="325" cy="375" r="25" fill="green" stroke="black" stroke-width="0.5" /> 
 <circle cx="375" cy="375" r="25" fill="green" stroke="black" stroke-width="0.5" /> 
 <circle cx="425" cy="375" r="25" fill="green" stroke="black" stroke-width="0.5" /> 
 <circle cx="475" cy="375" r="25" fill="green" stroke="black" stroke-width="0.5" /> 
 <circle cx="525" cy="375" r="25" fill="green" stroke="black" stroke-width="0.5" /> 
 <circle cx="575" cy="375" r="25" fill="green" stroke="black" stroke-width="0.5" /> 
 <circle cx="625" cy="375" r="25" fill="green" stroke="black" stroke-width="0.5" /> 
 <circle cx="675" cy="375" r="25" fill="green" stroke="black" stroke-width="0.5" /> 
 <circle cx="725" cy="375" r="25" fill="green" stroke="black" stroke-width="0.5" /> 
 <circle cx="775" cy="375" r="25" fill="green" stroke="black" stroke-width="0.5" /> 
 <circle cx="825" cy="375" r="25" fill="green" stroke="black" stroke-width="0.5" /> 
 <circle cx="875" cy="375" r="25" fill="green" stroke="black" stroke-width="0.5" /> 
 <circle cx="925" cy="375" r="25" fill="green" stroke="black" stroke-width="0.5" /> 
 <circle cx="975" cy="375" r="25" fill="green" stroke="black" stroke-width="0.5" /> 
 <circle cx="1025" cy="375" r="25" fill="green" stroke="black" stroke-width="0.5" /> 
 <circle cx="75" cy="425" r="25" fill="green" stroke="black" stroke-width="0.5" /> 
 <circle cx="125" cy="425" r="25" fill="green" stroke="black" stroke-width="0.5" /> 
 <circle cx="175" cy="425" r="25" fill="green" stroke="black" stroke-width="0.5" /> 
 <circle cx="225" cy="425" r="25" fill="green" stroke="black" stroke-width="0.5" /> 
 <circle cx="275" cy="425" r="25" fill="green" stroke="black" stroke-width="0.5" /> 
 <circle cx="325" cy="425" r="25" fill="green" stroke="black" stroke-width="0.5" /> 
 <circle cx="375" cy="425" r="25" fill="green" stroke="black" stroke-width="0.5" /> 
 <circle cx="425" cy="425" r="25" fill="green" stroke="black" stroke-width="0.5" /> 
 <circle cx="475" cy="425" r="25" fill="green" stroke="black" stroke-width="0.5" /> 
 <circle cx="525" cy="425" r="25" fill="green" stroke="black" stroke-width="0.5" /> 
 <circle cx="575" cy="425" r="25" fill="green" stroke="black" stroke-width="0.5" /> 
 <circle cx="625" cy="425" r="25" fill="green" stroke="black" stroke-width="0.5" /> 
 <circle cx="675" cy="425" r="25" fill="green" stroke="black" stroke-width="0.5" /> 
 <circle cx="725" cy="425" r="25" fill="green" stroke="black" stroke-width="0.5" /> 
 <circle cx="775" cy="425" r="25" fill="green" stroke="black" stroke-width="0.5" /> 
 <circle cx="825" cy="425" r="25" fill="green" stroke="black" stroke-width="0.5" /> 
 <circle cx="875" cy="425" r="25" fill="green" stroke="black" stroke-width="0.5" /> 
 <circle cx="925" cy="425" r="25" fill="green" stroke="black" stroke-width="0.5" /> 
 <circle cx="975" cy="425" r="25" fill="green" stroke="black" stroke-width="0.5" /> 
 <circle cx="1025" cy="425" r="25" fill="green" stroke="black" stroke-width="0.5" /> 
 <circle cx="75" cy="475" r="25" fill="green" stroke="black" stroke-width="0.5" /> 
 <circle cx="125" cy="475" r="25" fill="green" stroke="black" stroke-width="0.5" /> 
 <circle cx="175" cy="475" r="25" fill="green" stroke="black" stroke-width="0.5" /> 
 <circle cx="225" cy="475" r="25" fill="green" stroke="black" stroke-width="0.5" /> 
 <circle cx="275" cy="475" r="25" fill="green" stroke="black" stroke-width="0.5" /> 
 <circle cx="325" cy="475" r="25" fill="green" stroke="black" stroke-width="0.5" /> 
 <circle cx="375" cy="475" r="25" fill="green" stroke="black" stroke-width="0.5" /> 
 <circle cx="425" cy="475" r="25" fill="green" stroke="black" stroke-width="0.5" /> 
 <circle cx="475" cy="475" r="25" fill="green" stroke="black" stroke-width="0.5" /> 
 <circle cx="525" cy="475" r="25" fill="green" stroke="black" stroke-width="0.5" /> 
 <circle cx="575" cy="475" r="25" fill="green" stroke="black" stroke-width="0.5" /> 
 <circle cx="625" cy="475" r="25" fill="green" stroke="black" stroke-width="0.5" /> 
 <circle cx="675" cy="475" r="25" fill="green" stroke="black" stroke-width="0.5" /> 
 <circle cx="725" cy="475" r="25" fill="green" stroke="black" stroke-width="0.5" /> 
 <circle cx="775" cy="475" r="25" fill="green" stroke="black" stroke-width="0.5" /> 
 <circle cx="825" cy="475" r="25" fill="green" stroke="black" stroke-width="0.5" /> 
 <circle cx="875" cy="475" r="25" fill="green" stroke="black" stroke-width="0.5" /> 
 <circle cx="925" cy="475" r="25" fill="green" stroke="black" stroke-width="0.5" /> 
 <circle cx="975" cy="475" r="25" fill="green" stroke="black" stroke-width="0.5" /> 
 <circle cx="1025" cy="475" r="25" fill="green" stroke="black" stroke-width="0.5" /> 
 <circle cx="1075" cy="475" r="25" fill="green" stroke="black" stroke-width="0.5" /> 
 <circle cx="75" cy="525" r="25" fill="green" stroke="black" stroke-width="0.5" /> 
 <circle cx="125" cy="525" r="25" fill="green" stroke="black" stroke-width="0.5" /> 
 <circle cx="175" cy="525" r="25" fill="green" stroke="black" stroke-width="0.5" /> 
 <circle cx="225" cy="525" r="25" fill="green" stroke="black" stroke-width="0.5" /> 
 <circle cx="275" cy="525" r="25" fill="green" stroke="black" stroke-width="0.5" /> 
 <circle cx="325" cy="525" r="25" fill="green" stroke="black" stroke-width="0.5" /> 
 <circle cx="375" cy="525" r="25" fill="green" stroke="black" stroke-width="0.5" /> 
 <circle cx="425" cy="525" r="25" fill="green" stroke="black" stroke-width="0.5" /> 
 <circle cx="475" cy="525" r="25" fill="green" stroke="black" stroke-width="0.5" /> 
 <circle cx="525" cy="525" r="25" fill="green" stroke="black" stroke-width="0.5" /> 
 <circle cx="575" cy="525" r="25" fill="green" stroke="black" stroke-width="0.5" /> 
 <circle cx="625" cy="525" r="25" fill="green" stroke="black" stroke-width="0.5" /> 
 <circle cx="675" cy="525" r="25" fill="green" stroke="black" stroke-width="0.5" /> 
 <circle cx="725" cy="525" r="25" fill="green" stroke="black" stroke-width="0.5" /> 
 <circle cx="775" cy="525" r="25" fill="green" stroke="black" stroke-width="0.5" /> 
 <circle cx="825" cy="525" r="25" fill="green" stroke="black" stroke-width="0.5" /> 
 <circle cx="875" cy="525" r="25" fill="green" stroke="black" stroke-width="0.5" /> 
 <circle cx="925" cy="525" r="25" fill="green" stroke="black" stroke-width="0.5" /> 
 <circle cx="975" cy="525" r="25" fill="green" stroke="black" stroke-width="0.5" /> 
 <circle cx="1025" cy="525" r="25" fill="green" stroke="black" stroke-width="0.5" /> 
 <circle cx="1075" cy="525" r="25" fill="green" stroke="black" stroke-width="0.5" /> 
 <circle cx="75" cy="575" r="25" fill="green" stroke="black" stroke-width="0.5" /> 
 <circle cx="125" cy="575" r="25" fill="green" stroke="black" stroke-width="0.5" /> 
 <circle cx="175" cy="575" r="25" fill="green" stroke="black" stroke-width="0.5" /> 
 <circle cx="225" cy="575" r="25" fill="green" stroke="black" stroke-width="0.5" /> 
 <circle cx="275" cy="575" r="25" fill="green" stroke="black" stroke-width="0.5" /> 
 <circle cx="325" cy="575" r="25" fill="green" stroke="black" stroke-width="0.5" /> 
 <circle cx="375" cy="575" r="25" fill="green" stroke="black" stroke-width="0.5" /> 
 <circle cx="425" cy="575" r="25" fill="green" stroke="black" stroke-width="0.5" /> 
 <circle cx="475" cy="575" r="25" fill="green" stroke="black" stroke-width="0.5" /> 
 <circle cx="525" cy="575" r="25" fill="green" stroke="black" stroke-width="0.5" /> 
 <circle cx="575" cy="575" r="25" fill="green" stroke="black" stroke-width="0.5" /> 
 <circle cx="625" cy="575" r="25" fill="green" stroke="black" stroke-width="0.5" /> 
 <circle cx="675" cy="575" r="25" fill="green" stroke="black" stroke-width="0.5" /> 
 <circle cx="725" cy="575" r="25" fill="green" stroke="black" stroke-width="0.5" /> 
 <circle cx="775" cy="575" r="25" fill="green" stroke="black" stroke-width="0.5" /> 
 <circle cx="825" cy="575" r="25" fill="green" stroke="black" stroke-width="0.5" /> 
 <circle cx="875" cy="575" r="25" fill="green" stroke="black" stroke-width="0.5" /> 
 <circle cx="925" cy="575" r="25" fill="green" stroke="black" stroke-width="0.5" /> 
 <circle cx="975" cy="575" r="25" fill="green" stroke="black" stroke-width="0.5" /> 
 <circle cx="1025" cy="575" r="25" fill="green" stroke="black" stroke-width="0.5" /> 
 <circle cx="1075" cy="575" r="25" fill="green" stroke="black" stroke-width="0.5" /> 
 <circle cx="75" cy="625" r="25" fill="green" stroke="black" stroke-width="0.5" /> 
 <circle cx="125" cy="625" r="25" fill="green" stroke="black" stroke-width="0.5" /> 
 <circle cx="175" cy="625" r="25" fill="green" stroke="black" stroke-width="0.5" /> 
 <circle cx="225" cy="625" r="25" fill="green" stroke="black" stroke-width="0.5" /> 
 <circle cx="275" cy="625" r="25" fill="green" stroke="black" stroke-width="0.5" /> 
 <circle cx="325" cy="625" r="25" fill="green" stroke="black" stroke-width="0.5" /> 
 <circle cx="375" cy="625" r="25" fill="green" stroke="black" stroke-width="0.5" /> 
 <circle cx="425" cy="625" r="25" fill="green" stroke="black" stroke-width="0.5" /> 
 <circle cx="475" cy="625" r="25" fill="green" stroke="black" stroke-width="0.5" /> 
 <circle cx="525" cy="625" r="25" fill="green" stroke="black" stroke-width="0.5" /> 
 <circle cx="575" cy="625" r="25" fill="green" stroke="black" stroke-width="0.5" /> 
 <circle cx="625" cy="625" r="25" fill="green" stroke="black" stroke-width="0.5" /> 
 <circle cx="675" cy="625" r="25" fill="green" stroke="black" stroke-width="0.5" /> 
 <circle cx="725" cy="625" r="25" fill="green" stroke="black" stroke-width="0.5" /> 
 <circle cx="775" cy="625" r="25" fill="green" stroke="black" stroke-width="0.5" /> 
 <circle cx="825" cy="625" r="25" fill="green" stroke="black" stroke-width="0.5" /> 
 <circle cx="875" cy="625" r="25" fill="green" stroke="black" stroke-width="0.5" /> 
 <circle cx="925" cy="625" r="25" fill="green" stroke="black" stroke-width="0.5" /> 
 <circle cx="975" cy="625" r="25" fill="green" stroke="black" stroke-width="0.5" /> 
 <circle cx="1025" cy="625" r="25" fill="green" stroke="black" stroke-width="0.5" /> 
 <circle cx="1075" cy="625" r="25" fill="green" stroke="black" stroke-width="0.5" /> 
 <circle cx="75" cy="675" r="25" fill="green" stroke="black" stroke-width="0.5" /> 
 <circle cx="125" cy="675" r="25" fill="green" stroke="black" stroke-width="0.5" /> 
 <circle cx="175" cy="675" r="25" fill="green" stroke="black" stroke-width="0.5" /> 
 <circle cx="225" cy="675" r="25" fill="green" stroke="black" stroke-width="0.5" /> 
 <circle cx="275" cy="675" r="25" fill="green" stroke="black" stroke-width="0.5" /> 
 <circle cx="325" cy="675" r="25" fill="green" stroke="black" stroke-width="0.5" /> 
 <circle cx="375" cy="675" r="25" fill="green" stroke="black" stroke-width="0.5" /> 
 <circle cx="425" cy="675" r="25" fill="green" stroke="black" stroke-width="0.5" /> 
 <circle cx="475" cy="675" r="25" fill="green" stroke="black" stroke-width="0.5" /> 
 <circle cx="525" cy="675" r="25" fill="green" stroke="black" stroke-width="0.5" /> 
 <circle cx="575" cy="675" r="25" fill="green" stroke="black" stroke-width="0.5" /> 
 <circle cx="625" cy="675" r="25" fill="green" stroke="black" stroke-width="0.5" /> 
 <circle cx="675" cy="675" r="25" fill="green" stroke="black" stroke-width="0.5" /> 
 <circle cx="725" cy="675" r="25" fill="green" stroke="black" stroke-width="0.5" /> 
 <circle cx="775" cy="675" r="25" fill="green" stroke="black" stroke-width="0.5" /> 
 <circle cx="825" cy="675" r="25" fill="green" stroke="black" stroke-width="0.5" /> 
 <circle cx="875" cy="675" r="25" fill="green" stroke="black" stroke-width="0.5" /> 
 <circle cx="925" cy="675" r="25" fill="green" stroke="black" stroke-width="0.5" /> 
 <circle cx="975" cy="675" r="25" fill="green" stroke="black" stroke-width="0.5" /> 
 <circle cx="1025" cy="675" r="25" fill="green" stroke="black" stroke-width="0.5" /> 
 <circle cx="75" cy="725" r="25" fill="green" stroke="black" stroke-width="0.5" /> 
 <circle cx="125" cy="725" r="25" fill="green" stroke="black" stroke-width="0.5" /> 
 <circle cx="175" cy="725" r="25" fill="green" stroke="black" stroke-width="0.5" /> 
 <circle cx="225" cy="725" r="25" fill="green" stroke="black" stroke-width="0.5" /> 
 <circle cx="275" cy="725" r="25" fill="green" stroke="black" stroke-width="0.5" /> 
 <circle cx="325" cy="725" r="25" fill="green" stroke="black" stroke-width="0.5" /> 
 <circle cx="375" cy="725" r="25" fill="green" stroke="black" stroke-width="0.5" /> 
 <circle cx="425" cy="725" r="25" fill="green" stroke="black" stroke-width="0.5" /> 
 <circle cx="475" cy="725" r="25" fill="green" stroke="black" stroke-width="0.5" /> 
 <circle cx="525" cy="725" r="25" fill="green" stroke="black" stroke-width="0.5" /> 
 <circle cx="575" cy="725" r="25" fill="green" stroke="black" stroke-width="0.5" /> 
 <circle cx="625" cy="725" r="25" fill="green" stroke="black" stroke-width="0.5" /> 
 <circle cx="675" cy="725" r="25" fill="green" stroke="black" stroke-width="0.5" /> 
 <circle cx="725" cy="725" r="25" fill="green" stroke="black" stroke-width="0.5" /> 
 <circle cx="775" cy="725" r="25" fill="green" stroke="black" stroke-width="0.5" /> 
 <circle cx="825" cy="725" r="25" fill="green" stroke="black" stroke-width="0.5" /> 
 <circle cx="875" cy="725" r="25" fill="green" stroke="black" stroke-width="0.5" /> 
 <circle cx="925" cy="725" r="25" fill="green" stroke="black" stroke-width="0.5" /> 
 <circle cx="975" cy="725" r="25" fill="green" stroke="black" stroke-width="0.5" /> 
 <circle cx="1025" cy="725" r="25" fill="green" stroke="black" stroke-width="0.5" /> 
 <circle cx="75" cy="775" r="25" fill="green" stroke="black" stroke-width="0.5" /> 
 <circle cx="125" cy="775" r="25" fill="green" stroke="black" stroke-width="0.5" /> 
 <circle cx="175" cy="775" r="25" fill="green" stroke="black" stroke-width="0.5" /> 
 <circle cx="225" cy="775" r="25" fill="green" stroke="black" stroke-width="0.5" /> 
 <circle cx="275" cy="775" r="25" fill="green" stroke="black" stroke-width="0.5" /> 
 <circle cx="325" cy="775" r="25" fill="green" stroke="black" stroke-width="0.5" /> 
 <circle cx="375" cy="775" r="25" fill="green" stroke="black" stroke-width="0.5" /> 
 <circle cx="425" cy="775" r="25" fill="green" stroke="black" stroke-width="0.5" /> 
 <circle cx="475" cy="775" r="25" fill="green" stroke="black" stroke-width="0.5" /> 
 <circle cx="525" cy="775" r="25" fill="green" stroke="black" stroke-width="0.5" /> 
 <circle cx="575" cy="775" r="25" fill="green" stroke="black" stroke-width="0.5" /> 
 <circle cx="625" cy="775" r="25" fill="green" stroke="black" stroke-width="0.5" /> 
 <circle cx="675" cy="775" r="25" fill="green" stroke="black" stroke-width="0.5" /> 
 <circle cx="725" cy="775" r="25" fill="green" stroke="black" stroke-width="0.5" /> 
 <circle cx="775" cy="775" r="25" fill="green" stroke="black" stroke-width="0.5" /> 
 <circle cx="825" cy="775" r="25" fill="green" stroke="black" stroke-width="0.5" /> 
 <circle cx="875" cy="775" r="25" fill="green" stroke="black" stroke-width="0.5" /> 
 <circle cx="925" cy="775" r="25" fill="green" stroke="black" stroke-width="0.5" /> 
 <circle cx="975" cy="775" r="25" fill="green" stroke="black" stroke-width="0.5" /> 
 <circle cx="1025" cy="775" r="25" fill="green" stroke="black" stroke-width="0.5" /> 
 <circle cx="125" cy="825" r="25" fill="green" stroke="black" stroke-width="0.5" /> 
 <circle cx="175" cy="825" r="25" fill="green" stroke="black" stroke-width="0.5" /> 
 <circle cx="225" cy="825" r="25" fill="green" stroke="black" stroke-width="0.5" /> 
 <circle cx="275" cy="825" r="25" fill="green" stroke="black" stroke-width="0.5" /> 
 <circle cx="325" cy="825" r="25" fill="green" stroke="black" stroke-width="0.5" /> 
 <circle cx="375" cy="825" r="25" fill="green" stroke="black" stroke-width="0.5" /> 
 <circle cx="425" cy="825" r="25" fill="green" stroke="black" stroke-width="0.5" /> 
 <circle cx="475" cy="825" r="25" fill="green" stroke="black" stroke-width="0.5" /> 
 <circle cx="525" cy="825" r="25" fill="green" stroke="black" stroke-width="0.5" /> 
 <circle cx="575" cy="825" r="25" fill="green" stroke="black" stroke-width="0.5" /> 
 <circle cx="625" cy="825" r="25" fill="green" stroke="black" stroke-width="0.5" /> 
 <circle cx="675" cy="825" r="25" fill="green" stroke="black" stroke-width="0.5" /> 
 <circle cx="725" cy="825" r="25" fill="green" stroke="black" stroke-width="0.5" /> 
 <circle cx="775" cy="825" r="25" fill="green" stroke="black" stroke-width="0.5" /> 
 <circle cx="825" cy="825" r="25" fill="green" stroke="black" stroke-width="0.5" /> 
 <circle cx="875" cy="825" r="25" fill="green" stroke="black" stroke-width="0.5" /> 
 <circle cx="925" cy="825" r="25" fill="green" stroke="black" stroke-width="0.5" /> 
 <circle cx="975" cy="825" r="25" fill="green" stroke="black" stroke-width="0.5" /> 
 <circle cx="175" cy="875" r="25" fill="green" stroke="black" stroke-width="0.5" /> 
 <circle cx="225" cy="875" r="25" fill="green" stroke="black" stroke-width="0.5" /> 
 <circle cx="275" cy="875" r="25" fill="green" stroke="black" stroke-width="0.5" /> 
 <circle cx="325" cy="875" r="25" fill="green" stroke="black" stroke-width="0.5" /> 
 <circle cx="375" cy="875" r="25" fill="green" stroke="black" stroke-width="0.5" /> 
 <circle cx="425" cy="875" r="25" fill="green" stroke="black" stroke-width="0.5" /> 
 <circle cx="475" cy="875" r="25" fill="green" stroke="black" stroke-width="0.5" /> 
 <circle cx="525" cy="875" r="25" fill="green" stroke="black" stroke-width="0.5" /> 
 <circle cx="575" cy="875" r="25" fill="green" stroke="black" stroke-width="0.5" /> 
 <circle cx="625" cy="875" r="25" fill="green" stroke="black" stroke-width="0.5" /> 
 <circle cx="675" cy="875" r="25" fill="green" stroke="black" stroke-width="0.5" /> 
 <circle cx="725" cy="875" r="25" fill="green" stroke="black" stroke-width="0.5" /> 
 <circle cx="775" cy="875" r="25" fill="green" stroke="black" stroke-width="0.5" /> 
 <circle cx="825" cy="875" r="25" fill="green" stroke="black" stroke-width="0.5" /> 
 <circle cx="875" cy="875" r="25" fill="green" stroke="black" stroke-width="0.5" /> 
 <circle cx="925" cy="875" r="25" fill="green" stroke="black" stroke-width="0.5" /> 
 <circle cx="975" cy="875" r="25" fill="green" stroke="black" stroke-width="0.5" /> 
 <circle cx="225" cy="925" r="25" fill="green" stroke="black" stroke-width="0.5" /> 
 <circle cx="275" cy="925" r="25" fill="green" stroke="black" stroke-width="0.5" /> 
 <circle cx="325" cy="925" r="25" fill="green" stroke="black" stroke-width="0.5" /> 
 <circle cx="375" cy="925" r="25" fill="green" stroke="black" stroke-width="0.5" /> 
 <circle cx="425" cy="925" r="25" fill="green" stroke="black" stroke-width="0.5" /> 
 <circle cx="475" cy="925" r="25" fill="green" stroke="black" stroke-width="0.5" /> 
 <circle cx="525" cy="925" r="25" fill="green" stroke="black" stroke-width="0.5" /> 
 <circle cx="575" cy="925" r="25" fill="green" stroke="black" stroke-width="0.5" /> 
 <circle cx="625" cy="925" r="25" fill="green" stroke="black" stroke-width="0.5" /> 
 <circle cx="675" cy="925" r="25" fill="green" stroke="black" stroke-width="0.5" /> 
 <circle cx="725" cy="925" r="25" fill="green" stroke="black" stroke-width="0.5" /> 
 <circle cx="775" cy="925" r="25" fill="green" stroke="black" stroke-width="0.5" /> 
 <circle cx="825" cy="925" r="25" fill="green" stroke="black" stroke-width="0.5" /> 
 <circle cx="875" cy="925" r="25" fill="green" stroke="black" stroke-width="0.5" /> 
 <circle cx="925" cy="925" r="25" fill="green" stroke="black" stroke-width="0.5" /> 
 <circle cx="275" cy="975" r="25" fill="green" stroke="black" stroke-width="0.5" /> 
 <circle cx="325" cy="975" r="25" fill="green" stroke="black" stroke-width="0.5" /> 
 <circle cx="375" cy="975" r="25" fill="green" stroke="black" stroke-width="0.5" /> 
 <circle cx="425" cy="975" r="25" fill="green" stroke="black" stroke-width="0.5" /> 
 <circle cx="475" cy="975" r="25" fill="green" stroke="black" stroke-width="0.5" /> 
 <circle cx="525" cy="975" r="25" fill="green" stroke="black" stroke-width="0.5" /> 
 <circle cx="575" cy="975" r="25" fill="green" stroke="black" stroke-width="0.5" /> 
 <circle cx="625" cy="975" r="25" fill="green" stroke="black" stroke-width="0.5" /> 
 <circle cx="675" cy="975" r="25" fill="green" stroke="black" stroke-width="0.5" /> 
 <circle cx="725" cy="975" r="25" fill="green" stroke="black" stroke-width="0.5" /> 
 <circle cx="775" cy="975" r="25" fill="green" stroke="black" stroke-width="0.5" /> 
 <circle cx="825" cy="975" r="25" fill="green" stroke="black" stroke-width="0.5" /> 
 <circle cx="875" cy="975" r="25" fill="green" stroke="black" stroke-width="0.5" /> 
 <circle cx="325" cy="1025" r="25" fill="green" stroke="black" stroke-width="0.5" /> 
 <circle cx="375" cy="1025" r="25" fill="green" stroke="black" stroke-width="0.5" /> 
 <circle cx="425" cy="1025" r="25" fill="green" stroke="black" stroke-width="0.5" /> 
 <circle cx="475" cy="1025" r="25" fill="green" stroke="black" stroke-width="0.5" /> 
 <circle cx="525" cy="1025" r="25" fill="green" stroke="black" stroke-width="0.5" /> 
 <circle cx="575" cy="1025" r="25" fill="green" stroke="black" stroke-width="0.5" /> 
 <circle cx="625" cy="1025" r="25" fill="green" stroke="black" stroke-width="0.5" /> 
 <circle cx="675" cy="1025" r="25" fill="green" stroke="black" stroke-width="0.5" /> 
 <circle cx="725" cy="1025" r="25" fill="green" stroke="black" stroke-width="0.5" /> 
 <circle cx="775" cy="1025" r="25" fill="green" stroke="black" stroke-width="0.5" /> 
 <circle cx="475" cy="1075" r="25" fill="green" stroke="black" stroke-width="0.5" /> 
 <circle cx="525" cy="1075" r="25" fill="green" stroke="black" stroke-width="0.5" /> 
 <circle cx="575" cy="1075" r="25" fill="green" stroke="black" stroke-width="0.5" /> 
 <circle cx="625" cy="1075" r="25" fill="green" stroke="black" stroke-width="0.5" /> 
</svg>