<svg version="1.1" xmlns="http://www.w3.org/2000/svg"> 
 <polygon points=" 666 1332 707.818 1330.69 749.472 1326.75 790.796 1320.2 831.627 1311.08 871.805 1299.4 911.171 1285.23 949.569 1268.61 986.848 1249.62 1022.86 1228.32 1057.46 1204.81 1090.52 1179.16 1121.91 1151.49 1151.49 1121.91 1179.16 1090.52 1204.81 1057.46 1228.32 1022.86 1249.62 986.848 1268.61 949.569 1285.23 911.171 1299.4 871.805 1311.08 831.627 1320.2 790.796 1326.75 749.472 1330.69 707.818 1332 666 1330.69 624.182 1326.75 582.528 1320.2 541.204 1311.08 500.373 1299.4 460.195 1285.23 420.829 1268.61 382.431 1249.62 345.152 1228.32 309.139 1204.81 274.535 1179.16 241.476 1151.49 210.092 1121.91 180.507 1090.52 152.838 1057.46 127.195 1022.86 103.678 986.848 82.3798 949.569 63.3852 911.171 46.7689 871.805 32.5964 831.627 20.9236 790.796 11.7967 749.472 5.25161 707.818 1.3142 666 0 624.182 1.3142 582.528 5.25161 541.204 11.7967 500.373 20.9236 460.195 32.5964 420.829 46.7689 382.431 63.3852 345.152 82.3798 309.139 103.678 274.535 127.195 241.476 152.838 210.092 180.507 180.507 210.092 152.838 241.476 127.195 274.535 103.678 309.139 82.3798 345.152 63.3852 382.431 46.7689 420.829 32.5964 460.195 20.9236 500.373 11.7967 541.204 5.25161 582.528 1.3142 624.182 0 666 1.3142 707.818 5.25161 749.472 11.7967 790.796 20.9236 831.627 32.5964 871.805 46.7689 911.171 63.3852 949.569 82.3798 986.848 103.678 1022.86 127.195 1057.46 152.838 1090.52 180.507 1121.91 210.092 1151.49 241.476 1179.16 274.535 1204.81 309.139 1228.32 345.152 1249.62 382.431 1268.61 420.829 1285.23 460.195 1299.4 500.373 1311.08 541.204 1320.2 582.528 1326.75 624.182 1330.69 " fill="green" stroke="black" stroke-width="0.5"/> 
</svg>