<svg version="1.1" xmlns="http://www.w3.org/2000/svg"> 
<rect  width="452" height="320" fill="red" />
<rect x="0" y="0" width="46" height="23" fill="green" stroke="black" stroke-width="0.5" />
<rect x="46" y="0" width="46" height="23" fill="green" stroke="black" stroke-width="0.5" />
<rect x="92" y="0" width="46" height="23" fill="green" stroke="black" stroke-width="0.5" />
<rect x="138" y="0" width="46" height="23" fill="green" stroke="black" stroke-width="0.5" />
<rect x="184" y="0" width="46" height="23" fill="green" stroke="black" stroke-width="0.5" />
<rect x="230" y="0" width="46" height="23" fill="green" stroke="black" stroke-width="0.5" />
<rect x="276" y="0" width="46" height="23" fill="green" stroke="black" stroke-width="0.5" />
<rect x="322" y="0" width="46" height="23" fill="green" stroke="black" stroke-width="0.5" />
<rect x="368" y="0" width="46" height="23" fill="green" stroke="black" stroke-width="0.5" />
<rect x="414" y="0" width="23" height="46" fill="green" stroke="black" stroke-width="0.5" />
<rect x="414" y="46" width="23" height="46" fill="green" stroke="black" stroke-width="0.5" />
<rect x="414" y="92" width="23" height="46" fill="green" stroke="black" stroke-width="0.5" />
<rect x="414" y="138" width="23" height="46" fill="green" stroke="black" stroke-width="0.5" />
<rect x="414" y="184" width="23" height="46" fill="green" stroke="black" stroke-width="0.5" />
<rect x="414" y="230" width="23" height="46" fill="green" stroke="black" stroke-width="0.5" />
<rect x="0" y="23" width="46" height="23" fill="green" stroke="black" stroke-width="0.5" />
<rect x="46" y="23" width="46" height="23" fill="green" stroke="black" stroke-width="0.5" />
<rect x="92" y="23" width="46" height="23" fill="green" stroke="black" stroke-width="0.5" />
<rect x="138" y="23" width="46" height="23" fill="green" stroke="black" stroke-width="0.5" />
<rect x="184" y="23" width="46" height="23" fill="green" stroke="black" stroke-width="0.5" />
<rect x="230" y="23" width="46" height="23" fill="green" stroke="black" stroke-width="0.5" />
<rect x="276" y="23" width="46" height="23" fill="green" stroke="black" stroke-width="0.5" />
<rect x="322" y="23" width="46" height="23" fill="green" stroke="black" stroke-width="0.5" />
<rect x="368" y="23" width="46" height="23" fill="green" stroke="black" stroke-width="0.5" />
<rect x="0" y="46" width="46" height="23" fill="green" stroke="black" stroke-width="0.5" />
<rect x="46" y="46" width="46" height="23" fill="green" stroke="black" stroke-width="0.5" />
<rect x="92" y="46" width="46" height="23" fill="green" stroke="black" stroke-width="0.5" />
<rect x="138" y="46" width="46" height="23" fill="green" stroke="black" stroke-width="0.5" />
<rect x="184" y="46" width="46" height="23" fill="green" stroke="black" stroke-width="0.5" />
<rect x="230" y="46" width="46" height="23" fill="green" stroke="black" stroke-width="0.5" />
<rect x="276" y="46" width="46" height="23" fill="green" stroke="black" stroke-width="0.5" />
<rect x="322" y="46" width="46" height="23" fill="green" stroke="black" stroke-width="0.5" />
<rect x="368" y="46" width="46" height="23" fill="green" stroke="black" stroke-width="0.5" />
<rect x="0" y="69" width="46" height="23" fill="green" stroke="black" stroke-width="0.5" />
<rect x="46" y="69" width="46" height="23" fill="green" stroke="black" stroke-width="0.5" />
<rect x="92" y="69" width="46" height="23" fill="green" stroke="black" stroke-width="0.5" />
<rect x="138" y="69" width="46" height="23" fill="green" stroke="black" stroke-width="0.5" />
<rect x="184" y="69" width="46" height="23" fill="green" stroke="black" stroke-width="0.5" />
<rect x="230" y="69" width="46" height="23" fill="green" stroke="black" stroke-width="0.5" />
<rect x="276" y="69" width="46" height="23" fill="green" stroke="black" stroke-width="0.5" />
<rect x="322" y="69" width="46" height="23" fill="green" stroke="black" stroke-width="0.5" />
<rect x="368" y="69" width="46" height="23" fill="green" stroke="black" stroke-width="0.5" />
<rect x="0" y="92" width="46" height="23" fill="green" stroke="black" stroke-width="0.5" />
<rect x="46" y="92" width="46" height="23" fill="green" stroke="black" stroke-width="0.5" />
<rect x="92" y="92" width="46" height="23" fill="green" stroke="black" stroke-width="0.5" />
<rect x="138" y="92" width="46" height="23" fill="green" stroke="black" stroke-width="0.5" />
<rect x="184" y="92" width="46" height="23" fill="green" stroke="black" stroke-width="0.5" />
<rect x="230" y="92" width="46" height="23" fill="green" stroke="black" stroke-width="0.5" />
<rect x="276" y="92" width="46" height="23" fill="green" stroke="black" stroke-width="0.5" />
<rect x="322" y="92" width="46" height="23" fill="green" stroke="black" stroke-width="0.5" />
<rect x="368" y="92" width="46" height="23" fill="green" stroke="black" stroke-width="0.5" />
<rect x="0" y="115" width="46" height="23" fill="green" stroke="black" stroke-width="0.5" />
<rect x="46" y="115" width="46" height="23" fill="green" stroke="black" stroke-width="0.5" />
<rect x="92" y="115" width="46" height="23" fill="green" stroke="black" stroke-width="0.5" />
<rect x="138" y="115" width="46" height="23" fill="green" stroke="black" stroke-width="0.5" />
<rect x="184" y="115" width="46" height="23" fill="green" stroke="black" stroke-width="0.5" />
<rect x="230" y="115" width="46" height="23" fill="green" stroke="black" stroke-width="0.5" />
<rect x="276" y="115" width="46" height="23" fill="green" stroke="black" stroke-width="0.5" />
<rect x="322" y="115" width="46" height="23" fill="green" stroke="black" stroke-width="0.5" />
<rect x="368" y="115" width="46" height="23" fill="green" stroke="black" stroke-width="0.5" />
<rect x="0" y="138" width="46" height="23" fill="green" stroke="black" stroke-width="0.5" />
<rect x="46" y="138" width="46" height="23" fill="green" stroke="black" stroke-width="0.5" />
<rect x="92" y="138" width="46" height="23" fill="green" stroke="black" stroke-width="0.5" />
<rect x="138" y="138" width="46" height="23" fill="green" stroke="black" stroke-width="0.5" />
<rect x="184" y="138" width="46" height="23" fill="green" stroke="black" stroke-width="0.5" />
<rect x="230" y="138" width="46" height="23" fill="green" stroke="black" stroke-width="0.5" />
<rect x="276" y="138" width="46" height="23" fill="green" stroke="black" stroke-width="0.5" />
<rect x="322" y="138" width="46" height="23" fill="green" stroke="black" stroke-width="0.5" />
<rect x="368" y="138" width="46" height="23" fill="green" stroke="black" stroke-width="0.5" />
<rect x="0" y="161" width="46" height="23" fill="green" stroke="black" stroke-width="0.5" />
<rect x="46" y="161" width="46" height="23" fill="green" stroke="black" stroke-width="0.5" />
<rect x="92" y="161" width="46" height="23" fill="green" stroke="black" stroke-width="0.5" />
<rect x="138" y="161" width="46" height="23" fill="green" stroke="black" stroke-width="0.5" />
<rect x="184" y="161" width="46" height="23" fill="green" stroke="black" stroke-width="0.5" />
<rect x="230" y="161" width="46" height="23" fill="green" stroke="black" stroke-width="0.5" />
<rect x="276" y="161" width="46" height="23" fill="green" stroke="black" stroke-width="0.5" />
<rect x="322" y="161" width="46" height="23" fill="green" stroke="black" stroke-width="0.5" />
<rect x="368" y="161" width="46" height="23" fill="green" stroke="black" stroke-width="0.5" />
<rect x="0" y="184" width="46" height="23" fill="green" stroke="black" stroke-width="0.5" />
<rect x="46" y="184" width="46" height="23" fill="green" stroke="black" stroke-width="0.5" />
<rect x="92" y="184" width="46" height="23" fill="green" stroke="black" stroke-width="0.5" />
<rect x="138" y="184" width="46" height="23" fill="green" stroke="black" stroke-width="0.5" />
<rect x="184" y="184" width="46" height="23" fill="green" stroke="black" stroke-width="0.5" />
<rect x="230" y="184" width="46" height="23" fill="green" stroke="black" stroke-width="0.5" />
<rect x="276" y="184" width="46" height="23" fill="green" stroke="black" stroke-width="0.5" />
<rect x="322" y="184" width="46" height="23" fill="green" stroke="black" stroke-width="0.5" />
<rect x="368" y="184" width="46" height="23" fill="green" stroke="black" stroke-width="0.5" />
<rect x="0" y="207" width="46" height="23" fill="green" stroke="black" stroke-width="0.5" />
<rect x="46" y="207" width="46" height="23" fill="green" stroke="black" stroke-width="0.5" />
<rect x="92" y="207" width="46" height="23" fill="green" stroke="black" stroke-width="0.5" />
<rect x="138" y="207" width="46" height="23" fill="green" stroke="black" stroke-width="0.5" />
<rect x="184" y="207" width="46" height="23" fill="green" stroke="black" stroke-width="0.5" />
<rect x="230" y="207" width="46" height="23" fill="green" stroke="black" stroke-width="0.5" />
<rect x="276" y="207" width="46" height="23" fill="green" stroke="black" stroke-width="0.5" />
<rect x="322" y="207" width="46" height="23" fill="green" stroke="black" stroke-width="0.5" />
<rect x="368" y="207" width="46" height="23" fill="green" stroke="black" stroke-width="0.5" />
<rect x="0" y="230" width="46" height="23" fill="green" stroke="black" stroke-width="0.5" />
<rect x="46" y="230" width="46" height="23" fill="green" stroke="black" stroke-width="0.5" />
<rect x="92" y="230" width="46" height="23" fill="green" stroke="black" stroke-width="0.5" />
<rect x="138" y="230" width="46" height="23" fill="green" stroke="black" stroke-width="0.5" />
<rect x="184" y="230" width="46" height="23" fill="green" stroke="black" stroke-width="0.5" />
<rect x="230" y="230" width="46" height="23" fill="green" stroke="black" stroke-width="0.5" />
<rect x="276" y="230" width="46" height="23" fill="green" stroke="black" stroke-width="0.5" />
<rect x="322" y="230" width="46" height="23" fill="green" stroke="black" stroke-width="0.5" />
<rect x="368" y="230" width="46" height="23" fill="green" stroke="black" stroke-width="0.5" />
<rect x="0" y="253" width="46" height="23" fill="green" stroke="black" stroke-width="0.5" />
<rect x="46" y="253" width="46" height="23" fill="green" stroke="black" stroke-width="0.5" />
<rect x="92" y="253" width="46" height="23" fill="green" stroke="black" stroke-width="0.5" />
<rect x="138" y="253" width="46" height="23" fill="green" stroke="black" stroke-width="0.5" />
<rect x="184" y="253" width="46" height="23" fill="green" stroke="black" stroke-width="0.5" />
<rect x="230" y="253" width="46" height="23" fill="green" stroke="black" stroke-width="0.5" />
<rect x="276" y="253" width="46" height="23" fill="green" stroke="black" stroke-width="0.5" />
<rect x="322" y="253" width="46" height="23" fill="green" stroke="black" stroke-width="0.5" />
<rect x="368" y="253" width="46" height="23" fill="green" stroke="black" stroke-width="0.5" />
<rect x="0" y="276" width="46" height="23" fill="green" stroke="black" stroke-width="0.5" />
<rect x="46" y="276" width="46" height="23" fill="green" stroke="black" stroke-width="0.5" />
<rect x="92" y="276" width="46" height="23" fill="green" stroke="black" stroke-width="0.5" />
<rect x="138" y="276" width="46" height="23" fill="green" stroke="black" stroke-width="0.5" />
<rect x="184" y="276" width="46" height="23" fill="green" stroke="black" stroke-width="0.5" />
<rect x="230" y="276" width="46" height="23" fill="green" stroke="black" stroke-width="0.5" />
<rect x="276" y="276" width="46" height="23" fill="green" stroke="black" stroke-width="0.5" />
<rect x="322" y="276" width="46" height="23" fill="green" stroke="black" stroke-width="0.5" />
<rect x="368" y="276" width="46" height="23" fill="green" stroke="black" stroke-width="0.5" />
</svg>